<?xml version="1.0" encoding="utf-8" standalone="no"?>
<!DOCTYPE svg PUBLIC "-//W3C//DTD SVG 1.1//EN"
  "http://www.w3.org/Graphics/SVG/1.1/DTD/svg11.dtd">
<svg xmlns:xlink="http://www.w3.org/1999/xlink" width="460.8pt" height="345.6pt" viewBox="0 0 460.8 345.6" xmlns="http://www.w3.org/2000/svg" version="1.1">
 <metadata>
  <rdf:RDF xmlns:dc="http://purl.org/dc/elements/1.1/" xmlns:cc="http://creativecommons.org/ns#" xmlns:rdf="http://www.w3.org/1999/02/22-rdf-syntax-ns#">
   <cc:Work>
    <dc:type rdf:resource="http://purl.org/dc/dcmitype/StillImage"/>
    <dc:date>2025-08-20T10:58:03.664681</dc:date>
    <dc:format>image/svg+xml</dc:format>
    <dc:creator>
     <cc:Agent>
      <dc:title>Matplotlib v3.10.0, https://matplotlib.org/</dc:title>
     </cc:Agent>
    </dc:creator>
   </cc:Work>
  </rdf:RDF>
 </metadata>
 <defs>
  <style type="text/css">*{stroke-linejoin: round; stroke-linecap: butt}</style>
 </defs>
 <g id="figure_1">
  <g id="patch_1">
   <path d="M 0 345.6 
L 460.8 345.6 
L 460.8 0 
L 0 0 
z
" style="fill: #ffffff"/>
  </g>
  <g id="axes_1">
   <g id="patch_2">
    <path d="M 57.6 307.584 
L 414.72 307.584 
L 414.72 41.472 
L 57.6 41.472 
z
" style="fill: #ffffff"/>
   </g>
   <g id="patch_3">
    <path d="M 73.832727 307.584 
L 79.693981 307.584 
L 79.693981 307.584 
L 73.832727 307.584 
z
" clip-path="url(#p21bc1a5e6a)" style="fill: #0000ff; stroke: #000000; stroke-linejoin: miter"/>
   </g>
   <g id="patch_4">
    <path d="M 79.693981 307.584 
L 85.041845 307.584 
L 85.041845 307.584 
L 79.693981 307.584 
z
" clip-path="url(#p21bc1a5e6a)" style="fill: #0000ff; stroke: #000000; stroke-linejoin: miter"/>
   </g>
   <g id="patch_5">
    <path d="M 85.041845 307.584 
L 90.411026 307.584 
L 90.411026 307.584 
L 85.041845 307.584 
z
" clip-path="url(#p21bc1a5e6a)" style="fill: #0000ff; stroke: #000000; stroke-linejoin: miter"/>
   </g>
   <g id="patch_6">
    <path d="M 90.411026 307.584 
L 95.8368 307.584 
L 95.8368 307.584 
L 90.411026 307.584 
z
" clip-path="url(#p21bc1a5e6a)" style="fill: #0000ff; stroke: #000000; stroke-linejoin: miter"/>
   </g>
   <g id="patch_7">
    <path d="M 95.8368 307.584 
L 101.236578 307.584 
L 101.236578 307.584 
L 95.8368 307.584 
z
" clip-path="url(#p21bc1a5e6a)" style="fill: #0000ff; stroke: #000000; stroke-linejoin: miter"/>
   </g>
   <g id="patch_8">
    <path d="M 101.236578 307.584 
L 106.658627 307.584 
L 106.658627 307.584 
L 101.236578 307.584 
z
" clip-path="url(#p21bc1a5e6a)" style="fill: #0000ff; stroke: #000000; stroke-linejoin: miter"/>
   </g>
   <g id="patch_9">
    <path d="M 106.658627 307.584 
L 112.082335 307.584 
L 112.082335 307.584 
L 106.658627 307.584 
z
" clip-path="url(#p21bc1a5e6a)" style="fill: #0000ff; stroke: #000000; stroke-linejoin: miter"/>
   </g>
   <g id="patch_10">
    <path d="M 112.082335 307.584 
L 117.481802 307.584 
L 117.481802 307.584 
L 112.082335 307.584 
z
" clip-path="url(#p21bc1a5e6a)" style="fill: #0000ff; stroke: #000000; stroke-linejoin: miter"/>
   </g>
   <g id="patch_11">
    <path d="M 117.481802 307.584 
L 122.89714 307.584 
L 122.89714 307.584 
L 117.481802 307.584 
z
" clip-path="url(#p21bc1a5e6a)" style="fill: #0000ff; stroke: #000000; stroke-linejoin: miter"/>
   </g>
   <g id="patch_12">
    <path d="M 122.89714 307.584 
L 128.315091 307.584 
L 128.315091 307.584 
L 122.89714 307.584 
z
" clip-path="url(#p21bc1a5e6a)" style="fill: #0000ff; stroke: #000000; stroke-linejoin: miter"/>
   </g>
   <g id="patch_13">
    <path d="M 128.315091 307.584 
L 133.729886 307.584 
L 133.729886 307.584 
L 128.315091 307.584 
z
" clip-path="url(#p21bc1a5e6a)" style="fill: #0000ff; stroke: #000000; stroke-linejoin: miter"/>
   </g>
   <g id="patch_14">
    <path d="M 133.729886 307.584 
L 139.152 307.584 
L 139.152 307.584 
L 133.729886 307.584 
z
" clip-path="url(#p21bc1a5e6a)" style="fill: #0000ff; stroke: #000000; stroke-linejoin: miter"/>
   </g>
   <g id="patch_15">
    <path d="M 139.152 307.584 
L 144.571795 307.584 
L 144.571795 307.584 
L 139.152 307.584 
z
" clip-path="url(#p21bc1a5e6a)" style="fill: #0000ff; stroke: #000000; stroke-linejoin: miter"/>
   </g>
   <g id="patch_16">
    <path d="M 144.571795 307.584 
L 149.979957 307.584 
L 149.979957 307.584 
L 144.571795 307.584 
z
" clip-path="url(#p21bc1a5e6a)" style="fill: #0000ff; stroke: #000000; stroke-linejoin: miter"/>
   </g>
   <g id="patch_17">
    <path d="M 149.979957 307.584 
L 155.38445 307.584 
L 155.38445 96.606865 
L 149.979957 96.606865 
z
" clip-path="url(#p21bc1a5e6a)" style="fill: #0000ff; stroke: #000000; stroke-linejoin: miter"/>
   </g>
   <g id="patch_18">
    <path d="M 155.38445 307.584 
L 160.79059 307.584 
L 160.79059 307.584 
L 155.38445 307.584 
z
" clip-path="url(#p21bc1a5e6a)" style="fill: #0000ff; stroke: #000000; stroke-linejoin: miter"/>
   </g>
   <g id="patch_19">
    <path d="M 160.79059 307.584 
L 166.199572 307.584 
L 166.199572 307.584 
L 160.79059 307.584 
z
" clip-path="url(#p21bc1a5e6a)" style="fill: #0000ff; stroke: #000000; stroke-linejoin: miter"/>
   </g>
   <g id="patch_20">
    <path d="M 166.199572 307.584 
L 171.613912 307.584 
L 171.613912 307.584 
L 166.199572 307.584 
z
" clip-path="url(#p21bc1a5e6a)" style="fill: #0000ff; stroke: #000000; stroke-linejoin: miter"/>
   </g>
   <g id="patch_21">
    <path d="M 171.613912 307.584 
L 177.024685 307.584 
L 177.024685 307.584 
L 171.613912 307.584 
z
" clip-path="url(#p21bc1a5e6a)" style="fill: #0000ff; stroke: #000000; stroke-linejoin: miter"/>
   </g>
   <g id="patch_22">
    <path d="M 177.024685 307.584 
L 182.433298 307.584 
L 182.433298 307.584 
L 177.024685 307.584 
z
" clip-path="url(#p21bc1a5e6a)" style="fill: #0000ff; stroke: #000000; stroke-linejoin: miter"/>
   </g>
   <g id="patch_23">
    <path d="M 182.433298 307.584 
L 187.847221 307.584 
L 187.847221 307.584 
L 182.433298 307.584 
z
" clip-path="url(#p21bc1a5e6a)" style="fill: #0000ff; stroke: #000000; stroke-linejoin: miter"/>
   </g>
   <g id="patch_24">
    <path d="M 187.847221 307.584 
L 193.261466 307.584 
L 193.261466 307.584 
L 187.847221 307.584 
z
" clip-path="url(#p21bc1a5e6a)" style="fill: #0000ff; stroke: #000000; stroke-linejoin: miter"/>
   </g>
   <g id="patch_25">
    <path d="M 193.261466 307.584 
L 198.671638 307.584 
L 198.671638 307.584 
L 193.261466 307.584 
z
" clip-path="url(#p21bc1a5e6a)" style="fill: #0000ff; stroke: #000000; stroke-linejoin: miter"/>
   </g>
   <g id="patch_26">
    <path d="M 198.671638 307.584 
L 204.081122 307.584 
L 204.081122 307.584 
L 198.671638 307.584 
z
" clip-path="url(#p21bc1a5e6a)" style="fill: #0000ff; stroke: #000000; stroke-linejoin: miter"/>
   </g>
   <g id="patch_27">
    <path d="M 204.081122 307.584 
L 209.492476 307.584 
L 209.492476 307.584 
L 204.081122 307.584 
z
" clip-path="url(#p21bc1a5e6a)" style="fill: #0000ff; stroke: #000000; stroke-linejoin: miter"/>
   </g>
   <g id="patch_28">
    <path d="M 209.492476 307.584 
L 214.903772 307.584 
L 214.903772 288.609273 
L 209.492476 288.609273 
z
" clip-path="url(#p21bc1a5e6a)" style="fill: #0000ff; stroke: #000000; stroke-linejoin: miter"/>
   </g>
   <g id="patch_29">
    <path d="M 214.903772 307.584 
L 220.313395 307.584 
L 220.313395 217.151881 
L 214.903772 217.151881 
z
" clip-path="url(#p21bc1a5e6a)" style="fill: #0000ff; stroke: #000000; stroke-linejoin: miter"/>
   </g>
   <g id="patch_30">
    <path d="M 220.313395 307.584 
L 225.722869 307.584 
L 225.722869 123.869023 
L 220.313395 123.869023 
z
" clip-path="url(#p21bc1a5e6a)" style="fill: #0000ff; stroke: #000000; stroke-linejoin: miter"/>
   </g>
   <g id="patch_31">
    <path d="M 225.722869 307.584 
L 231.133916 307.584 
L 231.133916 73.877634 
L 225.722869 73.877634 
z
" clip-path="url(#p21bc1a5e6a)" style="fill: #0000ff; stroke: #000000; stroke-linejoin: miter"/>
   </g>
   <g id="patch_32">
    <path d="M 231.133916 307.584 
L 236.545118 307.584 
L 236.545118 74.917978 
L 231.133916 74.917978 
z
" clip-path="url(#p21bc1a5e6a)" style="fill: #0000ff; stroke: #000000; stroke-linejoin: miter"/>
   </g>
   <g id="patch_33">
    <path d="M 236.545118 307.584 
L 241.956265 307.584 
L 241.956265 108.735544 
L 236.545118 108.735544 
z
" clip-path="url(#p21bc1a5e6a)" style="fill: #0000ff; stroke: #000000; stroke-linejoin: miter"/>
   </g>
   <g id="patch_34">
    <path d="M 241.956265 307.584 
L 247.367611 307.584 
L 247.367611 157.173639 
L 241.956265 157.173639 
z
" clip-path="url(#p21bc1a5e6a)" style="fill: #0000ff; stroke: #000000; stroke-linejoin: miter"/>
   </g>
   <g id="patch_35">
    <path d="M 247.367611 307.584 
L 252.778637 307.584 
L 252.778637 205.868764 
L 247.367611 205.868764 
z
" clip-path="url(#p21bc1a5e6a)" style="fill: #0000ff; stroke: #000000; stroke-linejoin: miter"/>
   </g>
   <g id="patch_36">
    <path d="M 252.778637 307.584 
L 258.189332 307.584 
L 258.189332 245.565129 
L 252.778637 245.565129 
z
" clip-path="url(#p21bc1a5e6a)" style="fill: #0000ff; stroke: #000000; stroke-linejoin: miter"/>
   </g>
   <g id="patch_37">
    <path d="M 258.189332 307.584 
L 263.59991 307.584 
L 263.59991 272.492361 
L 258.189332 272.492361 
z
" clip-path="url(#p21bc1a5e6a)" style="fill: #0000ff; stroke: #000000; stroke-linejoin: miter"/>
   </g>
   <g id="patch_38">
    <path d="M 263.59991 307.584 
L 269.011045 307.584 
L 269.011045 287.157703 
L 263.59991 287.157703 
z
" clip-path="url(#p21bc1a5e6a)" style="fill: #0000ff; stroke: #000000; stroke-linejoin: miter"/>
   </g>
   <g id="patch_39">
    <path d="M 269.011045 307.584 
L 274.422348 307.584 
L 274.422348 292.576048 
L 269.011045 292.576048 
z
" clip-path="url(#p21bc1a5e6a)" style="fill: #0000ff; stroke: #000000; stroke-linejoin: miter"/>
   </g>
   <g id="patch_40">
    <path d="M 274.422348 307.584 
L 279.833244 307.584 
L 279.833244 292.548681 
L 274.422348 292.548681 
z
" clip-path="url(#p21bc1a5e6a)" style="fill: #0000ff; stroke: #000000; stroke-linejoin: miter"/>
   </g>
   <g id="patch_41">
    <path d="M 279.833244 307.584 
L 285.243974 307.584 
L 285.243974 290.466982 
L 279.833244 290.466982 
z
" clip-path="url(#p21bc1a5e6a)" style="fill: #0000ff; stroke: #000000; stroke-linejoin: miter"/>
   </g>
   <g id="patch_42">
    <path d="M 285.243974 307.584 
L 290.654761 307.584 
L 290.654761 288.808618 
L 285.243974 288.808618 
z
" clip-path="url(#p21bc1a5e6a)" style="fill: #0000ff; stroke: #000000; stroke-linejoin: miter"/>
   </g>
   <g id="patch_43">
    <path d="M 290.654761 307.584 
L 296.065678 307.584 
L 296.065678 288.87781 
L 290.654761 288.87781 
z
" clip-path="url(#p21bc1a5e6a)" style="fill: #0000ff; stroke: #000000; stroke-linejoin: miter"/>
   </g>
   <g id="patch_44">
    <path d="M 296.065678 307.584 
L 301.476595 307.584 
L 301.476595 290.876891 
L 296.065678 290.876891 
z
" clip-path="url(#p21bc1a5e6a)" style="fill: #0000ff; stroke: #000000; stroke-linejoin: miter"/>
   </g>
   <g id="patch_45">
    <path d="M 301.476595 307.584 
L 306.887518 307.584 
L 306.887518 294.252553 
L 301.476595 294.252553 
z
" clip-path="url(#p21bc1a5e6a)" style="fill: #0000ff; stroke: #000000; stroke-linejoin: miter"/>
   </g>
   <g id="patch_46">
    <path d="M 306.887518 307.584 
L 312.298497 307.584 
L 312.298497 298.111636 
L 306.887518 298.111636 
z
" clip-path="url(#p21bc1a5e6a)" style="fill: #0000ff; stroke: #000000; stroke-linejoin: miter"/>
   </g>
   <g id="patch_47">
    <path d="M 312.298497 307.584 
L 317.709466 307.584 
L 317.709466 301.618531 
L 312.298497 301.618531 
z
" clip-path="url(#p21bc1a5e6a)" style="fill: #0000ff; stroke: #000000; stroke-linejoin: miter"/>
   </g>
   <g id="patch_48">
    <path d="M 317.709466 307.584 
L 323.120437 307.584 
L 323.120437 304.238997 
L 317.709466 304.238997 
z
" clip-path="url(#p21bc1a5e6a)" style="fill: #0000ff; stroke: #000000; stroke-linejoin: miter"/>
   </g>
   <g id="patch_49">
    <path d="M 323.120437 307.584 
L 328.531397 307.584 
L 328.531397 305.806927 
L 323.120437 305.806927 
z
" clip-path="url(#p21bc1a5e6a)" style="fill: #0000ff; stroke: #000000; stroke-linejoin: miter"/>
   </g>
   <g id="patch_50">
    <path d="M 328.531397 307.584 
L 333.942312 307.584 
L 333.942312 306.460005 
L 328.531397 306.460005 
z
" clip-path="url(#p21bc1a5e6a)" style="fill: #0000ff; stroke: #000000; stroke-linejoin: miter"/>
   </g>
   <g id="patch_51">
    <path d="M 333.942312 307.584 
L 339.353219 307.584 
L 339.353219 306.494277 
L 333.942312 306.494277 
z
" clip-path="url(#p21bc1a5e6a)" style="fill: #0000ff; stroke: #000000; stroke-linejoin: miter"/>
   </g>
   <g id="patch_52">
    <path d="M 339.353219 307.584 
L 344.764163 307.584 
L 344.764163 306.215912 
L 339.353219 306.215912 
z
" clip-path="url(#p21bc1a5e6a)" style="fill: #0000ff; stroke: #000000; stroke-linejoin: miter"/>
   </g>
   <g id="patch_53">
    <path d="M 344.764163 307.584 
L 350.175112 307.584 
L 350.175112 305.886315 
L 344.764163 305.886315 
z
" clip-path="url(#p21bc1a5e6a)" style="fill: #0000ff; stroke: #000000; stroke-linejoin: miter"/>
   </g>
   <g id="patch_54">
    <path d="M 350.175112 307.584 
L 355.586071 307.584 
L 355.586071 305.686633 
L 350.175112 305.686633 
z
" clip-path="url(#p21bc1a5e6a)" style="fill: #0000ff; stroke: #000000; stroke-linejoin: miter"/>
   </g>
   <g id="patch_55">
    <path d="M 355.586071 307.584 
L 360.997032 307.584 
L 360.997032 305.695013 
L 355.586071 305.695013 
z
" clip-path="url(#p21bc1a5e6a)" style="fill: #0000ff; stroke: #000000; stroke-linejoin: miter"/>
   </g>
   <g id="patch_56">
    <path d="M 360.997032 307.584 
L 366.40797 307.584 
L 366.40797 305.89912 
L 360.997032 305.89912 
z
" clip-path="url(#p21bc1a5e6a)" style="fill: #0000ff; stroke: #000000; stroke-linejoin: miter"/>
   </g>
   <g id="patch_57">
    <path d="M 366.40797 307.584 
L 371.818915 307.584 
L 371.818915 306.230809 
L 366.40797 306.230809 
z
" clip-path="url(#p21bc1a5e6a)" style="fill: #0000ff; stroke: #000000; stroke-linejoin: miter"/>
   </g>
   <g id="patch_58">
    <path d="M 371.818915 307.584 
L 377.229866 307.584 
L 377.229866 306.60518 
L 371.818915 306.60518 
z
" clip-path="url(#p21bc1a5e6a)" style="fill: #0000ff; stroke: #000000; stroke-linejoin: miter"/>
   </g>
   <g id="patch_59">
    <path d="M 377.229866 307.584 
L 382.640809 307.584 
L 382.640809 306.950818 
L 377.229866 306.950818 
z
" clip-path="url(#p21bc1a5e6a)" style="fill: #0000ff; stroke: #000000; stroke-linejoin: miter"/>
   </g>
   <g id="patch_60">
    <path d="M 382.640809 307.584 
L 388.05175 307.584 
L 388.05175 307.224946 
L 382.640809 307.224946 
z
" clip-path="url(#p21bc1a5e6a)" style="fill: #0000ff; stroke: #000000; stroke-linejoin: miter"/>
   </g>
   <g id="patch_61">
    <path d="M 388.05175 307.584 
L 393.462689 307.584 
L 393.462689 307.414497 
L 388.05175 307.414497 
z
" clip-path="url(#p21bc1a5e6a)" style="fill: #0000ff; stroke: #000000; stroke-linejoin: miter"/>
   </g>
   <g id="patch_62">
    <path d="M 393.462689 307.584 
L 398.487273 307.584 
L 398.487273 307.52804 
L 393.462689 307.52804 
z
" clip-path="url(#p21bc1a5e6a)" style="fill: #0000ff; stroke: #000000; stroke-linejoin: miter"/>
   </g>
   <g id="patch_63">
    <path d="M 73.832727 307.584 
L 79.693981 307.584 
L 79.693981 307.584 
L 73.832727 307.584 
z
" clip-path="url(#p21bc1a5e6a)" style="fill: #ffa500; stroke: #000000; stroke-linejoin: miter"/>
   </g>
   <g id="patch_64">
    <path d="M 79.693981 307.584 
L 85.041845 307.584 
L 85.041845 307.584 
L 79.693981 307.584 
z
" clip-path="url(#p21bc1a5e6a)" style="fill: #ffa500; stroke: #000000; stroke-linejoin: miter"/>
   </g>
   <g id="patch_65">
    <path d="M 85.041845 307.584 
L 90.411026 307.584 
L 90.411026 307.584 
L 85.041845 307.584 
z
" clip-path="url(#p21bc1a5e6a)" style="fill: #ffa500; stroke: #000000; stroke-linejoin: miter"/>
   </g>
   <g id="patch_66">
    <path d="M 90.411026 307.584 
L 95.8368 307.584 
L 95.8368 307.584 
L 90.411026 307.584 
z
" clip-path="url(#p21bc1a5e6a)" style="fill: #ffa500; stroke: #000000; stroke-linejoin: miter"/>
   </g>
   <g id="patch_67">
    <path d="M 95.8368 307.584 
L 101.236578 307.584 
L 101.236578 307.584 
L 95.8368 307.584 
z
" clip-path="url(#p21bc1a5e6a)" style="fill: #ffa500; stroke: #000000; stroke-linejoin: miter"/>
   </g>
   <g id="patch_68">
    <path d="M 101.236578 307.584 
L 106.658627 307.584 
L 106.658627 307.584 
L 101.236578 307.584 
z
" clip-path="url(#p21bc1a5e6a)" style="fill: #ffa500; stroke: #000000; stroke-linejoin: miter"/>
   </g>
   <g id="patch_69">
    <path d="M 106.658627 307.584 
L 112.082335 307.584 
L 112.082335 307.584 
L 106.658627 307.584 
z
" clip-path="url(#p21bc1a5e6a)" style="fill: #ffa500; stroke: #000000; stroke-linejoin: miter"/>
   </g>
   <g id="patch_70">
    <path d="M 112.082335 307.584 
L 117.481802 307.584 
L 117.481802 307.584 
L 112.082335 307.584 
z
" clip-path="url(#p21bc1a5e6a)" style="fill: #ffa500; stroke: #000000; stroke-linejoin: miter"/>
   </g>
   <g id="patch_71">
    <path d="M 117.481802 307.584 
L 122.89714 307.584 
L 122.89714 307.584 
L 117.481802 307.584 
z
" clip-path="url(#p21bc1a5e6a)" style="fill: #ffa500; stroke: #000000; stroke-linejoin: miter"/>
   </g>
   <g id="patch_72">
    <path d="M 122.89714 307.584 
L 128.315091 307.584 
L 128.315091 307.584 
L 122.89714 307.584 
z
" clip-path="url(#p21bc1a5e6a)" style="fill: #ffa500; stroke: #000000; stroke-linejoin: miter"/>
   </g>
   <g id="patch_73">
    <path d="M 128.315091 307.584 
L 133.729886 307.584 
L 133.729886 307.584 
L 128.315091 307.584 
z
" clip-path="url(#p21bc1a5e6a)" style="fill: #ffa500; stroke: #000000; stroke-linejoin: miter"/>
   </g>
   <g id="patch_74">
    <path d="M 133.729886 307.584 
L 139.152 307.584 
L 139.152 307.584 
L 133.729886 307.584 
z
" clip-path="url(#p21bc1a5e6a)" style="fill: #ffa500; stroke: #000000; stroke-linejoin: miter"/>
   </g>
   <g id="patch_75">
    <path d="M 139.152 307.584 
L 144.571795 307.584 
L 144.571795 307.584 
L 139.152 307.584 
z
" clip-path="url(#p21bc1a5e6a)" style="fill: #ffa500; stroke: #000000; stroke-linejoin: miter"/>
   </g>
   <g id="patch_76">
    <path d="M 144.571795 307.584 
L 149.979957 307.584 
L 149.979957 307.584 
L 144.571795 307.584 
z
" clip-path="url(#p21bc1a5e6a)" style="fill: #ffa500; stroke: #000000; stroke-linejoin: miter"/>
   </g>
   <g id="patch_77">
    <path d="M 149.979957 307.584 
L 155.38445 307.584 
L 155.38445 306.68759 
L 149.979957 306.68759 
z
" clip-path="url(#p21bc1a5e6a)" style="fill: #ffa500; stroke: #000000; stroke-linejoin: miter"/>
   </g>
   <g id="patch_78">
    <path d="M 155.38445 307.584 
L 160.79059 307.584 
L 160.79059 307.584 
L 155.38445 307.584 
z
" clip-path="url(#p21bc1a5e6a)" style="fill: #ffa500; stroke: #000000; stroke-linejoin: miter"/>
   </g>
   <g id="patch_79">
    <path d="M 160.79059 307.584 
L 166.199572 307.584 
L 166.199572 307.584 
L 160.79059 307.584 
z
" clip-path="url(#p21bc1a5e6a)" style="fill: #ffa500; stroke: #000000; stroke-linejoin: miter"/>
   </g>
   <g id="patch_80">
    <path d="M 166.199572 307.584 
L 171.613912 307.584 
L 171.613912 307.584 
L 166.199572 307.584 
z
" clip-path="url(#p21bc1a5e6a)" style="fill: #ffa500; stroke: #000000; stroke-linejoin: miter"/>
   </g>
   <g id="patch_81">
    <path d="M 171.613912 307.584 
L 177.024685 307.584 
L 177.024685 307.584 
L 171.613912 307.584 
z
" clip-path="url(#p21bc1a5e6a)" style="fill: #ffa500; stroke: #000000; stroke-linejoin: miter"/>
   </g>
   <g id="patch_82">
    <path d="M 177.024685 307.584 
L 182.433298 307.584 
L 182.433298 307.584 
L 177.024685 307.584 
z
" clip-path="url(#p21bc1a5e6a)" style="fill: #ffa500; stroke: #000000; stroke-linejoin: miter"/>
   </g>
   <g id="patch_83">
    <path d="M 182.433298 307.584 
L 187.847221 307.584 
L 187.847221 307.584 
L 182.433298 307.584 
z
" clip-path="url(#p21bc1a5e6a)" style="fill: #ffa500; stroke: #000000; stroke-linejoin: miter"/>
   </g>
   <g id="patch_84">
    <path d="M 187.847221 307.584 
L 193.261466 307.584 
L 193.261466 307.584 
L 187.847221 307.584 
z
" clip-path="url(#p21bc1a5e6a)" style="fill: #ffa500; stroke: #000000; stroke-linejoin: miter"/>
   </g>
   <g id="patch_85">
    <path d="M 193.261466 307.584 
L 198.671638 307.584 
L 198.671638 307.584 
L 193.261466 307.584 
z
" clip-path="url(#p21bc1a5e6a)" style="fill: #ffa500; stroke: #000000; stroke-linejoin: miter"/>
   </g>
   <g id="patch_86">
    <path d="M 198.671638 307.584 
L 204.081122 307.584 
L 204.081122 307.584 
L 198.671638 307.584 
z
" clip-path="url(#p21bc1a5e6a)" style="fill: #ffa500; stroke: #000000; stroke-linejoin: miter"/>
   </g>
   <g id="patch_87">
    <path d="M 204.081122 307.584 
L 209.492476 307.584 
L 209.492476 307.584 
L 204.081122 307.584 
z
" clip-path="url(#p21bc1a5e6a)" style="fill: #ffa500; stroke: #000000; stroke-linejoin: miter"/>
   </g>
   <g id="patch_88">
    <path d="M 209.492476 307.584 
L 214.903772 307.584 
L 214.903772 307.578853 
L 209.492476 307.578853 
z
" clip-path="url(#p21bc1a5e6a)" style="fill: #ffa500; stroke: #000000; stroke-linejoin: miter"/>
   </g>
   <g id="patch_89">
    <path d="M 214.903772 307.584 
L 220.313395 307.584 
L 220.313395 307.54845 
L 214.903772 307.54845 
z
" clip-path="url(#p21bc1a5e6a)" style="fill: #ffa500; stroke: #000000; stroke-linejoin: miter"/>
   </g>
   <g id="patch_90">
    <path d="M 220.313395 307.584 
L 225.722869 307.584 
L 225.722869 307.475917 
L 220.313395 307.475917 
z
" clip-path="url(#p21bc1a5e6a)" style="fill: #ffa500; stroke: #000000; stroke-linejoin: miter"/>
   </g>
   <g id="patch_91">
    <path d="M 225.722869 307.584 
L 231.133916 307.584 
L 231.133916 307.373184 
L 225.722869 307.373184 
z
" clip-path="url(#p21bc1a5e6a)" style="fill: #ffa500; stroke: #000000; stroke-linejoin: miter"/>
   </g>
   <g id="patch_92">
    <path d="M 231.133916 307.584 
L 236.545118 307.584 
L 236.545118 306.885819 
L 231.133916 306.885819 
z
" clip-path="url(#p21bc1a5e6a)" style="fill: #ffa500; stroke: #000000; stroke-linejoin: miter"/>
   </g>
   <g id="patch_93">
    <path d="M 236.545118 307.584 
L 241.956265 307.584 
L 241.956265 307.148961 
L 236.545118 307.148961 
z
" clip-path="url(#p21bc1a5e6a)" style="fill: #ffa500; stroke: #000000; stroke-linejoin: miter"/>
   </g>
   <g id="patch_94">
    <path d="M 241.956265 307.584 
L 247.367611 307.584 
L 247.367611 307.070125 
L 241.956265 307.070125 
z
" clip-path="url(#p21bc1a5e6a)" style="fill: #ffa500; stroke: #000000; stroke-linejoin: miter"/>
   </g>
   <g id="patch_95">
    <path d="M 247.367611 307.584 
L 252.778637 307.584 
L 252.778637 307.041787 
L 247.367611 307.041787 
z
" clip-path="url(#p21bc1a5e6a)" style="fill: #ffa500; stroke: #000000; stroke-linejoin: miter"/>
   </g>
   <g id="patch_96">
    <path d="M 252.778637 307.584 
L 258.189332 307.584 
L 258.189332 307.068946 
L 252.778637 307.068946 
z
" clip-path="url(#p21bc1a5e6a)" style="fill: #ffa500; stroke: #000000; stroke-linejoin: miter"/>
   </g>
   <g id="patch_97">
    <path d="M 258.189332 307.584 
L 263.59991 307.584 
L 263.59991 307.129652 
L 258.189332 307.129652 
z
" clip-path="url(#p21bc1a5e6a)" style="fill: #ffa500; stroke: #000000; stroke-linejoin: miter"/>
   </g>
   <g id="patch_98">
    <path d="M 263.59991 307.584 
L 269.011045 307.584 
L 269.011045 307.166383 
L 263.59991 307.166383 
z
" clip-path="url(#p21bc1a5e6a)" style="fill: #ffa500; stroke: #000000; stroke-linejoin: miter"/>
   </g>
   <g id="patch_99">
    <path d="M 269.011045 307.584 
L 274.422348 307.584 
L 274.422348 307.085264 
L 269.011045 307.085264 
z
" clip-path="url(#p21bc1a5e6a)" style="fill: #ffa500; stroke: #000000; stroke-linejoin: miter"/>
   </g>
   <g id="patch_100">
    <path d="M 274.422348 307.584 
L 279.833244 307.584 
L 279.833244 306.765999 
L 274.422348 306.765999 
z
" clip-path="url(#p21bc1a5e6a)" style="fill: #ffa500; stroke: #000000; stroke-linejoin: miter"/>
   </g>
   <g id="patch_101">
    <path d="M 279.833244 307.584 
L 285.243974 307.584 
L 285.243974 306.086402 
L 279.833244 306.086402 
z
" clip-path="url(#p21bc1a5e6a)" style="fill: #ffa500; stroke: #000000; stroke-linejoin: miter"/>
   </g>
   <g id="patch_102">
    <path d="M 285.243974 307.584 
L 290.654761 307.584 
L 290.654761 304.976743 
L 285.243974 304.976743 
z
" clip-path="url(#p21bc1a5e6a)" style="fill: #ffa500; stroke: #000000; stroke-linejoin: miter"/>
   </g>
   <g id="patch_103">
    <path d="M 290.654761 307.584 
L 296.065678 307.584 
L 296.065678 303.483548 
L 290.654761 303.483548 
z
" clip-path="url(#p21bc1a5e6a)" style="fill: #ffa500; stroke: #000000; stroke-linejoin: miter"/>
   </g>
   <g id="patch_104">
    <path d="M 296.065678 307.584 
L 301.476595 307.584 
L 301.476595 301.81562 
L 296.065678 301.81562 
z
" clip-path="url(#p21bc1a5e6a)" style="fill: #ffa500; stroke: #000000; stroke-linejoin: miter"/>
   </g>
   <g id="patch_105">
    <path d="M 301.476595 307.584 
L 306.887518 307.584 
L 306.887518 300.343422 
L 301.476595 300.343422 
z
" clip-path="url(#p21bc1a5e6a)" style="fill: #ffa500; stroke: #000000; stroke-linejoin: miter"/>
   </g>
   <g id="patch_106">
    <path d="M 306.887518 307.584 
L 312.298497 307.584 
L 312.298497 299.503204 
L 306.887518 299.503204 
z
" clip-path="url(#p21bc1a5e6a)" style="fill: #ffa500; stroke: #000000; stroke-linejoin: miter"/>
   </g>
   <g id="patch_107">
    <path d="M 312.298497 307.584 
L 317.709466 307.584 
L 317.709466 299.610176 
L 312.298497 299.610176 
z
" clip-path="url(#p21bc1a5e6a)" style="fill: #ffa500; stroke: #000000; stroke-linejoin: miter"/>
   </g>
   <g id="patch_108">
    <path d="M 317.709466 307.584 
L 323.120437 307.584 
L 323.120437 300.605822 
L 317.709466 300.605822 
z
" clip-path="url(#p21bc1a5e6a)" style="fill: #ffa500; stroke: #000000; stroke-linejoin: miter"/>
   </g>
   <g id="patch_109">
    <path d="M 323.120437 307.584 
L 328.531397 307.584 
L 328.531397 301.8113 
L 323.120437 301.8113 
z
" clip-path="url(#p21bc1a5e6a)" style="fill: #ffa500; stroke: #000000; stroke-linejoin: miter"/>
   </g>
   <g id="patch_110">
    <path d="M 328.531397 307.584 
L 333.942312 307.584 
L 333.942312 301.80991 
L 328.531397 301.80991 
z
" clip-path="url(#p21bc1a5e6a)" style="fill: #ffa500; stroke: #000000; stroke-linejoin: miter"/>
   </g>
   <g id="patch_111">
    <path d="M 333.942312 307.584 
L 339.353219 307.584 
L 339.353219 298.483361 
L 333.942312 298.483361 
z
" clip-path="url(#p21bc1a5e6a)" style="fill: #ffa500; stroke: #000000; stroke-linejoin: miter"/>
   </g>
   <g id="patch_112">
    <path d="M 339.353219 307.584 
L 344.764163 307.584 
L 344.764163 288.762551 
L 339.353219 288.762551 
z
" clip-path="url(#p21bc1a5e6a)" style="fill: #ffa500; stroke: #000000; stroke-linejoin: miter"/>
   </g>
   <g id="patch_113">
    <path d="M 344.764163 307.584 
L 350.175112 307.584 
L 350.175112 267.904668 
L 344.764163 267.904668 
z
" clip-path="url(#p21bc1a5e6a)" style="fill: #ffa500; stroke: #000000; stroke-linejoin: miter"/>
   </g>
   <g id="patch_114">
    <path d="M 350.175112 307.584 
L 355.586071 307.584 
L 355.586071 231.755647 
L 350.175112 231.755647 
z
" clip-path="url(#p21bc1a5e6a)" style="fill: #ffa500; stroke: #000000; stroke-linejoin: miter"/>
   </g>
   <g id="patch_115">
    <path d="M 355.586071 307.584 
L 360.997032 307.584 
L 360.997032 181.09736 
L 355.586071 181.09736 
z
" clip-path="url(#p21bc1a5e6a)" style="fill: #ffa500; stroke: #000000; stroke-linejoin: miter"/>
   </g>
   <g id="patch_116">
    <path d="M 360.997032 307.584 
L 366.40797 307.584 
L 366.40797 124.886091 
L 360.997032 124.886091 
z
" clip-path="url(#p21bc1a5e6a)" style="fill: #ffa500; stroke: #000000; stroke-linejoin: miter"/>
   </g>
   <g id="patch_117">
    <path d="M 366.40797 307.584 
L 371.818915 307.584 
L 371.818915 78.008294 
L 366.40797 78.008294 
z
" clip-path="url(#p21bc1a5e6a)" style="fill: #ffa500; stroke: #000000; stroke-linejoin: miter"/>
   </g>
   <g id="patch_118">
    <path d="M 371.818915 307.584 
L 377.229866 307.584 
L 377.229866 54.144 
L 371.818915 54.144 
z
" clip-path="url(#p21bc1a5e6a)" style="fill: #ffa500; stroke: #000000; stroke-linejoin: miter"/>
   </g>
   <g id="patch_119">
    <path d="M 377.229866 307.584 
L 382.640809 307.584 
L 382.640809 60.040362 
L 377.229866 60.040362 
z
" clip-path="url(#p21bc1a5e6a)" style="fill: #ffa500; stroke: #000000; stroke-linejoin: miter"/>
   </g>
   <g id="patch_120">
    <path d="M 382.640809 307.584 
L 388.05175 307.584 
L 388.05175 95.229631 
L 382.640809 95.229631 
z
" clip-path="url(#p21bc1a5e6a)" style="fill: #ffa500; stroke: #000000; stroke-linejoin: miter"/>
   </g>
   <g id="patch_121">
    <path d="M 388.05175 307.584 
L 393.462689 307.584 
L 393.462689 154.541981 
L 388.05175 154.541981 
z
" clip-path="url(#p21bc1a5e6a)" style="fill: #ffa500; stroke: #000000; stroke-linejoin: miter"/>
   </g>
   <g id="patch_122">
    <path d="M 393.462689 307.584 
L 398.487273 307.584 
L 398.487273 229.57401 
L 393.462689 229.57401 
z
" clip-path="url(#p21bc1a5e6a)" style="fill: #ffa500; stroke: #000000; stroke-linejoin: miter"/>
   </g>
   <g id="matplotlib.axis_1">
    <g id="xtick_1">
     <g id="line2d_1">
      <defs>
       <path id="m64f6a6817e" d="M 0 0 
L 0 3.5 
" style="stroke: #000000; stroke-width: 0.8"/>
      </defs>
      <g>
       <use xlink:href="#m64f6a6817e" x="74.009415" y="307.584" style="stroke: #000000; stroke-width: 0.8"/>
      </g>
     </g>
     <g id="text_1">
      <!-- $\mathdefault{10^{-1}}$ -->
      <g transform="translate(57.559415 325.221812) scale(0.14 -0.14)">
       <defs>
        <path id="DejaVuSans-31" d="M 794 531 
L 1825 531 
L 1825 4091 
L 703 3866 
L 703 4441 
L 1819 4666 
L 2450 4666 
L 2450 531 
L 3481 531 
L 3481 0 
L 794 0 
L 794 531 
z
" transform="scale(0.015625)"/>
        <path id="DejaVuSans-30" d="M 2034 4250 
Q 1547 4250 1301 3770 
Q 1056 3291 1056 2328 
Q 1056 1369 1301 889 
Q 1547 409 2034 409 
Q 2525 409 2770 889 
Q 3016 1369 3016 2328 
Q 3016 3291 2770 3770 
Q 2525 4250 2034 4250 
z
M 2034 4750 
Q 2819 4750 3233 4129 
Q 3647 3509 3647 2328 
Q 3647 1150 3233 529 
Q 2819 -91 2034 -91 
Q 1250 -91 836 529 
Q 422 1150 422 2328 
Q 422 3509 836 4129 
Q 1250 4750 2034 4750 
z
" transform="scale(0.015625)"/>
        <path id="DejaVuSans-2212" d="M 678 2272 
L 4684 2272 
L 4684 1741 
L 678 1741 
L 678 2272 
z
" transform="scale(0.015625)"/>
       </defs>
       <use xlink:href="#DejaVuSans-31" transform="translate(0 0.684375)"/>
       <use xlink:href="#DejaVuSans-30" transform="translate(63.623047 0.684375)"/>
       <use xlink:href="#DejaVuSans-2212" transform="translate(128.203125 38.965625) scale(0.7)"/>
       <use xlink:href="#DejaVuSans-31" transform="translate(186.855469 38.965625) scale(0.7)"/>
      </g>
     </g>
    </g>
    <g id="xtick_2">
     <g id="line2d_2">
      <g>
       <use xlink:href="#m64f6a6817e" x="155.173587" y="307.584" style="stroke: #000000; stroke-width: 0.8"/>
      </g>
     </g>
     <g id="text_2">
      <!-- $\mathdefault{10^{0}}$ -->
      <g transform="translate(142.853587 325.221812) scale(0.14 -0.14)">
       <use xlink:href="#DejaVuSans-31" transform="translate(0 0.765625)"/>
       <use xlink:href="#DejaVuSans-30" transform="translate(63.623047 0.765625)"/>
       <use xlink:href="#DejaVuSans-30" transform="translate(128.203125 39.046875) scale(0.7)"/>
      </g>
     </g>
    </g>
    <g id="xtick_3">
     <g id="line2d_3">
      <g>
       <use xlink:href="#m64f6a6817e" x="236.33776" y="307.584" style="stroke: #000000; stroke-width: 0.8"/>
      </g>
     </g>
     <g id="text_3">
      <!-- $\mathdefault{10^{1}}$ -->
      <g transform="translate(224.01776 325.221812) scale(0.14 -0.14)">
       <use xlink:href="#DejaVuSans-31" transform="translate(0 0.684375)"/>
       <use xlink:href="#DejaVuSans-30" transform="translate(63.623047 0.684375)"/>
       <use xlink:href="#DejaVuSans-31" transform="translate(128.203125 38.965625) scale(0.7)"/>
      </g>
     </g>
    </g>
    <g id="xtick_4">
     <g id="line2d_4">
      <g>
       <use xlink:href="#m64f6a6817e" x="317.501932" y="307.584" style="stroke: #000000; stroke-width: 0.8"/>
      </g>
     </g>
     <g id="text_4">
      <!-- $\mathdefault{10^{2}}$ -->
      <g transform="translate(305.181932 325.221812) scale(0.14 -0.14)">
       <defs>
        <path id="DejaVuSans-32" d="M 1228 531 
L 3431 531 
L 3431 0 
L 469 0 
L 469 531 
Q 828 903 1448 1529 
Q 2069 2156 2228 2338 
Q 2531 2678 2651 2914 
Q 2772 3150 2772 3378 
Q 2772 3750 2511 3984 
Q 2250 4219 1831 4219 
Q 1534 4219 1204 4116 
Q 875 4013 500 3803 
L 500 4441 
Q 881 4594 1212 4672 
Q 1544 4750 1819 4750 
Q 2544 4750 2975 4387 
Q 3406 4025 3406 3419 
Q 3406 3131 3298 2873 
Q 3191 2616 2906 2266 
Q 2828 2175 2409 1742 
Q 1991 1309 1228 531 
z
" transform="scale(0.015625)"/>
       </defs>
       <use xlink:href="#DejaVuSans-31" transform="translate(0 0.765625)"/>
       <use xlink:href="#DejaVuSans-30" transform="translate(63.623047 0.765625)"/>
       <use xlink:href="#DejaVuSans-32" transform="translate(128.203125 39.046875) scale(0.7)"/>
      </g>
     </g>
    </g>
    <g id="xtick_5">
     <g id="line2d_5">
      <g>
       <use xlink:href="#m64f6a6817e" x="398.666104" y="307.584" style="stroke: #000000; stroke-width: 0.8"/>
      </g>
     </g>
     <g id="text_5">
      <!-- $\mathdefault{10^{3}}$ -->
      <g transform="translate(386.346104 325.221812) scale(0.14 -0.14)">
       <defs>
        <path id="DejaVuSans-33" d="M 2597 2516 
Q 3050 2419 3304 2112 
Q 3559 1806 3559 1356 
Q 3559 666 3084 287 
Q 2609 -91 1734 -91 
Q 1441 -91 1130 -33 
Q 819 25 488 141 
L 488 750 
Q 750 597 1062 519 
Q 1375 441 1716 441 
Q 2309 441 2620 675 
Q 2931 909 2931 1356 
Q 2931 1769 2642 2001 
Q 2353 2234 1838 2234 
L 1294 2234 
L 1294 2753 
L 1863 2753 
Q 2328 2753 2575 2939 
Q 2822 3125 2822 3475 
Q 2822 3834 2567 4026 
Q 2313 4219 1838 4219 
Q 1578 4219 1281 4162 
Q 984 4106 628 3988 
L 628 4550 
Q 988 4650 1302 4700 
Q 1616 4750 1894 4750 
Q 2613 4750 3031 4423 
Q 3450 4097 3450 3541 
Q 3450 3153 3228 2886 
Q 3006 2619 2597 2516 
z
" transform="scale(0.015625)"/>
       </defs>
       <use xlink:href="#DejaVuSans-31" transform="translate(0 0.765625)"/>
       <use xlink:href="#DejaVuSans-30" transform="translate(63.623047 0.765625)"/>
       <use xlink:href="#DejaVuSans-33" transform="translate(128.203125 39.046875) scale(0.7)"/>
      </g>
     </g>
    </g>
    <g id="xtick_6">
     <g id="line2d_6">
      <defs>
       <path id="m5817b47aef" d="M 0 0 
L 0 2 
" style="stroke: #000000; stroke-width: 0.6"/>
      </defs>
      <g>
       <use xlink:href="#m5817b47aef" x="61.436926" y="307.584" style="stroke: #000000; stroke-width: 0.6"/>
      </g>
     </g>
    </g>
    <g id="xtick_7">
     <g id="line2d_7">
      <g>
       <use xlink:href="#m5817b47aef" x="66.143794" y="307.584" style="stroke: #000000; stroke-width: 0.6"/>
      </g>
     </g>
    </g>
    <g id="xtick_8">
     <g id="line2d_8">
      <g>
       <use xlink:href="#m5817b47aef" x="70.295546" y="307.584" style="stroke: #000000; stroke-width: 0.6"/>
      </g>
     </g>
    </g>
    <g id="xtick_9">
     <g id="line2d_9">
      <g>
       <use xlink:href="#m5817b47aef" x="98.442266" y="307.584" style="stroke: #000000; stroke-width: 0.6"/>
      </g>
     </g>
    </g>
    <g id="xtick_10">
     <g id="line2d_10">
      <g>
       <use xlink:href="#m5817b47aef" x="112.734567" y="307.584" style="stroke: #000000; stroke-width: 0.6"/>
      </g>
     </g>
    </g>
    <g id="xtick_11">
     <g id="line2d_11">
      <g>
       <use xlink:href="#m5817b47aef" x="122.875116" y="307.584" style="stroke: #000000; stroke-width: 0.6"/>
      </g>
     </g>
    </g>
    <g id="xtick_12">
     <g id="line2d_12">
      <g>
       <use xlink:href="#m5817b47aef" x="130.740737" y="307.584" style="stroke: #000000; stroke-width: 0.6"/>
      </g>
     </g>
    </g>
    <g id="xtick_13">
     <g id="line2d_13">
      <g>
       <use xlink:href="#m5817b47aef" x="137.167417" y="307.584" style="stroke: #000000; stroke-width: 0.6"/>
      </g>
     </g>
    </g>
    <g id="xtick_14">
     <g id="line2d_14">
      <g>
       <use xlink:href="#m5817b47aef" x="142.601098" y="307.584" style="stroke: #000000; stroke-width: 0.6"/>
      </g>
     </g>
    </g>
    <g id="xtick_15">
     <g id="line2d_15">
      <g>
       <use xlink:href="#m5817b47aef" x="147.307966" y="307.584" style="stroke: #000000; stroke-width: 0.6"/>
      </g>
     </g>
    </g>
    <g id="xtick_16">
     <g id="line2d_16">
      <g>
       <use xlink:href="#m5817b47aef" x="151.459718" y="307.584" style="stroke: #000000; stroke-width: 0.6"/>
      </g>
     </g>
    </g>
    <g id="xtick_17">
     <g id="line2d_17">
      <g>
       <use xlink:href="#m5817b47aef" x="179.606438" y="307.584" style="stroke: #000000; stroke-width: 0.6"/>
      </g>
     </g>
    </g>
    <g id="xtick_18">
     <g id="line2d_18">
      <g>
       <use xlink:href="#m5817b47aef" x="193.898739" y="307.584" style="stroke: #000000; stroke-width: 0.6"/>
      </g>
     </g>
    </g>
    <g id="xtick_19">
     <g id="line2d_19">
      <g>
       <use xlink:href="#m5817b47aef" x="204.039288" y="307.584" style="stroke: #000000; stroke-width: 0.6"/>
      </g>
     </g>
    </g>
    <g id="xtick_20">
     <g id="line2d_20">
      <g>
       <use xlink:href="#m5817b47aef" x="211.904909" y="307.584" style="stroke: #000000; stroke-width: 0.6"/>
      </g>
     </g>
    </g>
    <g id="xtick_21">
     <g id="line2d_21">
      <g>
       <use xlink:href="#m5817b47aef" x="218.331589" y="307.584" style="stroke: #000000; stroke-width: 0.6"/>
      </g>
     </g>
    </g>
    <g id="xtick_22">
     <g id="line2d_22">
      <g>
       <use xlink:href="#m5817b47aef" x="223.76527" y="307.584" style="stroke: #000000; stroke-width: 0.6"/>
      </g>
     </g>
    </g>
    <g id="xtick_23">
     <g id="line2d_23">
      <g>
       <use xlink:href="#m5817b47aef" x="228.472139" y="307.584" style="stroke: #000000; stroke-width: 0.6"/>
      </g>
     </g>
    </g>
    <g id="xtick_24">
     <g id="line2d_24">
      <g>
       <use xlink:href="#m5817b47aef" x="232.623891" y="307.584" style="stroke: #000000; stroke-width: 0.6"/>
      </g>
     </g>
    </g>
    <g id="xtick_25">
     <g id="line2d_25">
      <g>
       <use xlink:href="#m5817b47aef" x="260.77061" y="307.584" style="stroke: #000000; stroke-width: 0.6"/>
      </g>
     </g>
    </g>
    <g id="xtick_26">
     <g id="line2d_26">
      <g>
       <use xlink:href="#m5817b47aef" x="275.062911" y="307.584" style="stroke: #000000; stroke-width: 0.6"/>
      </g>
     </g>
    </g>
    <g id="xtick_27">
     <g id="line2d_27">
      <g>
       <use xlink:href="#m5817b47aef" x="285.20346" y="307.584" style="stroke: #000000; stroke-width: 0.6"/>
      </g>
     </g>
    </g>
    <g id="xtick_28">
     <g id="line2d_28">
      <g>
       <use xlink:href="#m5817b47aef" x="293.069081" y="307.584" style="stroke: #000000; stroke-width: 0.6"/>
      </g>
     </g>
    </g>
    <g id="xtick_29">
     <g id="line2d_29">
      <g>
       <use xlink:href="#m5817b47aef" x="299.495762" y="307.584" style="stroke: #000000; stroke-width: 0.6"/>
      </g>
     </g>
    </g>
    <g id="xtick_30">
     <g id="line2d_30">
      <g>
       <use xlink:href="#m5817b47aef" x="304.929442" y="307.584" style="stroke: #000000; stroke-width: 0.6"/>
      </g>
     </g>
    </g>
    <g id="xtick_31">
     <g id="line2d_31">
      <g>
       <use xlink:href="#m5817b47aef" x="309.636311" y="307.584" style="stroke: #000000; stroke-width: 0.6"/>
      </g>
     </g>
    </g>
    <g id="xtick_32">
     <g id="line2d_32">
      <g>
       <use xlink:href="#m5817b47aef" x="313.788063" y="307.584" style="stroke: #000000; stroke-width: 0.6"/>
      </g>
     </g>
    </g>
    <g id="xtick_33">
     <g id="line2d_33">
      <g>
       <use xlink:href="#m5817b47aef" x="341.934782" y="307.584" style="stroke: #000000; stroke-width: 0.6"/>
      </g>
     </g>
    </g>
    <g id="xtick_34">
     <g id="line2d_34">
      <g>
       <use xlink:href="#m5817b47aef" x="356.227083" y="307.584" style="stroke: #000000; stroke-width: 0.6"/>
      </g>
     </g>
    </g>
    <g id="xtick_35">
     <g id="line2d_35">
      <g>
       <use xlink:href="#m5817b47aef" x="366.367633" y="307.584" style="stroke: #000000; stroke-width: 0.6"/>
      </g>
     </g>
    </g>
    <g id="xtick_36">
     <g id="line2d_36">
      <g>
       <use xlink:href="#m5817b47aef" x="374.233254" y="307.584" style="stroke: #000000; stroke-width: 0.6"/>
      </g>
     </g>
    </g>
    <g id="xtick_37">
     <g id="line2d_37">
      <g>
       <use xlink:href="#m5817b47aef" x="380.659934" y="307.584" style="stroke: #000000; stroke-width: 0.6"/>
      </g>
     </g>
    </g>
    <g id="xtick_38">
     <g id="line2d_38">
      <g>
       <use xlink:href="#m5817b47aef" x="386.093615" y="307.584" style="stroke: #000000; stroke-width: 0.6"/>
      </g>
     </g>
    </g>
    <g id="xtick_39">
     <g id="line2d_39">
      <g>
       <use xlink:href="#m5817b47aef" x="390.800483" y="307.584" style="stroke: #000000; stroke-width: 0.6"/>
      </g>
     </g>
    </g>
    <g id="xtick_40">
     <g id="line2d_40">
      <g>
       <use xlink:href="#m5817b47aef" x="394.952235" y="307.584" style="stroke: #000000; stroke-width: 0.6"/>
      </g>
     </g>
    </g>
   </g>
   <g id="matplotlib.axis_2">
    <g id="ytick_1">
     <g id="line2d_41">
      <defs>
       <path id="m6b2e7ce3fa" d="M 0 0 
L -3.5 0 
" style="stroke: #000000; stroke-width: 0.8"/>
      </defs>
      <g>
       <use xlink:href="#m6b2e7ce3fa" x="57.6" y="307.584" style="stroke: #000000; stroke-width: 0.8"/>
      </g>
     </g>
     <g id="text_6">
      <!-- 0 -->
      <g transform="translate(41.6925 312.902906) scale(0.14 -0.14)">
       <use xlink:href="#DejaVuSans-30"/>
      </g>
     </g>
    </g>
    <g id="ytick_2">
     <g id="line2d_42">
      <g>
       <use xlink:href="#m6b2e7ce3fa" x="57.6" y="273.813541" style="stroke: #000000; stroke-width: 0.8"/>
      </g>
     </g>
     <g id="text_7">
      <!-- 2 -->
      <g transform="translate(41.6925 279.132447) scale(0.14 -0.14)">
       <use xlink:href="#DejaVuSans-32"/>
      </g>
     </g>
    </g>
    <g id="ytick_3">
     <g id="line2d_43">
      <g>
       <use xlink:href="#m6b2e7ce3fa" x="57.6" y="240.043081" style="stroke: #000000; stroke-width: 0.8"/>
      </g>
     </g>
     <g id="text_8">
      <!-- 4 -->
      <g transform="translate(41.6925 245.361988) scale(0.14 -0.14)">
       <defs>
        <path id="DejaVuSans-34" d="M 2419 4116 
L 825 1625 
L 2419 1625 
L 2419 4116 
z
M 2253 4666 
L 3047 4666 
L 3047 1625 
L 3713 1625 
L 3713 1100 
L 3047 1100 
L 3047 0 
L 2419 0 
L 2419 1100 
L 313 1100 
L 313 1709 
L 2253 4666 
z
" transform="scale(0.015625)"/>
       </defs>
       <use xlink:href="#DejaVuSans-34"/>
      </g>
     </g>
    </g>
    <g id="ytick_4">
     <g id="line2d_44">
      <g>
       <use xlink:href="#m6b2e7ce3fa" x="57.6" y="206.272622" style="stroke: #000000; stroke-width: 0.8"/>
      </g>
     </g>
     <g id="text_9">
      <!-- 6 -->
      <g transform="translate(41.6925 211.591528) scale(0.14 -0.14)">
       <defs>
        <path id="DejaVuSans-36" d="M 2113 2584 
Q 1688 2584 1439 2293 
Q 1191 2003 1191 1497 
Q 1191 994 1439 701 
Q 1688 409 2113 409 
Q 2538 409 2786 701 
Q 3034 994 3034 1497 
Q 3034 2003 2786 2293 
Q 2538 2584 2113 2584 
z
M 3366 4563 
L 3366 3988 
Q 3128 4100 2886 4159 
Q 2644 4219 2406 4219 
Q 1781 4219 1451 3797 
Q 1122 3375 1075 2522 
Q 1259 2794 1537 2939 
Q 1816 3084 2150 3084 
Q 2853 3084 3261 2657 
Q 3669 2231 3669 1497 
Q 3669 778 3244 343 
Q 2819 -91 2113 -91 
Q 1303 -91 875 529 
Q 447 1150 447 2328 
Q 447 3434 972 4092 
Q 1497 4750 2381 4750 
Q 2619 4750 2861 4703 
Q 3103 4656 3366 4563 
z
" transform="scale(0.015625)"/>
       </defs>
       <use xlink:href="#DejaVuSans-36"/>
      </g>
     </g>
    </g>
    <g id="ytick_5">
     <g id="line2d_45">
      <g>
       <use xlink:href="#m6b2e7ce3fa" x="57.6" y="172.502163" style="stroke: #000000; stroke-width: 0.8"/>
      </g>
     </g>
     <g id="text_10">
      <!-- 8 -->
      <g transform="translate(41.6925 177.821069) scale(0.14 -0.14)">
       <defs>
        <path id="DejaVuSans-38" d="M 2034 2216 
Q 1584 2216 1326 1975 
Q 1069 1734 1069 1313 
Q 1069 891 1326 650 
Q 1584 409 2034 409 
Q 2484 409 2743 651 
Q 3003 894 3003 1313 
Q 3003 1734 2745 1975 
Q 2488 2216 2034 2216 
z
M 1403 2484 
Q 997 2584 770 2862 
Q 544 3141 544 3541 
Q 544 4100 942 4425 
Q 1341 4750 2034 4750 
Q 2731 4750 3128 4425 
Q 3525 4100 3525 3541 
Q 3525 3141 3298 2862 
Q 3072 2584 2669 2484 
Q 3125 2378 3379 2068 
Q 3634 1759 3634 1313 
Q 3634 634 3220 271 
Q 2806 -91 2034 -91 
Q 1263 -91 848 271 
Q 434 634 434 1313 
Q 434 1759 690 2068 
Q 947 2378 1403 2484 
z
M 1172 3481 
Q 1172 3119 1398 2916 
Q 1625 2713 2034 2713 
Q 2441 2713 2670 2916 
Q 2900 3119 2900 3481 
Q 2900 3844 2670 4047 
Q 2441 4250 2034 4250 
Q 1625 4250 1398 4047 
Q 1172 3844 1172 3481 
z
" transform="scale(0.015625)"/>
       </defs>
       <use xlink:href="#DejaVuSans-38"/>
      </g>
     </g>
    </g>
    <g id="ytick_6">
     <g id="line2d_46">
      <g>
       <use xlink:href="#m6b2e7ce3fa" x="57.6" y="138.731703" style="stroke: #000000; stroke-width: 0.8"/>
      </g>
     </g>
     <g id="text_11">
      <!-- 10 -->
      <g transform="translate(32.785 144.050609) scale(0.14 -0.14)">
       <use xlink:href="#DejaVuSans-31"/>
       <use xlink:href="#DejaVuSans-30" transform="translate(63.623047 0)"/>
      </g>
     </g>
    </g>
    <g id="ytick_7">
     <g id="line2d_47">
      <g>
       <use xlink:href="#m6b2e7ce3fa" x="57.6" y="104.961244" style="stroke: #000000; stroke-width: 0.8"/>
      </g>
     </g>
     <g id="text_12">
      <!-- 12 -->
      <g transform="translate(32.785 110.28015) scale(0.14 -0.14)">
       <use xlink:href="#DejaVuSans-31"/>
       <use xlink:href="#DejaVuSans-32" transform="translate(63.623047 0)"/>
      </g>
     </g>
    </g>
    <g id="ytick_8">
     <g id="line2d_48">
      <g>
       <use xlink:href="#m6b2e7ce3fa" x="57.6" y="71.190784" style="stroke: #000000; stroke-width: 0.8"/>
      </g>
     </g>
     <g id="text_13">
      <!-- 14 -->
      <g transform="translate(32.785 76.509691) scale(0.14 -0.14)">
       <use xlink:href="#DejaVuSans-31"/>
       <use xlink:href="#DejaVuSans-34" transform="translate(63.623047 0)"/>
      </g>
     </g>
    </g>
   </g>
   <g id="patch_123">
    <path d="M 57.6 307.584 
L 57.6 41.472 
" style="fill: none; stroke: #000000; stroke-width: 0.8; stroke-linejoin: miter; stroke-linecap: square"/>
   </g>
   <g id="patch_124">
    <path d="M 414.72 307.584 
L 414.72 41.472 
" style="fill: none; stroke: #000000; stroke-width: 0.8; stroke-linejoin: miter; stroke-linecap: square"/>
   </g>
   <g id="patch_125">
    <path d="M 57.6 307.584 
L 414.72 307.584 
" style="fill: none; stroke: #000000; stroke-width: 0.8; stroke-linejoin: miter; stroke-linecap: square"/>
   </g>
   <g id="patch_126">
    <path d="M 57.6 41.472 
L 414.72 41.472 
" style="fill: none; stroke: #000000; stroke-width: 0.8; stroke-linejoin: miter; stroke-linecap: square"/>
   </g>
  </g>
 </g>
 <defs>
  <clipPath id="p21bc1a5e6a">
   <rect x="57.6" y="41.472" width="357.12" height="266.112"/>
  </clipPath>
 </defs>
</svg>
