<?xml version="1.0" encoding="utf-8" standalone="no"?>
<!DOCTYPE svg PUBLIC "-//W3C//DTD SVG 1.1//EN"
  "http://www.w3.org/Graphics/SVG/1.1/DTD/svg11.dtd">
<svg xmlns:xlink="http://www.w3.org/1999/xlink" width="432pt" height="288pt" viewBox="0 0 432 288" xmlns="http://www.w3.org/2000/svg" version="1.1">
 <metadata>
  <rdf:RDF xmlns:dc="http://purl.org/dc/elements/1.1/" xmlns:cc="http://creativecommons.org/ns#" xmlns:rdf="http://www.w3.org/1999/02/22-rdf-syntax-ns#">
   <cc:Work>
    <dc:type rdf:resource="http://purl.org/dc/dcmitype/StillImage"/>
    <dc:date>2025-09-22T13:10:16.976507</dc:date>
    <dc:format>image/svg+xml</dc:format>
    <dc:creator>
     <cc:Agent>
      <dc:title>Matplotlib v3.10.0, https://matplotlib.org/</dc:title>
     </cc:Agent>
    </dc:creator>
   </cc:Work>
  </rdf:RDF>
 </metadata>
 <defs>
  <style type="text/css">*{stroke-linejoin: round; stroke-linecap: butt}</style>
 </defs>
 <g id="figure_1">
  <g id="patch_1">
   <path d="M 0 288 
L 432 288 
L 432 0 
L 0 0 
z
" style="fill: #ffffff"/>
  </g>
  <g id="axes_1">
   <g id="patch_2">
    <path d="M 44.57 246.04 
L 327.28 246.04 
L 327.28 10.8 
L 44.57 10.8 
z
" style="fill: #ffffff"/>
   </g>
   <g id="matplotlib.axis_1">
    <g id="xtick_1">
     <g id="line2d_1">
      <path d="M 44.57 246.04 
L 44.57 10.8 
" clip-path="url(#p2426b65e9e)" style="fill: none; stroke: #b0b0b0; stroke-width: 0.8; stroke-linecap: square"/>
     </g>
     <g id="line2d_2">
      <defs>
       <path id="mc294a49bb8" d="M 0 0 
L 0 3.5 
" style="stroke: #000000; stroke-width: 0.8"/>
      </defs>
      <g>
       <use xlink:href="#mc294a49bb8" x="44.57" y="246.04" style="stroke: #000000; stroke-width: 0.8"/>
      </g>
     </g>
     <g id="text_1">
      <!-- 0.0 -->
      <g transform="translate(36.618438 260.638438) scale(0.1 -0.1)">
       <defs>
        <path id="DejaVuSans-30" d="M 2034 4250 
Q 1547 4250 1301 3770 
Q 1056 3291 1056 2328 
Q 1056 1369 1301 889 
Q 1547 409 2034 409 
Q 2525 409 2770 889 
Q 3016 1369 3016 2328 
Q 3016 3291 2770 3770 
Q 2525 4250 2034 4250 
z
M 2034 4750 
Q 2819 4750 3233 4129 
Q 3647 3509 3647 2328 
Q 3647 1150 3233 529 
Q 2819 -91 2034 -91 
Q 1250 -91 836 529 
Q 422 1150 422 2328 
Q 422 3509 836 4129 
Q 1250 4750 2034 4750 
z
" transform="scale(0.015625)"/>
        <path id="DejaVuSans-2e" d="M 684 794 
L 1344 794 
L 1344 0 
L 684 0 
L 684 794 
z
" transform="scale(0.015625)"/>
       </defs>
       <use xlink:href="#DejaVuSans-30"/>
       <use xlink:href="#DejaVuSans-2e" transform="translate(63.623047 0)"/>
       <use xlink:href="#DejaVuSans-30" transform="translate(95.410156 0)"/>
      </g>
     </g>
    </g>
    <g id="xtick_2">
     <g id="line2d_3">
      <path d="M 101.112 246.04 
L 101.112 10.8 
" clip-path="url(#p2426b65e9e)" style="fill: none; stroke: #b0b0b0; stroke-width: 0.8; stroke-linecap: square"/>
     </g>
     <g id="line2d_4">
      <g>
       <use xlink:href="#mc294a49bb8" x="101.112" y="246.04" style="stroke: #000000; stroke-width: 0.8"/>
      </g>
     </g>
     <g id="text_2">
      <!-- 0.1 -->
      <g transform="translate(93.160438 260.638438) scale(0.1 -0.1)">
       <defs>
        <path id="DejaVuSans-31" d="M 794 531 
L 1825 531 
L 1825 4091 
L 703 3866 
L 703 4441 
L 1819 4666 
L 2450 4666 
L 2450 531 
L 3481 531 
L 3481 0 
L 794 0 
L 794 531 
z
" transform="scale(0.015625)"/>
       </defs>
       <use xlink:href="#DejaVuSans-30"/>
       <use xlink:href="#DejaVuSans-2e" transform="translate(63.623047 0)"/>
       <use xlink:href="#DejaVuSans-31" transform="translate(95.410156 0)"/>
      </g>
     </g>
    </g>
    <g id="xtick_3">
     <g id="line2d_5">
      <path d="M 157.654 246.04 
L 157.654 10.8 
" clip-path="url(#p2426b65e9e)" style="fill: none; stroke: #b0b0b0; stroke-width: 0.8; stroke-linecap: square"/>
     </g>
     <g id="line2d_6">
      <g>
       <use xlink:href="#mc294a49bb8" x="157.654" y="246.04" style="stroke: #000000; stroke-width: 0.8"/>
      </g>
     </g>
     <g id="text_3">
      <!-- 0.2 -->
      <g transform="translate(149.702438 260.638438) scale(0.1 -0.1)">
       <defs>
        <path id="DejaVuSans-32" d="M 1228 531 
L 3431 531 
L 3431 0 
L 469 0 
L 469 531 
Q 828 903 1448 1529 
Q 2069 2156 2228 2338 
Q 2531 2678 2651 2914 
Q 2772 3150 2772 3378 
Q 2772 3750 2511 3984 
Q 2250 4219 1831 4219 
Q 1534 4219 1204 4116 
Q 875 4013 500 3803 
L 500 4441 
Q 881 4594 1212 4672 
Q 1544 4750 1819 4750 
Q 2544 4750 2975 4387 
Q 3406 4025 3406 3419 
Q 3406 3131 3298 2873 
Q 3191 2616 2906 2266 
Q 2828 2175 2409 1742 
Q 1991 1309 1228 531 
z
" transform="scale(0.015625)"/>
       </defs>
       <use xlink:href="#DejaVuSans-30"/>
       <use xlink:href="#DejaVuSans-2e" transform="translate(63.623047 0)"/>
       <use xlink:href="#DejaVuSans-32" transform="translate(95.410156 0)"/>
      </g>
     </g>
    </g>
    <g id="xtick_4">
     <g id="line2d_7">
      <path d="M 214.196 246.04 
L 214.196 10.8 
" clip-path="url(#p2426b65e9e)" style="fill: none; stroke: #b0b0b0; stroke-width: 0.8; stroke-linecap: square"/>
     </g>
     <g id="line2d_8">
      <g>
       <use xlink:href="#mc294a49bb8" x="214.196" y="246.04" style="stroke: #000000; stroke-width: 0.8"/>
      </g>
     </g>
     <g id="text_4">
      <!-- 0.3 -->
      <g transform="translate(206.244438 260.638438) scale(0.1 -0.1)">
       <defs>
        <path id="DejaVuSans-33" d="M 2597 2516 
Q 3050 2419 3304 2112 
Q 3559 1806 3559 1356 
Q 3559 666 3084 287 
Q 2609 -91 1734 -91 
Q 1441 -91 1130 -33 
Q 819 25 488 141 
L 488 750 
Q 750 597 1062 519 
Q 1375 441 1716 441 
Q 2309 441 2620 675 
Q 2931 909 2931 1356 
Q 2931 1769 2642 2001 
Q 2353 2234 1838 2234 
L 1294 2234 
L 1294 2753 
L 1863 2753 
Q 2328 2753 2575 2939 
Q 2822 3125 2822 3475 
Q 2822 3834 2567 4026 
Q 2313 4219 1838 4219 
Q 1578 4219 1281 4162 
Q 984 4106 628 3988 
L 628 4550 
Q 988 4650 1302 4700 
Q 1616 4750 1894 4750 
Q 2613 4750 3031 4423 
Q 3450 4097 3450 3541 
Q 3450 3153 3228 2886 
Q 3006 2619 2597 2516 
z
" transform="scale(0.015625)"/>
       </defs>
       <use xlink:href="#DejaVuSans-30"/>
       <use xlink:href="#DejaVuSans-2e" transform="translate(63.623047 0)"/>
       <use xlink:href="#DejaVuSans-33" transform="translate(95.410156 0)"/>
      </g>
     </g>
    </g>
    <g id="xtick_5">
     <g id="line2d_9">
      <path d="M 270.738 246.04 
L 270.738 10.8 
" clip-path="url(#p2426b65e9e)" style="fill: none; stroke: #b0b0b0; stroke-width: 0.8; stroke-linecap: square"/>
     </g>
     <g id="line2d_10">
      <g>
       <use xlink:href="#mc294a49bb8" x="270.738" y="246.04" style="stroke: #000000; stroke-width: 0.8"/>
      </g>
     </g>
     <g id="text_5">
      <!-- 0.4 -->
      <g transform="translate(262.786437 260.638438) scale(0.1 -0.1)">
       <defs>
        <path id="DejaVuSans-34" d="M 2419 4116 
L 825 1625 
L 2419 1625 
L 2419 4116 
z
M 2253 4666 
L 3047 4666 
L 3047 1625 
L 3713 1625 
L 3713 1100 
L 3047 1100 
L 3047 0 
L 2419 0 
L 2419 1100 
L 313 1100 
L 313 1709 
L 2253 4666 
z
" transform="scale(0.015625)"/>
       </defs>
       <use xlink:href="#DejaVuSans-30"/>
       <use xlink:href="#DejaVuSans-2e" transform="translate(63.623047 0)"/>
       <use xlink:href="#DejaVuSans-34" transform="translate(95.410156 0)"/>
      </g>
     </g>
    </g>
    <g id="xtick_6">
     <g id="line2d_11">
      <path d="M 327.28 246.04 
L 327.28 10.8 
" clip-path="url(#p2426b65e9e)" style="fill: none; stroke: #b0b0b0; stroke-width: 0.8; stroke-linecap: square"/>
     </g>
     <g id="line2d_12">
      <g>
       <use xlink:href="#mc294a49bb8" x="327.28" y="246.04" style="stroke: #000000; stroke-width: 0.8"/>
      </g>
     </g>
     <g id="text_6">
      <!-- 0.5 -->
      <g transform="translate(319.328437 260.638438) scale(0.1 -0.1)">
       <defs>
        <path id="DejaVuSans-35" d="M 691 4666 
L 3169 4666 
L 3169 4134 
L 1269 4134 
L 1269 2991 
Q 1406 3038 1543 3061 
Q 1681 3084 1819 3084 
Q 2600 3084 3056 2656 
Q 3513 2228 3513 1497 
Q 3513 744 3044 326 
Q 2575 -91 1722 -91 
Q 1428 -91 1123 -41 
Q 819 9 494 109 
L 494 744 
Q 775 591 1075 516 
Q 1375 441 1709 441 
Q 2250 441 2565 725 
Q 2881 1009 2881 1497 
Q 2881 1984 2565 2268 
Q 2250 2553 1709 2553 
Q 1456 2553 1204 2497 
Q 953 2441 691 2322 
L 691 4666 
z
" transform="scale(0.015625)"/>
       </defs>
       <use xlink:href="#DejaVuSans-30"/>
       <use xlink:href="#DejaVuSans-2e" transform="translate(63.623047 0)"/>
       <use xlink:href="#DejaVuSans-35" transform="translate(95.410156 0)"/>
      </g>
     </g>
    </g>
    <g id="text_7">
     <!-- Time (s) -->
     <g transform="translate(165.596094 274.316562) scale(0.1 -0.1)">
      <defs>
       <path id="DejaVuSans-54" d="M -19 4666 
L 3928 4666 
L 3928 4134 
L 2272 4134 
L 2272 0 
L 1638 0 
L 1638 4134 
L -19 4134 
L -19 4666 
z
" transform="scale(0.015625)"/>
       <path id="DejaVuSans-69" d="M 603 3500 
L 1178 3500 
L 1178 0 
L 603 0 
L 603 3500 
z
M 603 4863 
L 1178 4863 
L 1178 4134 
L 603 4134 
L 603 4863 
z
" transform="scale(0.015625)"/>
       <path id="DejaVuSans-6d" d="M 3328 2828 
Q 3544 3216 3844 3400 
Q 4144 3584 4550 3584 
Q 5097 3584 5394 3201 
Q 5691 2819 5691 2113 
L 5691 0 
L 5113 0 
L 5113 2094 
Q 5113 2597 4934 2840 
Q 4756 3084 4391 3084 
Q 3944 3084 3684 2787 
Q 3425 2491 3425 1978 
L 3425 0 
L 2847 0 
L 2847 2094 
Q 2847 2600 2669 2842 
Q 2491 3084 2119 3084 
Q 1678 3084 1418 2786 
Q 1159 2488 1159 1978 
L 1159 0 
L 581 0 
L 581 3500 
L 1159 3500 
L 1159 2956 
Q 1356 3278 1631 3431 
Q 1906 3584 2284 3584 
Q 2666 3584 2933 3390 
Q 3200 3197 3328 2828 
z
" transform="scale(0.015625)"/>
       <path id="DejaVuSans-65" d="M 3597 1894 
L 3597 1613 
L 953 1613 
Q 991 1019 1311 708 
Q 1631 397 2203 397 
Q 2534 397 2845 478 
Q 3156 559 3463 722 
L 3463 178 
Q 3153 47 2828 -22 
Q 2503 -91 2169 -91 
Q 1331 -91 842 396 
Q 353 884 353 1716 
Q 353 2575 817 3079 
Q 1281 3584 2069 3584 
Q 2775 3584 3186 3129 
Q 3597 2675 3597 1894 
z
M 3022 2063 
Q 3016 2534 2758 2815 
Q 2500 3097 2075 3097 
Q 1594 3097 1305 2825 
Q 1016 2553 972 2059 
L 3022 2063 
z
" transform="scale(0.015625)"/>
       <path id="DejaVuSans-20" transform="scale(0.015625)"/>
       <path id="DejaVuSans-28" d="M 1984 4856 
Q 1566 4138 1362 3434 
Q 1159 2731 1159 2009 
Q 1159 1288 1364 580 
Q 1569 -128 1984 -844 
L 1484 -844 
Q 1016 -109 783 600 
Q 550 1309 550 2009 
Q 550 2706 781 3412 
Q 1013 4119 1484 4856 
L 1984 4856 
z
" transform="scale(0.015625)"/>
       <path id="DejaVuSans-73" d="M 2834 3397 
L 2834 2853 
Q 2591 2978 2328 3040 
Q 2066 3103 1784 3103 
Q 1356 3103 1142 2972 
Q 928 2841 928 2578 
Q 928 2378 1081 2264 
Q 1234 2150 1697 2047 
L 1894 2003 
Q 2506 1872 2764 1633 
Q 3022 1394 3022 966 
Q 3022 478 2636 193 
Q 2250 -91 1575 -91 
Q 1294 -91 989 -36 
Q 684 19 347 128 
L 347 722 
Q 666 556 975 473 
Q 1284 391 1588 391 
Q 1994 391 2212 530 
Q 2431 669 2431 922 
Q 2431 1156 2273 1281 
Q 2116 1406 1581 1522 
L 1381 1569 
Q 847 1681 609 1914 
Q 372 2147 372 2553 
Q 372 3047 722 3315 
Q 1072 3584 1716 3584 
Q 2034 3584 2315 3537 
Q 2597 3491 2834 3397 
z
" transform="scale(0.015625)"/>
       <path id="DejaVuSans-29" d="M 513 4856 
L 1013 4856 
Q 1481 4119 1714 3412 
Q 1947 2706 1947 2009 
Q 1947 1309 1714 600 
Q 1481 -109 1013 -844 
L 513 -844 
Q 928 -128 1133 580 
Q 1338 1288 1338 2009 
Q 1338 2731 1133 3434 
Q 928 4138 513 4856 
z
" transform="scale(0.015625)"/>
      </defs>
      <use xlink:href="#DejaVuSans-54"/>
      <use xlink:href="#DejaVuSans-69" transform="translate(57.958984 0)"/>
      <use xlink:href="#DejaVuSans-6d" transform="translate(85.742188 0)"/>
      <use xlink:href="#DejaVuSans-65" transform="translate(183.154297 0)"/>
      <use xlink:href="#DejaVuSans-20" transform="translate(244.677734 0)"/>
      <use xlink:href="#DejaVuSans-28" transform="translate(276.464844 0)"/>
      <use xlink:href="#DejaVuSans-73" transform="translate(315.478516 0)"/>
      <use xlink:href="#DejaVuSans-29" transform="translate(367.578125 0)"/>
     </g>
    </g>
   </g>
   <g id="matplotlib.axis_2">
    <g id="ytick_1">
     <g id="line2d_13">
      <path d="M 44.57 246.04 
L 327.28 246.04 
" clip-path="url(#p2426b65e9e)" style="fill: none; stroke: #b0b0b0; stroke-width: 0.8; stroke-linecap: square"/>
     </g>
     <g id="line2d_14">
      <defs>
       <path id="me7c63e0e25" d="M 0 0 
L -3.5 0 
" style="stroke: #000000; stroke-width: 0.8"/>
      </defs>
      <g>
       <use xlink:href="#me7c63e0e25" x="44.57" y="246.04" style="stroke: #000000; stroke-width: 0.8"/>
      </g>
     </g>
     <g id="text_8">
      <!-- 0 -->
      <g transform="translate(31.2075 249.839219) scale(0.1 -0.1)">
       <use xlink:href="#DejaVuSans-30"/>
      </g>
     </g>
    </g>
    <g id="ytick_2">
     <g id="line2d_15">
      <path d="M 44.57 205.16625 
L 327.28 205.16625 
" clip-path="url(#p2426b65e9e)" style="fill: none; stroke: #b0b0b0; stroke-width: 0.8; stroke-linecap: square"/>
     </g>
     <g id="line2d_16">
      <g>
       <use xlink:href="#me7c63e0e25" x="44.57" y="205.16625" style="stroke: #000000; stroke-width: 0.8"/>
      </g>
     </g>
     <g id="text_9">
      <!-- 2 -->
      <g transform="translate(31.2075 208.965469) scale(0.1 -0.1)">
       <use xlink:href="#DejaVuSans-32"/>
      </g>
     </g>
    </g>
    <g id="ytick_3">
     <g id="line2d_17">
      <path d="M 44.57 164.292501 
L 327.28 164.292501 
" clip-path="url(#p2426b65e9e)" style="fill: none; stroke: #b0b0b0; stroke-width: 0.8; stroke-linecap: square"/>
     </g>
     <g id="line2d_18">
      <g>
       <use xlink:href="#me7c63e0e25" x="44.57" y="164.292501" style="stroke: #000000; stroke-width: 0.8"/>
      </g>
     </g>
     <g id="text_10">
      <!-- 4 -->
      <g transform="translate(31.2075 168.09172) scale(0.1 -0.1)">
       <use xlink:href="#DejaVuSans-34"/>
      </g>
     </g>
    </g>
    <g id="ytick_4">
     <g id="line2d_19">
      <path d="M 44.57 123.418751 
L 327.28 123.418751 
" clip-path="url(#p2426b65e9e)" style="fill: none; stroke: #b0b0b0; stroke-width: 0.8; stroke-linecap: square"/>
     </g>
     <g id="line2d_20">
      <g>
       <use xlink:href="#me7c63e0e25" x="44.57" y="123.418751" style="stroke: #000000; stroke-width: 0.8"/>
      </g>
     </g>
     <g id="text_11">
      <!-- 6 -->
      <g transform="translate(31.2075 127.21797) scale(0.1 -0.1)">
       <defs>
        <path id="DejaVuSans-36" d="M 2113 2584 
Q 1688 2584 1439 2293 
Q 1191 2003 1191 1497 
Q 1191 994 1439 701 
Q 1688 409 2113 409 
Q 2538 409 2786 701 
Q 3034 994 3034 1497 
Q 3034 2003 2786 2293 
Q 2538 2584 2113 2584 
z
M 3366 4563 
L 3366 3988 
Q 3128 4100 2886 4159 
Q 2644 4219 2406 4219 
Q 1781 4219 1451 3797 
Q 1122 3375 1075 2522 
Q 1259 2794 1537 2939 
Q 1816 3084 2150 3084 
Q 2853 3084 3261 2657 
Q 3669 2231 3669 1497 
Q 3669 778 3244 343 
Q 2819 -91 2113 -91 
Q 1303 -91 875 529 
Q 447 1150 447 2328 
Q 447 3434 972 4092 
Q 1497 4750 2381 4750 
Q 2619 4750 2861 4703 
Q 3103 4656 3366 4563 
z
" transform="scale(0.015625)"/>
       </defs>
       <use xlink:href="#DejaVuSans-36"/>
      </g>
     </g>
    </g>
    <g id="ytick_5">
     <g id="line2d_21">
      <path d="M 44.57 82.545002 
L 327.28 82.545002 
" clip-path="url(#p2426b65e9e)" style="fill: none; stroke: #b0b0b0; stroke-width: 0.8; stroke-linecap: square"/>
     </g>
     <g id="line2d_22">
      <g>
       <use xlink:href="#me7c63e0e25" x="44.57" y="82.545002" style="stroke: #000000; stroke-width: 0.8"/>
      </g>
     </g>
     <g id="text_12">
      <!-- 8 -->
      <g transform="translate(31.2075 86.34422) scale(0.1 -0.1)">
       <defs>
        <path id="DejaVuSans-38" d="M 2034 2216 
Q 1584 2216 1326 1975 
Q 1069 1734 1069 1313 
Q 1069 891 1326 650 
Q 1584 409 2034 409 
Q 2484 409 2743 651 
Q 3003 894 3003 1313 
Q 3003 1734 2745 1975 
Q 2488 2216 2034 2216 
z
M 1403 2484 
Q 997 2584 770 2862 
Q 544 3141 544 3541 
Q 544 4100 942 4425 
Q 1341 4750 2034 4750 
Q 2731 4750 3128 4425 
Q 3525 4100 3525 3541 
Q 3525 3141 3298 2862 
Q 3072 2584 2669 2484 
Q 3125 2378 3379 2068 
Q 3634 1759 3634 1313 
Q 3634 634 3220 271 
Q 2806 -91 2034 -91 
Q 1263 -91 848 271 
Q 434 634 434 1313 
Q 434 1759 690 2068 
Q 947 2378 1403 2484 
z
M 1172 3481 
Q 1172 3119 1398 2916 
Q 1625 2713 2034 2713 
Q 2441 2713 2670 2916 
Q 2900 3119 2900 3481 
Q 2900 3844 2670 4047 
Q 2441 4250 2034 4250 
Q 1625 4250 1398 4047 
Q 1172 3844 1172 3481 
z
" transform="scale(0.015625)"/>
       </defs>
       <use xlink:href="#DejaVuSans-38"/>
      </g>
     </g>
    </g>
    <g id="ytick_6">
     <g id="line2d_23">
      <path d="M 44.57 41.671252 
L 327.28 41.671252 
" clip-path="url(#p2426b65e9e)" style="fill: none; stroke: #b0b0b0; stroke-width: 0.8; stroke-linecap: square"/>
     </g>
     <g id="line2d_24">
      <g>
       <use xlink:href="#me7c63e0e25" x="44.57" y="41.671252" style="stroke: #000000; stroke-width: 0.8"/>
      </g>
     </g>
     <g id="text_13">
      <!-- 10 -->
      <g transform="translate(24.845 45.470471) scale(0.1 -0.1)">
       <use xlink:href="#DejaVuSans-31"/>
       <use xlink:href="#DejaVuSans-30" transform="translate(63.623047 0)"/>
      </g>
     </g>
    </g>
    <g id="text_14">
     <!-- Flow rate (L/s) -->
     <g transform="translate(18.765313 164.144219) rotate(-90) scale(0.1 -0.1)">
      <defs>
       <path id="DejaVuSans-46" d="M 628 4666 
L 3309 4666 
L 3309 4134 
L 1259 4134 
L 1259 2759 
L 3109 2759 
L 3109 2228 
L 1259 2228 
L 1259 0 
L 628 0 
L 628 4666 
z
" transform="scale(0.015625)"/>
       <path id="DejaVuSans-6c" d="M 603 4863 
L 1178 4863 
L 1178 0 
L 603 0 
L 603 4863 
z
" transform="scale(0.015625)"/>
       <path id="DejaVuSans-6f" d="M 1959 3097 
Q 1497 3097 1228 2736 
Q 959 2375 959 1747 
Q 959 1119 1226 758 
Q 1494 397 1959 397 
Q 2419 397 2687 759 
Q 2956 1122 2956 1747 
Q 2956 2369 2687 2733 
Q 2419 3097 1959 3097 
z
M 1959 3584 
Q 2709 3584 3137 3096 
Q 3566 2609 3566 1747 
Q 3566 888 3137 398 
Q 2709 -91 1959 -91 
Q 1206 -91 779 398 
Q 353 888 353 1747 
Q 353 2609 779 3096 
Q 1206 3584 1959 3584 
z
" transform="scale(0.015625)"/>
       <path id="DejaVuSans-77" d="M 269 3500 
L 844 3500 
L 1563 769 
L 2278 3500 
L 2956 3500 
L 3675 769 
L 4391 3500 
L 4966 3500 
L 4050 0 
L 3372 0 
L 2619 2869 
L 1863 0 
L 1184 0 
L 269 3500 
z
" transform="scale(0.015625)"/>
       <path id="DejaVuSans-72" d="M 2631 2963 
Q 2534 3019 2420 3045 
Q 2306 3072 2169 3072 
Q 1681 3072 1420 2755 
Q 1159 2438 1159 1844 
L 1159 0 
L 581 0 
L 581 3500 
L 1159 3500 
L 1159 2956 
Q 1341 3275 1631 3429 
Q 1922 3584 2338 3584 
Q 2397 3584 2469 3576 
Q 2541 3569 2628 3553 
L 2631 2963 
z
" transform="scale(0.015625)"/>
       <path id="DejaVuSans-61" d="M 2194 1759 
Q 1497 1759 1228 1600 
Q 959 1441 959 1056 
Q 959 750 1161 570 
Q 1363 391 1709 391 
Q 2188 391 2477 730 
Q 2766 1069 2766 1631 
L 2766 1759 
L 2194 1759 
z
M 3341 1997 
L 3341 0 
L 2766 0 
L 2766 531 
Q 2569 213 2275 61 
Q 1981 -91 1556 -91 
Q 1019 -91 701 211 
Q 384 513 384 1019 
Q 384 1609 779 1909 
Q 1175 2209 1959 2209 
L 2766 2209 
L 2766 2266 
Q 2766 2663 2505 2880 
Q 2244 3097 1772 3097 
Q 1472 3097 1187 3025 
Q 903 2953 641 2809 
L 641 3341 
Q 956 3463 1253 3523 
Q 1550 3584 1831 3584 
Q 2591 3584 2966 3190 
Q 3341 2797 3341 1997 
z
" transform="scale(0.015625)"/>
       <path id="DejaVuSans-74" d="M 1172 4494 
L 1172 3500 
L 2356 3500 
L 2356 3053 
L 1172 3053 
L 1172 1153 
Q 1172 725 1289 603 
Q 1406 481 1766 481 
L 2356 481 
L 2356 0 
L 1766 0 
Q 1100 0 847 248 
Q 594 497 594 1153 
L 594 3053 
L 172 3053 
L 172 3500 
L 594 3500 
L 594 4494 
L 1172 4494 
z
" transform="scale(0.015625)"/>
       <path id="DejaVuSans-4c" d="M 628 4666 
L 1259 4666 
L 1259 531 
L 3531 531 
L 3531 0 
L 628 0 
L 628 4666 
z
" transform="scale(0.015625)"/>
       <path id="DejaVuSans-2f" d="M 1625 4666 
L 2156 4666 
L 531 -594 
L 0 -594 
L 1625 4666 
z
" transform="scale(0.015625)"/>
      </defs>
      <use xlink:href="#DejaVuSans-46"/>
      <use xlink:href="#DejaVuSans-6c" transform="translate(57.519531 0)"/>
      <use xlink:href="#DejaVuSans-6f" transform="translate(85.302734 0)"/>
      <use xlink:href="#DejaVuSans-77" transform="translate(146.484375 0)"/>
      <use xlink:href="#DejaVuSans-20" transform="translate(228.271484 0)"/>
      <use xlink:href="#DejaVuSans-72" transform="translate(260.058594 0)"/>
      <use xlink:href="#DejaVuSans-61" transform="translate(301.171875 0)"/>
      <use xlink:href="#DejaVuSans-74" transform="translate(362.451172 0)"/>
      <use xlink:href="#DejaVuSans-65" transform="translate(401.660156 0)"/>
      <use xlink:href="#DejaVuSans-20" transform="translate(463.183594 0)"/>
      <use xlink:href="#DejaVuSans-28" transform="translate(494.970703 0)"/>
      <use xlink:href="#DejaVuSans-4c" transform="translate(533.984375 0)"/>
      <use xlink:href="#DejaVuSans-2f" transform="translate(589.697266 0)"/>
      <use xlink:href="#DejaVuSans-73" transform="translate(623.388672 0)"/>
      <use xlink:href="#DejaVuSans-29" transform="translate(675.488281 0)"/>
     </g>
    </g>
   </g>
   <g id="line2d_25">
    <path d="M 44.57 246.04 
L 53.836743 244.370989 
L 62.347625 238.451107 
L 71.082555 214.430967 
L 80.672025 189.920342 
L 90.141113 168.98617 
L 98.863237 151.390021 
L 107.480751 141.737003 
L 116.896724 145.545074 
L 126.367834 156.615048 
L 134.946119 167.467029 
L 144.360745 178.659624 
L 152.966531 187.529227 
L 162.0649 196.044592 
L 171.070657 203.313307 
L 180.166869 208.947072 
L 188.987537 214.349219 
L 198.442065 218.947516 
L 207.607703 222.91227 
L 216.338185 225.916491 
L 226.205626 229.12508 
L 234.735381 231.291389 
L 243.258665 233.239704 
L 252.917695 235.079023 
L 261.094257 236.536853 
L 270.822038 237.899312 
L 280.031354 239.098275 
L 288.764936 239.963436 
L 298.131571 240.80816 
L 306.582464 241.496202 
L 315.97579 242.156994 
L 324.437737 242.688353 
L 334.437693 243.192462 
L 343.273729 243.553514 
L 352.305638 243.894128 
L 362.265422 244.282429 
L 370.519902 244.561733 
L 379.421318 244.779726 
L 388.808713 244.936409 
L 397.760682 245.072655 
L 406.04428 245.181651 
L 415.464837 245.29746 
L 424.732524 245.460955 
L 433 245.543285 
" clip-path="url(#p2426b65e9e)" style="fill: none; stroke: #1f77b4; stroke-width: 1.5; stroke-linecap: square"/>
    <defs>
     <path id="md2656cf4a1" d="M 0 3 
C 0.795609 3 1.55874 2.683901 2.12132 2.12132 
C 2.683901 1.55874 3 0.795609 3 0 
C 3 -0.795609 2.683901 -1.55874 2.12132 -2.12132 
C 1.55874 -2.683901 0.795609 -3 0 -3 
C -0.795609 -3 -1.55874 -2.683901 -2.12132 -2.12132 
C -2.683901 -1.55874 -3 -0.795609 -3 0 
C -3 0.795609 -2.683901 1.55874 -2.12132 2.12132 
C -1.55874 2.683901 -0.795609 3 0 3 
z
" style="stroke: #1f77b4"/>
    </defs>
    <g clip-path="url(#p2426b65e9e)">
     <use xlink:href="#md2656cf4a1" x="44.57" y="246.04" style="fill: #1f77b4; stroke: #1f77b4"/>
     <use xlink:href="#md2656cf4a1" x="53.836743" y="244.370989" style="fill: #1f77b4; stroke: #1f77b4"/>
     <use xlink:href="#md2656cf4a1" x="62.347625" y="238.451107" style="fill: #1f77b4; stroke: #1f77b4"/>
     <use xlink:href="#md2656cf4a1" x="71.082555" y="214.430967" style="fill: #1f77b4; stroke: #1f77b4"/>
     <use xlink:href="#md2656cf4a1" x="80.672025" y="189.920342" style="fill: #1f77b4; stroke: #1f77b4"/>
     <use xlink:href="#md2656cf4a1" x="90.141113" y="168.98617" style="fill: #1f77b4; stroke: #1f77b4"/>
     <use xlink:href="#md2656cf4a1" x="98.863237" y="151.390021" style="fill: #1f77b4; stroke: #1f77b4"/>
     <use xlink:href="#md2656cf4a1" x="107.480751" y="141.737003" style="fill: #1f77b4; stroke: #1f77b4"/>
     <use xlink:href="#md2656cf4a1" x="116.896724" y="145.545074" style="fill: #1f77b4; stroke: #1f77b4"/>
     <use xlink:href="#md2656cf4a1" x="126.367834" y="156.615048" style="fill: #1f77b4; stroke: #1f77b4"/>
     <use xlink:href="#md2656cf4a1" x="134.946119" y="167.467029" style="fill: #1f77b4; stroke: #1f77b4"/>
     <use xlink:href="#md2656cf4a1" x="144.360745" y="178.659624" style="fill: #1f77b4; stroke: #1f77b4"/>
     <use xlink:href="#md2656cf4a1" x="152.966531" y="187.529227" style="fill: #1f77b4; stroke: #1f77b4"/>
     <use xlink:href="#md2656cf4a1" x="162.0649" y="196.044592" style="fill: #1f77b4; stroke: #1f77b4"/>
     <use xlink:href="#md2656cf4a1" x="171.070657" y="203.313307" style="fill: #1f77b4; stroke: #1f77b4"/>
     <use xlink:href="#md2656cf4a1" x="180.166869" y="208.947072" style="fill: #1f77b4; stroke: #1f77b4"/>
     <use xlink:href="#md2656cf4a1" x="188.987537" y="214.349219" style="fill: #1f77b4; stroke: #1f77b4"/>
     <use xlink:href="#md2656cf4a1" x="198.442065" y="218.947516" style="fill: #1f77b4; stroke: #1f77b4"/>
     <use xlink:href="#md2656cf4a1" x="207.607703" y="222.91227" style="fill: #1f77b4; stroke: #1f77b4"/>
     <use xlink:href="#md2656cf4a1" x="216.338185" y="225.916491" style="fill: #1f77b4; stroke: #1f77b4"/>
     <use xlink:href="#md2656cf4a1" x="226.205626" y="229.12508" style="fill: #1f77b4; stroke: #1f77b4"/>
     <use xlink:href="#md2656cf4a1" x="234.735381" y="231.291389" style="fill: #1f77b4; stroke: #1f77b4"/>
     <use xlink:href="#md2656cf4a1" x="243.258665" y="233.239704" style="fill: #1f77b4; stroke: #1f77b4"/>
     <use xlink:href="#md2656cf4a1" x="252.917695" y="235.079023" style="fill: #1f77b4; stroke: #1f77b4"/>
     <use xlink:href="#md2656cf4a1" x="261.094257" y="236.536853" style="fill: #1f77b4; stroke: #1f77b4"/>
     <use xlink:href="#md2656cf4a1" x="270.822038" y="237.899312" style="fill: #1f77b4; stroke: #1f77b4"/>
     <use xlink:href="#md2656cf4a1" x="280.031354" y="239.098275" style="fill: #1f77b4; stroke: #1f77b4"/>
     <use xlink:href="#md2656cf4a1" x="288.764936" y="239.963436" style="fill: #1f77b4; stroke: #1f77b4"/>
     <use xlink:href="#md2656cf4a1" x="298.131571" y="240.80816" style="fill: #1f77b4; stroke: #1f77b4"/>
     <use xlink:href="#md2656cf4a1" x="306.582464" y="241.496202" style="fill: #1f77b4; stroke: #1f77b4"/>
     <use xlink:href="#md2656cf4a1" x="315.97579" y="242.156994" style="fill: #1f77b4; stroke: #1f77b4"/>
     <use xlink:href="#md2656cf4a1" x="324.437737" y="242.688353" style="fill: #1f77b4; stroke: #1f77b4"/>
     <use xlink:href="#md2656cf4a1" x="334.437693" y="243.192462" style="fill: #1f77b4; stroke: #1f77b4"/>
     <use xlink:href="#md2656cf4a1" x="343.273729" y="243.553514" style="fill: #1f77b4; stroke: #1f77b4"/>
     <use xlink:href="#md2656cf4a1" x="352.305638" y="243.894128" style="fill: #1f77b4; stroke: #1f77b4"/>
     <use xlink:href="#md2656cf4a1" x="362.265422" y="244.282429" style="fill: #1f77b4; stroke: #1f77b4"/>
     <use xlink:href="#md2656cf4a1" x="370.519902" y="244.561733" style="fill: #1f77b4; stroke: #1f77b4"/>
     <use xlink:href="#md2656cf4a1" x="379.421318" y="244.779726" style="fill: #1f77b4; stroke: #1f77b4"/>
     <use xlink:href="#md2656cf4a1" x="388.808713" y="244.936409" style="fill: #1f77b4; stroke: #1f77b4"/>
     <use xlink:href="#md2656cf4a1" x="397.760682" y="245.072655" style="fill: #1f77b4; stroke: #1f77b4"/>
     <use xlink:href="#md2656cf4a1" x="406.04428" y="245.181651" style="fill: #1f77b4; stroke: #1f77b4"/>
     <use xlink:href="#md2656cf4a1" x="415.464837" y="245.29746" style="fill: #1f77b4; stroke: #1f77b4"/>
     <use xlink:href="#md2656cf4a1" x="424.732524" y="245.460955" style="fill: #1f77b4; stroke: #1f77b4"/>
     <use xlink:href="#md2656cf4a1" x="434.309726" y="245.556327" style="fill: #1f77b4; stroke: #1f77b4"/>
     <use xlink:href="#md2656cf4a1" x="443.514054" y="245.631263" style="fill: #1f77b4; stroke: #1f77b4"/>
     <use xlink:href="#md2656cf4a1" x="451.166891" y="245.699385" style="fill: #1f77b4; stroke: #1f77b4"/>
     <use xlink:href="#md2656cf4a1" x="460.769303" y="245.794758" style="fill: #1f77b4; stroke: #1f77b4"/>
     <use xlink:href="#md2656cf4a1" x="469.418766" y="245.835631" style="fill: #1f77b4; stroke: #1f77b4"/>
     <use xlink:href="#md2656cf4a1" x="478.182141" y="245.89013" style="fill: #1f77b4; stroke: #1f77b4"/>
     <use xlink:href="#md2656cf4a1" x="487.981504" y="245.931003" style="fill: #1f77b4; stroke: #1f77b4"/>
     <use xlink:href="#md2656cf4a1" x="496.63245" y="245.958253" style="fill: #1f77b4; stroke: #1f77b4"/>
     <use xlink:href="#md2656cf4a1" x="506.819248" y="245.985502" style="fill: #1f77b4; stroke: #1f77b4"/>
     <use xlink:href="#md2656cf4a1" x="515.480035" y="246.005939" style="fill: #1f77b4; stroke: #1f77b4"/>
     <use xlink:href="#md2656cf4a1" x="524.311218" y="246.067249" style="fill: #1f77b4; stroke: #1f77b4"/>
     <use xlink:href="#md2656cf4a1" x="533.626626" y="246.087686" style="fill: #1f77b4; stroke: #1f77b4"/>
    </g>
   </g>
   <g id="line2d_26">
    <path d="M 45.283843 221.013193 
L 46.697393 207.125573 
L 48.110943 219.419129 
L 49.524493 227.580939 
L 50.938043 229.851035 
L 52.351593 149.576033 
L 53.765143 65.17676 
L 55.178693 22.004176 
L 56.592243 46.125805 
L 58.005793 68.222168 
L 59.419343 66.422967 
L 60.832893 47.427236 
L 62.246443 35.889135 
L 63.659993 30.669807 
L 65.073543 29.575651 
L 66.487093 34.602685 
L 67.900643 38.390817 
L 69.314193 38.435881 
L 70.727743 33.68445 
L 72.141293 54.395793 
L 73.554843 37.892061 
L 74.968393 34.547428 
L 76.381943 35.980684 
L 77.795493 37.592894 
L 79.209043 30.35335 
L 80.622593 39.81837 
L 82.036143 52.623468 
L 83.449693 34.441456 
L 84.863243 35.817016 
L 86.276793 45.927349 
L 87.690343 55.432587 
L 89.103893 45.915524 
L 90.517443 46.5995 
L 91.930993 38.42966 
L 93.344543 38.906578 
L 94.758093 31.36352 
L 96.171643 36.277402 
L 97.585193 39.25829 
L 98.998743 39.330276 
L 100.412293 42.775348 
L 101.825843 45.732792 
L 103.239393 45.028648 
L 104.652943 45.949286 
L 106.066493 39.26003 
L 107.480043 49.525592 
L 108.893593 44.511223 
L 110.307143 40.998609 
L 111.720693 55.51304 
L 113.134243 66.289375 
L 114.547793 111.880104 
L 115.961343 178.359731 
L 117.374893 205.595277 
L 118.788443 212.782337 
L 120.201993 236.914799 
L 121.615543 241.632826 
L 123.029093 225.969457 
L 124.442643 230.591753 
L 125.856193 230.918924 
L 127.269743 212.768444 
" clip-path="url(#p2426b65e9e)" style="fill: none; stroke-dasharray: 5.55,2.4; stroke-dashoffset: 0; stroke: #ff7f0e; stroke-width: 1.5"/>
    <defs>
     <path id="m20d4e497f0" d="M 0 3 
C 0.795609 3 1.55874 2.683901 2.12132 2.12132 
C 2.683901 1.55874 3 0.795609 3 0 
C 3 -0.795609 2.683901 -1.55874 2.12132 -2.12132 
C 1.55874 -2.683901 0.795609 -3 0 -3 
C -0.795609 -3 -1.55874 -2.683901 -2.12132 -2.12132 
C -2.683901 -1.55874 -3 -0.795609 -3 0 
C -3 0.795609 -2.683901 1.55874 -2.12132 2.12132 
C -1.55874 2.683901 -0.795609 3 0 3 
z
" style="stroke: #ff7f0e"/>
    </defs>
    <g clip-path="url(#p2426b65e9e)">
     <use xlink:href="#m20d4e497f0" x="45.283843" y="221.013193" style="fill: #ff7f0e; stroke: #ff7f0e"/>
     <use xlink:href="#m20d4e497f0" x="46.697393" y="207.125573" style="fill: #ff7f0e; stroke: #ff7f0e"/>
     <use xlink:href="#m20d4e497f0" x="48.110943" y="219.419129" style="fill: #ff7f0e; stroke: #ff7f0e"/>
     <use xlink:href="#m20d4e497f0" x="49.524493" y="227.580939" style="fill: #ff7f0e; stroke: #ff7f0e"/>
     <use xlink:href="#m20d4e497f0" x="50.938043" y="229.851035" style="fill: #ff7f0e; stroke: #ff7f0e"/>
     <use xlink:href="#m20d4e497f0" x="52.351593" y="149.576033" style="fill: #ff7f0e; stroke: #ff7f0e"/>
     <use xlink:href="#m20d4e497f0" x="53.765143" y="65.17676" style="fill: #ff7f0e; stroke: #ff7f0e"/>
     <use xlink:href="#m20d4e497f0" x="55.178693" y="22.004176" style="fill: #ff7f0e; stroke: #ff7f0e"/>
     <use xlink:href="#m20d4e497f0" x="56.592243" y="46.125805" style="fill: #ff7f0e; stroke: #ff7f0e"/>
     <use xlink:href="#m20d4e497f0" x="58.005793" y="68.222168" style="fill: #ff7f0e; stroke: #ff7f0e"/>
     <use xlink:href="#m20d4e497f0" x="59.419343" y="66.422967" style="fill: #ff7f0e; stroke: #ff7f0e"/>
     <use xlink:href="#m20d4e497f0" x="60.832893" y="47.427236" style="fill: #ff7f0e; stroke: #ff7f0e"/>
     <use xlink:href="#m20d4e497f0" x="62.246443" y="35.889135" style="fill: #ff7f0e; stroke: #ff7f0e"/>
     <use xlink:href="#m20d4e497f0" x="63.659993" y="30.669807" style="fill: #ff7f0e; stroke: #ff7f0e"/>
     <use xlink:href="#m20d4e497f0" x="65.073543" y="29.575651" style="fill: #ff7f0e; stroke: #ff7f0e"/>
     <use xlink:href="#m20d4e497f0" x="66.487093" y="34.602685" style="fill: #ff7f0e; stroke: #ff7f0e"/>
     <use xlink:href="#m20d4e497f0" x="67.900643" y="38.390817" style="fill: #ff7f0e; stroke: #ff7f0e"/>
     <use xlink:href="#m20d4e497f0" x="69.314193" y="38.435881" style="fill: #ff7f0e; stroke: #ff7f0e"/>
     <use xlink:href="#m20d4e497f0" x="70.727743" y="33.68445" style="fill: #ff7f0e; stroke: #ff7f0e"/>
     <use xlink:href="#m20d4e497f0" x="72.141293" y="54.395793" style="fill: #ff7f0e; stroke: #ff7f0e"/>
     <use xlink:href="#m20d4e497f0" x="73.554843" y="37.892061" style="fill: #ff7f0e; stroke: #ff7f0e"/>
     <use xlink:href="#m20d4e497f0" x="74.968393" y="34.547428" style="fill: #ff7f0e; stroke: #ff7f0e"/>
     <use xlink:href="#m20d4e497f0" x="76.381943" y="35.980684" style="fill: #ff7f0e; stroke: #ff7f0e"/>
     <use xlink:href="#m20d4e497f0" x="77.795493" y="37.592894" style="fill: #ff7f0e; stroke: #ff7f0e"/>
     <use xlink:href="#m20d4e497f0" x="79.209043" y="30.35335" style="fill: #ff7f0e; stroke: #ff7f0e"/>
     <use xlink:href="#m20d4e497f0" x="80.622593" y="39.81837" style="fill: #ff7f0e; stroke: #ff7f0e"/>
     <use xlink:href="#m20d4e497f0" x="82.036143" y="52.623468" style="fill: #ff7f0e; stroke: #ff7f0e"/>
     <use xlink:href="#m20d4e497f0" x="83.449693" y="34.441456" style="fill: #ff7f0e; stroke: #ff7f0e"/>
     <use xlink:href="#m20d4e497f0" x="84.863243" y="35.817016" style="fill: #ff7f0e; stroke: #ff7f0e"/>
     <use xlink:href="#m20d4e497f0" x="86.276793" y="45.927349" style="fill: #ff7f0e; stroke: #ff7f0e"/>
     <use xlink:href="#m20d4e497f0" x="87.690343" y="55.432587" style="fill: #ff7f0e; stroke: #ff7f0e"/>
     <use xlink:href="#m20d4e497f0" x="89.103893" y="45.915524" style="fill: #ff7f0e; stroke: #ff7f0e"/>
     <use xlink:href="#m20d4e497f0" x="90.517443" y="46.5995" style="fill: #ff7f0e; stroke: #ff7f0e"/>
     <use xlink:href="#m20d4e497f0" x="91.930993" y="38.42966" style="fill: #ff7f0e; stroke: #ff7f0e"/>
     <use xlink:href="#m20d4e497f0" x="93.344543" y="38.906578" style="fill: #ff7f0e; stroke: #ff7f0e"/>
     <use xlink:href="#m20d4e497f0" x="94.758093" y="31.36352" style="fill: #ff7f0e; stroke: #ff7f0e"/>
     <use xlink:href="#m20d4e497f0" x="96.171643" y="36.277402" style="fill: #ff7f0e; stroke: #ff7f0e"/>
     <use xlink:href="#m20d4e497f0" x="97.585193" y="39.25829" style="fill: #ff7f0e; stroke: #ff7f0e"/>
     <use xlink:href="#m20d4e497f0" x="98.998743" y="39.330276" style="fill: #ff7f0e; stroke: #ff7f0e"/>
     <use xlink:href="#m20d4e497f0" x="100.412293" y="42.775348" style="fill: #ff7f0e; stroke: #ff7f0e"/>
     <use xlink:href="#m20d4e497f0" x="101.825843" y="45.732792" style="fill: #ff7f0e; stroke: #ff7f0e"/>
     <use xlink:href="#m20d4e497f0" x="103.239393" y="45.028648" style="fill: #ff7f0e; stroke: #ff7f0e"/>
     <use xlink:href="#m20d4e497f0" x="104.652943" y="45.949286" style="fill: #ff7f0e; stroke: #ff7f0e"/>
     <use xlink:href="#m20d4e497f0" x="106.066493" y="39.26003" style="fill: #ff7f0e; stroke: #ff7f0e"/>
     <use xlink:href="#m20d4e497f0" x="107.480043" y="49.525592" style="fill: #ff7f0e; stroke: #ff7f0e"/>
     <use xlink:href="#m20d4e497f0" x="108.893593" y="44.511223" style="fill: #ff7f0e; stroke: #ff7f0e"/>
     <use xlink:href="#m20d4e497f0" x="110.307143" y="40.998609" style="fill: #ff7f0e; stroke: #ff7f0e"/>
     <use xlink:href="#m20d4e497f0" x="111.720693" y="55.51304" style="fill: #ff7f0e; stroke: #ff7f0e"/>
     <use xlink:href="#m20d4e497f0" x="113.134243" y="66.289375" style="fill: #ff7f0e; stroke: #ff7f0e"/>
     <use xlink:href="#m20d4e497f0" x="114.547793" y="111.880104" style="fill: #ff7f0e; stroke: #ff7f0e"/>
     <use xlink:href="#m20d4e497f0" x="115.961343" y="178.359731" style="fill: #ff7f0e; stroke: #ff7f0e"/>
     <use xlink:href="#m20d4e497f0" x="117.374893" y="205.595277" style="fill: #ff7f0e; stroke: #ff7f0e"/>
     <use xlink:href="#m20d4e497f0" x="118.788443" y="212.782337" style="fill: #ff7f0e; stroke: #ff7f0e"/>
     <use xlink:href="#m20d4e497f0" x="120.201993" y="236.914799" style="fill: #ff7f0e; stroke: #ff7f0e"/>
     <use xlink:href="#m20d4e497f0" x="121.615543" y="241.632826" style="fill: #ff7f0e; stroke: #ff7f0e"/>
     <use xlink:href="#m20d4e497f0" x="123.029093" y="225.969457" style="fill: #ff7f0e; stroke: #ff7f0e"/>
     <use xlink:href="#m20d4e497f0" x="124.442643" y="230.591753" style="fill: #ff7f0e; stroke: #ff7f0e"/>
     <use xlink:href="#m20d4e497f0" x="125.856193" y="230.918924" style="fill: #ff7f0e; stroke: #ff7f0e"/>
     <use xlink:href="#m20d4e497f0" x="127.269743" y="212.768444" style="fill: #ff7f0e; stroke: #ff7f0e"/>
    </g>
   </g>
   <g id="patch_3">
    <path d="M 44.57 246.04 
L 44.57 10.8 
" style="fill: none; stroke: #000000; stroke-width: 0.8; stroke-linejoin: miter; stroke-linecap: square"/>
   </g>
   <g id="patch_4">
    <path d="M 327.28 246.04 
L 327.28 10.8 
" style="fill: none; stroke: #000000; stroke-width: 0.8; stroke-linejoin: miter; stroke-linecap: square"/>
   </g>
   <g id="patch_5">
    <path d="M 44.57 246.04 
L 327.28 246.04 
" style="fill: none; stroke: #000000; stroke-width: 0.8; stroke-linejoin: miter; stroke-linecap: square"/>
   </g>
   <g id="patch_6">
    <path d="M 44.57 10.8 
L 327.28 10.8 
" style="fill: none; stroke: #000000; stroke-width: 0.8; stroke-linejoin: miter; stroke-linecap: square"/>
   </g>
   <g id="legend_1">
    <g id="patch_7">
     <path d="M 334.28 144.598125 
L 419.184687 144.598125 
Q 421.184687 144.598125 421.184687 142.598125 
L 421.184687 114.241875 
Q 421.184687 112.241875 419.184687 112.241875 
L 334.28 112.241875 
Q 332.28 112.241875 332.28 114.241875 
L 332.28 142.598125 
Q 332.28 144.598125 334.28 144.598125 
z
" style="fill: #ffffff; opacity: 0.8; stroke: #cccccc; stroke-linejoin: miter"/>
    </g>
    <g id="line2d_27">
     <path d="M 336.28 120.340313 
L 346.28 120.340313 
L 356.28 120.340313 
" style="fill: none; stroke: #1f77b4; stroke-width: 1.5; stroke-linecap: square"/>
     <g>
      <use xlink:href="#md2656cf4a1" x="346.28" y="120.340313" style="fill: #1f77b4; stroke: #1f77b4"/>
     </g>
    </g>
    <g id="text_15">
     <!-- Flowmeter -->
     <g transform="translate(364.28 123.840313) scale(0.1 -0.1)">
      <use xlink:href="#DejaVuSans-46"/>
      <use xlink:href="#DejaVuSans-6c" transform="translate(57.519531 0)"/>
      <use xlink:href="#DejaVuSans-6f" transform="translate(85.302734 0)"/>
      <use xlink:href="#DejaVuSans-77" transform="translate(146.484375 0)"/>
      <use xlink:href="#DejaVuSans-6d" transform="translate(228.271484 0)"/>
      <use xlink:href="#DejaVuSans-65" transform="translate(325.683594 0)"/>
      <use xlink:href="#DejaVuSans-74" transform="translate(387.207031 0)"/>
      <use xlink:href="#DejaVuSans-65" transform="translate(426.416016 0)"/>
      <use xlink:href="#DejaVuSans-72" transform="translate(487.939453 0)"/>
     </g>
    </g>
    <g id="line2d_28">
     <path d="M 336.28 135.018438 
L 346.28 135.018438 
L 356.28 135.018438 
" style="fill: none; stroke-dasharray: 5.55,2.4; stroke-dashoffset: 0; stroke: #ff7f0e; stroke-width: 1.5"/>
     <g>
      <use xlink:href="#m20d4e497f0" x="346.28" y="135.018438" style="fill: #ff7f0e; stroke: #ff7f0e"/>
     </g>
    </g>
    <g id="text_16">
     <!-- PIV 1.5bar -->
     <g transform="translate(364.28 138.518438) scale(0.1 -0.1)">
      <defs>
       <path id="DejaVuSans-50" d="M 1259 4147 
L 1259 2394 
L 2053 2394 
Q 2494 2394 2734 2622 
Q 2975 2850 2975 3272 
Q 2975 3691 2734 3919 
Q 2494 4147 2053 4147 
L 1259 4147 
z
M 628 4666 
L 2053 4666 
Q 2838 4666 3239 4311 
Q 3641 3956 3641 3272 
Q 3641 2581 3239 2228 
Q 2838 1875 2053 1875 
L 1259 1875 
L 1259 0 
L 628 0 
L 628 4666 
z
" transform="scale(0.015625)"/>
       <path id="DejaVuSans-49" d="M 628 4666 
L 1259 4666 
L 1259 0 
L 628 0 
L 628 4666 
z
" transform="scale(0.015625)"/>
       <path id="DejaVuSans-56" d="M 1831 0 
L 50 4666 
L 709 4666 
L 2188 738 
L 3669 4666 
L 4325 4666 
L 2547 0 
L 1831 0 
z
" transform="scale(0.015625)"/>
       <path id="DejaVuSans-62" d="M 3116 1747 
Q 3116 2381 2855 2742 
Q 2594 3103 2138 3103 
Q 1681 3103 1420 2742 
Q 1159 2381 1159 1747 
Q 1159 1113 1420 752 
Q 1681 391 2138 391 
Q 2594 391 2855 752 
Q 3116 1113 3116 1747 
z
M 1159 2969 
Q 1341 3281 1617 3432 
Q 1894 3584 2278 3584 
Q 2916 3584 3314 3078 
Q 3713 2572 3713 1747 
Q 3713 922 3314 415 
Q 2916 -91 2278 -91 
Q 1894 -91 1617 61 
Q 1341 213 1159 525 
L 1159 0 
L 581 0 
L 581 4863 
L 1159 4863 
L 1159 2969 
z
" transform="scale(0.015625)"/>
      </defs>
      <use xlink:href="#DejaVuSans-50"/>
      <use xlink:href="#DejaVuSans-49" transform="translate(60.302734 0)"/>
      <use xlink:href="#DejaVuSans-56" transform="translate(89.794922 0)"/>
      <use xlink:href="#DejaVuSans-20" transform="translate(158.203125 0)"/>
      <use xlink:href="#DejaVuSans-31" transform="translate(189.990234 0)"/>
      <use xlink:href="#DejaVuSans-2e" transform="translate(253.613281 0)"/>
      <use xlink:href="#DejaVuSans-35" transform="translate(285.400391 0)"/>
      <use xlink:href="#DejaVuSans-62" transform="translate(349.023438 0)"/>
      <use xlink:href="#DejaVuSans-61" transform="translate(412.5 0)"/>
      <use xlink:href="#DejaVuSans-72" transform="translate(473.779297 0)"/>
     </g>
    </g>
   </g>
  </g>
 </g>
 <defs>
  <clipPath id="p2426b65e9e">
   <rect x="44.57" y="10.8" width="282.71" height="235.24"/>
  </clipPath>
 </defs>
</svg>
