<?xml version="1.0" encoding="utf-8" standalone="no"?>
<!DOCTYPE svg PUBLIC "-//W3C//DTD SVG 1.1//EN"
  "http://www.w3.org/Graphics/SVG/1.1/DTD/svg11.dtd">
<svg xmlns:xlink="http://www.w3.org/1999/xlink" width="432pt" height="288pt" viewBox="0 0 432 288" xmlns="http://www.w3.org/2000/svg" version="1.1">
 <metadata>
  <rdf:RDF xmlns:dc="http://purl.org/dc/elements/1.1/" xmlns:cc="http://creativecommons.org/ns#" xmlns:rdf="http://www.w3.org/1999/02/22-rdf-syntax-ns#">
   <cc:Work>
    <dc:type rdf:resource="http://purl.org/dc/dcmitype/StillImage"/>
    <dc:date>2025-09-28T13:22:50.468866</dc:date>
    <dc:format>image/svg+xml</dc:format>
    <dc:creator>
     <cc:Agent>
      <dc:title>Matplotlib v3.10.0, https://matplotlib.org/</dc:title>
     </cc:Agent>
    </dc:creator>
   </cc:Work>
  </rdf:RDF>
 </metadata>
 <defs>
  <style type="text/css">*{stroke-linejoin: round; stroke-linecap: butt}</style>
 </defs>
 <g id="figure_1">
  <g id="patch_1">
   <path d="M 0 288 
L 432 288 
L 432 0 
L 0 0 
z
" style="fill: #ffffff"/>
  </g>
  <g id="axes_1">
   <g id="patch_2">
    <path d="M 44.57 246.04 
L 328.72 246.04 
L 328.72 10.8 
L 44.57 10.8 
z
" style="fill: #ffffff"/>
   </g>
   <g id="matplotlib.axis_1">
    <g id="xtick_1">
     <g id="line2d_1">
      <path d="M 44.57 246.04 
L 44.57 10.8 
" clip-path="url(#p0e179cb3f1)" style="fill: none; stroke: #b0b0b0; stroke-width: 0.8; stroke-linecap: square"/>
     </g>
     <g id="line2d_2">
      <defs>
       <path id="ma47e197e9c" d="M 0 0 
L 0 3.5 
" style="stroke: #000000; stroke-width: 0.8"/>
      </defs>
      <g>
       <use xlink:href="#ma47e197e9c" x="44.57" y="246.04" style="stroke: #000000; stroke-width: 0.8"/>
      </g>
     </g>
     <g id="text_1">
      <!-- 0.0 -->
      <g transform="translate(36.618438 260.638438) scale(0.1 -0.1)">
       <defs>
        <path id="DejaVuSans-30" d="M 2034 4250 
Q 1547 4250 1301 3770 
Q 1056 3291 1056 2328 
Q 1056 1369 1301 889 
Q 1547 409 2034 409 
Q 2525 409 2770 889 
Q 3016 1369 3016 2328 
Q 3016 3291 2770 3770 
Q 2525 4250 2034 4250 
z
M 2034 4750 
Q 2819 4750 3233 4129 
Q 3647 3509 3647 2328 
Q 3647 1150 3233 529 
Q 2819 -91 2034 -91 
Q 1250 -91 836 529 
Q 422 1150 422 2328 
Q 422 3509 836 4129 
Q 1250 4750 2034 4750 
z
" transform="scale(0.015625)"/>
        <path id="DejaVuSans-2e" d="M 684 794 
L 1344 794 
L 1344 0 
L 684 0 
L 684 794 
z
" transform="scale(0.015625)"/>
       </defs>
       <use xlink:href="#DejaVuSans-30"/>
       <use xlink:href="#DejaVuSans-2e" transform="translate(63.623047 0)"/>
       <use xlink:href="#DejaVuSans-30" transform="translate(95.410156 0)"/>
      </g>
     </g>
    </g>
    <g id="xtick_2">
     <g id="line2d_3">
      <path d="M 101.4 246.04 
L 101.4 10.8 
" clip-path="url(#p0e179cb3f1)" style="fill: none; stroke: #b0b0b0; stroke-width: 0.8; stroke-linecap: square"/>
     </g>
     <g id="line2d_4">
      <g>
       <use xlink:href="#ma47e197e9c" x="101.4" y="246.04" style="stroke: #000000; stroke-width: 0.8"/>
      </g>
     </g>
     <g id="text_2">
      <!-- 0.1 -->
      <g transform="translate(93.448438 260.638438) scale(0.1 -0.1)">
       <defs>
        <path id="DejaVuSans-31" d="M 794 531 
L 1825 531 
L 1825 4091 
L 703 3866 
L 703 4441 
L 1819 4666 
L 2450 4666 
L 2450 531 
L 3481 531 
L 3481 0 
L 794 0 
L 794 531 
z
" transform="scale(0.015625)"/>
       </defs>
       <use xlink:href="#DejaVuSans-30"/>
       <use xlink:href="#DejaVuSans-2e" transform="translate(63.623047 0)"/>
       <use xlink:href="#DejaVuSans-31" transform="translate(95.410156 0)"/>
      </g>
     </g>
    </g>
    <g id="xtick_3">
     <g id="line2d_5">
      <path d="M 158.23 246.04 
L 158.23 10.8 
" clip-path="url(#p0e179cb3f1)" style="fill: none; stroke: #b0b0b0; stroke-width: 0.8; stroke-linecap: square"/>
     </g>
     <g id="line2d_6">
      <g>
       <use xlink:href="#ma47e197e9c" x="158.23" y="246.04" style="stroke: #000000; stroke-width: 0.8"/>
      </g>
     </g>
     <g id="text_3">
      <!-- 0.2 -->
      <g transform="translate(150.278437 260.638438) scale(0.1 -0.1)">
       <defs>
        <path id="DejaVuSans-32" d="M 1228 531 
L 3431 531 
L 3431 0 
L 469 0 
L 469 531 
Q 828 903 1448 1529 
Q 2069 2156 2228 2338 
Q 2531 2678 2651 2914 
Q 2772 3150 2772 3378 
Q 2772 3750 2511 3984 
Q 2250 4219 1831 4219 
Q 1534 4219 1204 4116 
Q 875 4013 500 3803 
L 500 4441 
Q 881 4594 1212 4672 
Q 1544 4750 1819 4750 
Q 2544 4750 2975 4387 
Q 3406 4025 3406 3419 
Q 3406 3131 3298 2873 
Q 3191 2616 2906 2266 
Q 2828 2175 2409 1742 
Q 1991 1309 1228 531 
z
" transform="scale(0.015625)"/>
       </defs>
       <use xlink:href="#DejaVuSans-30"/>
       <use xlink:href="#DejaVuSans-2e" transform="translate(63.623047 0)"/>
       <use xlink:href="#DejaVuSans-32" transform="translate(95.410156 0)"/>
      </g>
     </g>
    </g>
    <g id="xtick_4">
     <g id="line2d_7">
      <path d="M 215.06 246.04 
L 215.06 10.8 
" clip-path="url(#p0e179cb3f1)" style="fill: none; stroke: #b0b0b0; stroke-width: 0.8; stroke-linecap: square"/>
     </g>
     <g id="line2d_8">
      <g>
       <use xlink:href="#ma47e197e9c" x="215.06" y="246.04" style="stroke: #000000; stroke-width: 0.8"/>
      </g>
     </g>
     <g id="text_4">
      <!-- 0.3 -->
      <g transform="translate(207.108438 260.638438) scale(0.1 -0.1)">
       <defs>
        <path id="DejaVuSans-33" d="M 2597 2516 
Q 3050 2419 3304 2112 
Q 3559 1806 3559 1356 
Q 3559 666 3084 287 
Q 2609 -91 1734 -91 
Q 1441 -91 1130 -33 
Q 819 25 488 141 
L 488 750 
Q 750 597 1062 519 
Q 1375 441 1716 441 
Q 2309 441 2620 675 
Q 2931 909 2931 1356 
Q 2931 1769 2642 2001 
Q 2353 2234 1838 2234 
L 1294 2234 
L 1294 2753 
L 1863 2753 
Q 2328 2753 2575 2939 
Q 2822 3125 2822 3475 
Q 2822 3834 2567 4026 
Q 2313 4219 1838 4219 
Q 1578 4219 1281 4162 
Q 984 4106 628 3988 
L 628 4550 
Q 988 4650 1302 4700 
Q 1616 4750 1894 4750 
Q 2613 4750 3031 4423 
Q 3450 4097 3450 3541 
Q 3450 3153 3228 2886 
Q 3006 2619 2597 2516 
z
" transform="scale(0.015625)"/>
       </defs>
       <use xlink:href="#DejaVuSans-30"/>
       <use xlink:href="#DejaVuSans-2e" transform="translate(63.623047 0)"/>
       <use xlink:href="#DejaVuSans-33" transform="translate(95.410156 0)"/>
      </g>
     </g>
    </g>
    <g id="xtick_5">
     <g id="line2d_9">
      <path d="M 271.89 246.04 
L 271.89 10.8 
" clip-path="url(#p0e179cb3f1)" style="fill: none; stroke: #b0b0b0; stroke-width: 0.8; stroke-linecap: square"/>
     </g>
     <g id="line2d_10">
      <g>
       <use xlink:href="#ma47e197e9c" x="271.89" y="246.04" style="stroke: #000000; stroke-width: 0.8"/>
      </g>
     </g>
     <g id="text_5">
      <!-- 0.4 -->
      <g transform="translate(263.938437 260.638438) scale(0.1 -0.1)">
       <defs>
        <path id="DejaVuSans-34" d="M 2419 4116 
L 825 1625 
L 2419 1625 
L 2419 4116 
z
M 2253 4666 
L 3047 4666 
L 3047 1625 
L 3713 1625 
L 3713 1100 
L 3047 1100 
L 3047 0 
L 2419 0 
L 2419 1100 
L 313 1100 
L 313 1709 
L 2253 4666 
z
" transform="scale(0.015625)"/>
       </defs>
       <use xlink:href="#DejaVuSans-30"/>
       <use xlink:href="#DejaVuSans-2e" transform="translate(63.623047 0)"/>
       <use xlink:href="#DejaVuSans-34" transform="translate(95.410156 0)"/>
      </g>
     </g>
    </g>
    <g id="xtick_6">
     <g id="line2d_11">
      <path d="M 328.72 246.04 
L 328.72 10.8 
" clip-path="url(#p0e179cb3f1)" style="fill: none; stroke: #b0b0b0; stroke-width: 0.8; stroke-linecap: square"/>
     </g>
     <g id="line2d_12">
      <g>
       <use xlink:href="#ma47e197e9c" x="328.72" y="246.04" style="stroke: #000000; stroke-width: 0.8"/>
      </g>
     </g>
     <g id="text_6">
      <!-- 0.5 -->
      <g transform="translate(320.768437 260.638438) scale(0.1 -0.1)">
       <defs>
        <path id="DejaVuSans-35" d="M 691 4666 
L 3169 4666 
L 3169 4134 
L 1269 4134 
L 1269 2991 
Q 1406 3038 1543 3061 
Q 1681 3084 1819 3084 
Q 2600 3084 3056 2656 
Q 3513 2228 3513 1497 
Q 3513 744 3044 326 
Q 2575 -91 1722 -91 
Q 1428 -91 1123 -41 
Q 819 9 494 109 
L 494 744 
Q 775 591 1075 516 
Q 1375 441 1709 441 
Q 2250 441 2565 725 
Q 2881 1009 2881 1497 
Q 2881 1984 2565 2268 
Q 2250 2553 1709 2553 
Q 1456 2553 1204 2497 
Q 953 2441 691 2322 
L 691 4666 
z
" transform="scale(0.015625)"/>
       </defs>
       <use xlink:href="#DejaVuSans-30"/>
       <use xlink:href="#DejaVuSans-2e" transform="translate(63.623047 0)"/>
       <use xlink:href="#DejaVuSans-35" transform="translate(95.410156 0)"/>
      </g>
     </g>
    </g>
    <g id="text_7">
     <!-- Time (s) -->
     <g transform="translate(166.316094 274.316562) scale(0.1 -0.1)">
      <defs>
       <path id="DejaVuSans-54" d="M -19 4666 
L 3928 4666 
L 3928 4134 
L 2272 4134 
L 2272 0 
L 1638 0 
L 1638 4134 
L -19 4134 
L -19 4666 
z
" transform="scale(0.015625)"/>
       <path id="DejaVuSans-69" d="M 603 3500 
L 1178 3500 
L 1178 0 
L 603 0 
L 603 3500 
z
M 603 4863 
L 1178 4863 
L 1178 4134 
L 603 4134 
L 603 4863 
z
" transform="scale(0.015625)"/>
       <path id="DejaVuSans-6d" d="M 3328 2828 
Q 3544 3216 3844 3400 
Q 4144 3584 4550 3584 
Q 5097 3584 5394 3201 
Q 5691 2819 5691 2113 
L 5691 0 
L 5113 0 
L 5113 2094 
Q 5113 2597 4934 2840 
Q 4756 3084 4391 3084 
Q 3944 3084 3684 2787 
Q 3425 2491 3425 1978 
L 3425 0 
L 2847 0 
L 2847 2094 
Q 2847 2600 2669 2842 
Q 2491 3084 2119 3084 
Q 1678 3084 1418 2786 
Q 1159 2488 1159 1978 
L 1159 0 
L 581 0 
L 581 3500 
L 1159 3500 
L 1159 2956 
Q 1356 3278 1631 3431 
Q 1906 3584 2284 3584 
Q 2666 3584 2933 3390 
Q 3200 3197 3328 2828 
z
" transform="scale(0.015625)"/>
       <path id="DejaVuSans-65" d="M 3597 1894 
L 3597 1613 
L 953 1613 
Q 991 1019 1311 708 
Q 1631 397 2203 397 
Q 2534 397 2845 478 
Q 3156 559 3463 722 
L 3463 178 
Q 3153 47 2828 -22 
Q 2503 -91 2169 -91 
Q 1331 -91 842 396 
Q 353 884 353 1716 
Q 353 2575 817 3079 
Q 1281 3584 2069 3584 
Q 2775 3584 3186 3129 
Q 3597 2675 3597 1894 
z
M 3022 2063 
Q 3016 2534 2758 2815 
Q 2500 3097 2075 3097 
Q 1594 3097 1305 2825 
Q 1016 2553 972 2059 
L 3022 2063 
z
" transform="scale(0.015625)"/>
       <path id="DejaVuSans-20" transform="scale(0.015625)"/>
       <path id="DejaVuSans-28" d="M 1984 4856 
Q 1566 4138 1362 3434 
Q 1159 2731 1159 2009 
Q 1159 1288 1364 580 
Q 1569 -128 1984 -844 
L 1484 -844 
Q 1016 -109 783 600 
Q 550 1309 550 2009 
Q 550 2706 781 3412 
Q 1013 4119 1484 4856 
L 1984 4856 
z
" transform="scale(0.015625)"/>
       <path id="DejaVuSans-73" d="M 2834 3397 
L 2834 2853 
Q 2591 2978 2328 3040 
Q 2066 3103 1784 3103 
Q 1356 3103 1142 2972 
Q 928 2841 928 2578 
Q 928 2378 1081 2264 
Q 1234 2150 1697 2047 
L 1894 2003 
Q 2506 1872 2764 1633 
Q 3022 1394 3022 966 
Q 3022 478 2636 193 
Q 2250 -91 1575 -91 
Q 1294 -91 989 -36 
Q 684 19 347 128 
L 347 722 
Q 666 556 975 473 
Q 1284 391 1588 391 
Q 1994 391 2212 530 
Q 2431 669 2431 922 
Q 2431 1156 2273 1281 
Q 2116 1406 1581 1522 
L 1381 1569 
Q 847 1681 609 1914 
Q 372 2147 372 2553 
Q 372 3047 722 3315 
Q 1072 3584 1716 3584 
Q 2034 3584 2315 3537 
Q 2597 3491 2834 3397 
z
" transform="scale(0.015625)"/>
       <path id="DejaVuSans-29" d="M 513 4856 
L 1013 4856 
Q 1481 4119 1714 3412 
Q 1947 2706 1947 2009 
Q 1947 1309 1714 600 
Q 1481 -109 1013 -844 
L 513 -844 
Q 928 -128 1133 580 
Q 1338 1288 1338 2009 
Q 1338 2731 1133 3434 
Q 928 4138 513 4856 
z
" transform="scale(0.015625)"/>
      </defs>
      <use xlink:href="#DejaVuSans-54"/>
      <use xlink:href="#DejaVuSans-69" transform="translate(57.958984 0)"/>
      <use xlink:href="#DejaVuSans-6d" transform="translate(85.742188 0)"/>
      <use xlink:href="#DejaVuSans-65" transform="translate(183.154297 0)"/>
      <use xlink:href="#DejaVuSans-20" transform="translate(244.677734 0)"/>
      <use xlink:href="#DejaVuSans-28" transform="translate(276.464844 0)"/>
      <use xlink:href="#DejaVuSans-73" transform="translate(315.478516 0)"/>
      <use xlink:href="#DejaVuSans-29" transform="translate(367.578125 0)"/>
     </g>
    </g>
   </g>
   <g id="matplotlib.axis_2">
    <g id="ytick_1">
     <g id="line2d_13">
      <path d="M 44.57 246.04 
L 328.72 246.04 
" clip-path="url(#p0e179cb3f1)" style="fill: none; stroke: #b0b0b0; stroke-width: 0.8; stroke-linecap: square"/>
     </g>
     <g id="line2d_14">
      <defs>
       <path id="m84bf40aef4" d="M 0 0 
L -3.5 0 
" style="stroke: #000000; stroke-width: 0.8"/>
      </defs>
      <g>
       <use xlink:href="#m84bf40aef4" x="44.57" y="246.04" style="stroke: #000000; stroke-width: 0.8"/>
      </g>
     </g>
     <g id="text_8">
      <!-- 0 -->
      <g transform="translate(31.2075 249.839219) scale(0.1 -0.1)">
       <use xlink:href="#DejaVuSans-30"/>
      </g>
     </g>
    </g>
    <g id="ytick_2">
     <g id="line2d_15">
      <path d="M 44.57 205.167256 
L 328.72 205.167256 
" clip-path="url(#p0e179cb3f1)" style="fill: none; stroke: #b0b0b0; stroke-width: 0.8; stroke-linecap: square"/>
     </g>
     <g id="line2d_16">
      <g>
       <use xlink:href="#m84bf40aef4" x="44.57" y="205.167256" style="stroke: #000000; stroke-width: 0.8"/>
      </g>
     </g>
     <g id="text_9">
      <!-- 2 -->
      <g transform="translate(31.2075 208.966475) scale(0.1 -0.1)">
       <use xlink:href="#DejaVuSans-32"/>
      </g>
     </g>
    </g>
    <g id="ytick_3">
     <g id="line2d_17">
      <path d="M 44.57 164.294513 
L 328.72 164.294513 
" clip-path="url(#p0e179cb3f1)" style="fill: none; stroke: #b0b0b0; stroke-width: 0.8; stroke-linecap: square"/>
     </g>
     <g id="line2d_18">
      <g>
       <use xlink:href="#m84bf40aef4" x="44.57" y="164.294513" style="stroke: #000000; stroke-width: 0.8"/>
      </g>
     </g>
     <g id="text_10">
      <!-- 4 -->
      <g transform="translate(31.2075 168.093732) scale(0.1 -0.1)">
       <use xlink:href="#DejaVuSans-34"/>
      </g>
     </g>
    </g>
    <g id="ytick_4">
     <g id="line2d_19">
      <path d="M 44.57 123.421769 
L 328.72 123.421769 
" clip-path="url(#p0e179cb3f1)" style="fill: none; stroke: #b0b0b0; stroke-width: 0.8; stroke-linecap: square"/>
     </g>
     <g id="line2d_20">
      <g>
       <use xlink:href="#m84bf40aef4" x="44.57" y="123.421769" style="stroke: #000000; stroke-width: 0.8"/>
      </g>
     </g>
     <g id="text_11">
      <!-- 6 -->
      <g transform="translate(31.2075 127.220988) scale(0.1 -0.1)">
       <defs>
        <path id="DejaVuSans-36" d="M 2113 2584 
Q 1688 2584 1439 2293 
Q 1191 2003 1191 1497 
Q 1191 994 1439 701 
Q 1688 409 2113 409 
Q 2538 409 2786 701 
Q 3034 994 3034 1497 
Q 3034 2003 2786 2293 
Q 2538 2584 2113 2584 
z
M 3366 4563 
L 3366 3988 
Q 3128 4100 2886 4159 
Q 2644 4219 2406 4219 
Q 1781 4219 1451 3797 
Q 1122 3375 1075 2522 
Q 1259 2794 1537 2939 
Q 1816 3084 2150 3084 
Q 2853 3084 3261 2657 
Q 3669 2231 3669 1497 
Q 3669 778 3244 343 
Q 2819 -91 2113 -91 
Q 1303 -91 875 529 
Q 447 1150 447 2328 
Q 447 3434 972 4092 
Q 1497 4750 2381 4750 
Q 2619 4750 2861 4703 
Q 3103 4656 3366 4563 
z
" transform="scale(0.015625)"/>
       </defs>
       <use xlink:href="#DejaVuSans-36"/>
      </g>
     </g>
    </g>
    <g id="ytick_5">
     <g id="line2d_21">
      <path d="M 44.57 82.549026 
L 328.72 82.549026 
" clip-path="url(#p0e179cb3f1)" style="fill: none; stroke: #b0b0b0; stroke-width: 0.8; stroke-linecap: square"/>
     </g>
     <g id="line2d_22">
      <g>
       <use xlink:href="#m84bf40aef4" x="44.57" y="82.549026" style="stroke: #000000; stroke-width: 0.8"/>
      </g>
     </g>
     <g id="text_12">
      <!-- 8 -->
      <g transform="translate(31.2075 86.348245) scale(0.1 -0.1)">
       <defs>
        <path id="DejaVuSans-38" d="M 2034 2216 
Q 1584 2216 1326 1975 
Q 1069 1734 1069 1313 
Q 1069 891 1326 650 
Q 1584 409 2034 409 
Q 2484 409 2743 651 
Q 3003 894 3003 1313 
Q 3003 1734 2745 1975 
Q 2488 2216 2034 2216 
z
M 1403 2484 
Q 997 2584 770 2862 
Q 544 3141 544 3541 
Q 544 4100 942 4425 
Q 1341 4750 2034 4750 
Q 2731 4750 3128 4425 
Q 3525 4100 3525 3541 
Q 3525 3141 3298 2862 
Q 3072 2584 2669 2484 
Q 3125 2378 3379 2068 
Q 3634 1759 3634 1313 
Q 3634 634 3220 271 
Q 2806 -91 2034 -91 
Q 1263 -91 848 271 
Q 434 634 434 1313 
Q 434 1759 690 2068 
Q 947 2378 1403 2484 
z
M 1172 3481 
Q 1172 3119 1398 2916 
Q 1625 2713 2034 2713 
Q 2441 2713 2670 2916 
Q 2900 3119 2900 3481 
Q 2900 3844 2670 4047 
Q 2441 4250 2034 4250 
Q 1625 4250 1398 4047 
Q 1172 3844 1172 3481 
z
" transform="scale(0.015625)"/>
       </defs>
       <use xlink:href="#DejaVuSans-38"/>
      </g>
     </g>
    </g>
    <g id="ytick_6">
     <g id="line2d_23">
      <path d="M 44.57 41.676282 
L 328.72 41.676282 
" clip-path="url(#p0e179cb3f1)" style="fill: none; stroke: #b0b0b0; stroke-width: 0.8; stroke-linecap: square"/>
     </g>
     <g id="line2d_24">
      <g>
       <use xlink:href="#m84bf40aef4" x="44.57" y="41.676282" style="stroke: #000000; stroke-width: 0.8"/>
      </g>
     </g>
     <g id="text_13">
      <!-- 10 -->
      <g transform="translate(24.845 45.475501) scale(0.1 -0.1)">
       <use xlink:href="#DejaVuSans-31"/>
       <use xlink:href="#DejaVuSans-30" transform="translate(63.623047 0)"/>
      </g>
     </g>
    </g>
    <g id="text_14">
     <!-- Flow rate (L/s) -->
     <g transform="translate(18.765313 164.144219) rotate(-90) scale(0.1 -0.1)">
      <defs>
       <path id="DejaVuSans-46" d="M 628 4666 
L 3309 4666 
L 3309 4134 
L 1259 4134 
L 1259 2759 
L 3109 2759 
L 3109 2228 
L 1259 2228 
L 1259 0 
L 628 0 
L 628 4666 
z
" transform="scale(0.015625)"/>
       <path id="DejaVuSans-6c" d="M 603 4863 
L 1178 4863 
L 1178 0 
L 603 0 
L 603 4863 
z
" transform="scale(0.015625)"/>
       <path id="DejaVuSans-6f" d="M 1959 3097 
Q 1497 3097 1228 2736 
Q 959 2375 959 1747 
Q 959 1119 1226 758 
Q 1494 397 1959 397 
Q 2419 397 2687 759 
Q 2956 1122 2956 1747 
Q 2956 2369 2687 2733 
Q 2419 3097 1959 3097 
z
M 1959 3584 
Q 2709 3584 3137 3096 
Q 3566 2609 3566 1747 
Q 3566 888 3137 398 
Q 2709 -91 1959 -91 
Q 1206 -91 779 398 
Q 353 888 353 1747 
Q 353 2609 779 3096 
Q 1206 3584 1959 3584 
z
" transform="scale(0.015625)"/>
       <path id="DejaVuSans-77" d="M 269 3500 
L 844 3500 
L 1563 769 
L 2278 3500 
L 2956 3500 
L 3675 769 
L 4391 3500 
L 4966 3500 
L 4050 0 
L 3372 0 
L 2619 2869 
L 1863 0 
L 1184 0 
L 269 3500 
z
" transform="scale(0.015625)"/>
       <path id="DejaVuSans-72" d="M 2631 2963 
Q 2534 3019 2420 3045 
Q 2306 3072 2169 3072 
Q 1681 3072 1420 2755 
Q 1159 2438 1159 1844 
L 1159 0 
L 581 0 
L 581 3500 
L 1159 3500 
L 1159 2956 
Q 1341 3275 1631 3429 
Q 1922 3584 2338 3584 
Q 2397 3584 2469 3576 
Q 2541 3569 2628 3553 
L 2631 2963 
z
" transform="scale(0.015625)"/>
       <path id="DejaVuSans-61" d="M 2194 1759 
Q 1497 1759 1228 1600 
Q 959 1441 959 1056 
Q 959 750 1161 570 
Q 1363 391 1709 391 
Q 2188 391 2477 730 
Q 2766 1069 2766 1631 
L 2766 1759 
L 2194 1759 
z
M 3341 1997 
L 3341 0 
L 2766 0 
L 2766 531 
Q 2569 213 2275 61 
Q 1981 -91 1556 -91 
Q 1019 -91 701 211 
Q 384 513 384 1019 
Q 384 1609 779 1909 
Q 1175 2209 1959 2209 
L 2766 2209 
L 2766 2266 
Q 2766 2663 2505 2880 
Q 2244 3097 1772 3097 
Q 1472 3097 1187 3025 
Q 903 2953 641 2809 
L 641 3341 
Q 956 3463 1253 3523 
Q 1550 3584 1831 3584 
Q 2591 3584 2966 3190 
Q 3341 2797 3341 1997 
z
" transform="scale(0.015625)"/>
       <path id="DejaVuSans-74" d="M 1172 4494 
L 1172 3500 
L 2356 3500 
L 2356 3053 
L 1172 3053 
L 1172 1153 
Q 1172 725 1289 603 
Q 1406 481 1766 481 
L 2356 481 
L 2356 0 
L 1766 0 
Q 1100 0 847 248 
Q 594 497 594 1153 
L 594 3053 
L 172 3053 
L 172 3500 
L 594 3500 
L 594 4494 
L 1172 4494 
z
" transform="scale(0.015625)"/>
       <path id="DejaVuSans-4c" d="M 628 4666 
L 1259 4666 
L 1259 531 
L 3531 531 
L 3531 0 
L 628 0 
L 628 4666 
z
" transform="scale(0.015625)"/>
       <path id="DejaVuSans-2f" d="M 1625 4666 
L 2156 4666 
L 531 -594 
L 0 -594 
L 1625 4666 
z
" transform="scale(0.015625)"/>
      </defs>
      <use xlink:href="#DejaVuSans-46"/>
      <use xlink:href="#DejaVuSans-6c" transform="translate(57.519531 0)"/>
      <use xlink:href="#DejaVuSans-6f" transform="translate(85.302734 0)"/>
      <use xlink:href="#DejaVuSans-77" transform="translate(146.484375 0)"/>
      <use xlink:href="#DejaVuSans-20" transform="translate(228.271484 0)"/>
      <use xlink:href="#DejaVuSans-72" transform="translate(260.058594 0)"/>
      <use xlink:href="#DejaVuSans-61" transform="translate(301.171875 0)"/>
      <use xlink:href="#DejaVuSans-74" transform="translate(362.451172 0)"/>
      <use xlink:href="#DejaVuSans-65" transform="translate(401.660156 0)"/>
      <use xlink:href="#DejaVuSans-20" transform="translate(463.183594 0)"/>
      <use xlink:href="#DejaVuSans-28" transform="translate(494.970703 0)"/>
      <use xlink:href="#DejaVuSans-4c" transform="translate(533.984375 0)"/>
      <use xlink:href="#DejaVuSans-2f" transform="translate(589.697266 0)"/>
      <use xlink:href="#DejaVuSans-73" transform="translate(623.388672 0)"/>
      <use xlink:href="#DejaVuSans-29" transform="translate(675.488281 0)"/>
     </g>
    </g>
   </g>
   <g id="line2d_25">
    <path d="M 44.57 246.04 
L 58.2092 186.202304 
L 55.936 158.327092 
L 63.8922 116.739076 
L 74.6899 75.621096 
L 86.0559 111.711728 
L 110.4928 114.000602 
L 126.9735 125.874134 
L 157.0934 120.846787 
L 190.0548 135.928829 
L 217.3332 148.721998 
L 233.8139 161.515166 
L 239.4969 182.993793 
L 241.7701 208.13053 
L 253.1361 226.400647 
L 274.7315 236.904942 
L 318.4906 237.374978 
" clip-path="url(#p0e179cb3f1)" style="fill: none; stroke: #1f77b4; stroke-width: 1.5; stroke-linecap: square"/>
   </g>
   <g id="line2d_26">
    <path d="M 44.57 246.04 
L 49.1164 239.56167 
L 50.8213 234.023413 
L 53.0945 232.449813 
L 53.6628 225.951047 
L 56.5043 219.145735 
L 57.0726 211.40035 
L 59.9141 203.491474 
L 61.619 199.220272 
L 62.7556 194.458598 
L 64.4605 187.019758 
L 67.8703 175.636699 
L 73.5533 161.229057 
L 75.2582 157.591383 
L 77.5314 154.587236 
L 78.668 151.910072 
L 82.0778 148.905925 
L 86.6242 148.905925 
L 91.1706 153.483672 
L 92.8755 159.655457 
L 98.5585 164.396695 
L 102.5366 171.999025 
L 107.083 177.373791 
L 112.766 180.86841 
L 117.8807 183.872557 
L 125.8369 184.342594 
L 129.815 187.980268 
L 137.2029 188.777286 
L 141.7493 190.677869 
L 147.4323 190.514378 
L 152.547 192.414961 
L 162.7764 193.355034 
L 171.3009 194.458598 
L 178.6888 196.849653 
L 186.645 198.729799 
L 195.1695 201.4274 
L 203.694 204.431547 
L 212.2185 206.802166 
L 223.0162 210.43984 
L 232.6773 214.567987 
L 239.4969 219.309226 
L 247.4531 225.154028 
L 253.1361 229.752212 
L 259.3874 234.186904 
L 263.9338 237.497597 
L 268.4802 240.358689 
L 275.8681 243.362835 
L 283.8243 245.406472 
L 291.7805 246.203491 
" clip-path="url(#p0e179cb3f1)" style="fill: none; stroke: #ff7f0e; stroke-width: 1.5; stroke-linecap: square"/>
   </g>
   <g id="line2d_27">
    <path d="M 44.57 246.04 
L 45.7066 222.088572 
L 46.8432 202.101801 
L 47.4115 184.935248 
L 50.8213 174.941863 
L 54.7994 166.011168 
L 55.936 151.726144 
L 55.936 135.295301 
L 55.936 117.066058 
L 55.3677 105.989544 
L 55.3677 88.49601 
L 54.7994 69.919348 
L 55.936 47.398467 
L 61.0507 102.065761 
L 62.1873 133.864755 
L 70.1435 101.350488 
L 73.5533 137.073266 
L 78.0997 89.926556 
L 80.9412 99.572524 
L 84.9193 107.787945 
L 87.1925 118.496604 
L 89.4657 139.566503 
L 95.717 113.857547 
L 99.1268 123.850933 
L 103.6732 133.496901 
L 111.6294 143.858141 
L 117.8807 154.934655 
L 127.5418 163.150076 
L 136.6346 163.517931 
L 139.4761 158.143165 
L 148.0006 156.365201 
L 153.1153 153.871963 
L 160.5032 159.226293 
L 167.3228 163.517931 
L 176.4156 167.441714 
L 186.0767 174.22659 
L 200.2842 178.150373 
L 208.8087 186.018376 
L 221.3113 192.455833 
L 230.9724 203.164492 
L 240.6335 207.803548 
L 250.8629 213.525733 
L 256.5459 220.310608 
L 266.207 228.526029 
L 277.0047 235.310905 
L 291.7805 240.665234 
L 305.4197 244.609454 
L 316.7857 245.324727 
L 326.4468 245.672145 
" clip-path="url(#p0e179cb3f1)" style="fill: none; stroke: #d62728; stroke-width: 1.5; stroke-linecap: square"/>
   </g>
   <g id="line2d_28">
    <path d="M 44.57 246.04 
L 45.1383 242.034471 
L 45.7066 239.009888 
L 46.2749 235.67876 
L 47.4115 231.325812 
L 47.9798 225.971483 
L 48.5481 220.617154 
L 49.1164 215.610242 
L 49.6847 211.604714 
L 50.253 206.577366 
L 50.8213 199.894673 
L 51.3896 194.867325 
L 51.9579 189.186014 
L 53.0945 181.15452 
L 53.6628 173.817862 
L 54.2311 165.786368 
L 54.7994 157.080474 
L 55.3677 149.72338 
L 56.5043 143.040686 
L 57.0726 134.68221 
L 57.6409 128.326499 
L 58.2092 120.969405 
L 58.7775 112.937911 
L 59.3458 104.252453 
L 59.9141 96.895359 
L 60.4824 90.212665 
L 61.0507 83.529972 
L 61.619 74.149677 
L 62.7556 62.787054 
L 63.8922 52.078396 
L 64.4605 59.108508 
L 65.0288 66.792583 
L 65.0288 75.498478 
L 65.0288 84.858336 
L 65.5971 93.543794 
L 66.1654 101.575288 
L 66.1654 109.933764 
L 66.7337 117.638276 
L 67.302 124.32097 
L 67.8703 129.675299 
L 68.4386 136.031011 
L 69.5752 142.366286 
L 70.1435 149.396398 
L 71.2801 155.077709 
L 72.4167 159.430657 
L 72.985 161.760403 
L 73.5533 163.109203 
L 74.1216 165.111968 
L 74.6899 165.786368 
L 75.8265 167.114732 
L 76.9631 168.463533 
L 77.5314 169.464915 
L 78.668 171.140698 
L 79.2363 172.469062 
L 80.3729 174.144844 
L 80.9412 175.473208 
L 82.0778 178.150373 
L 83.2144 180.500556 
L 84.351 183.17772 
L 84.9193 183.831684 
L 86.0559 186.181867 
L 87.1925 188.511614 
L 88.3291 190.187396 
L 89.4657 192.537579 
L 90.6023 193.865943 
L 91.1706 195.214743 
L 92.3072 195.541725 
L 92.8755 197.54449 
L 94.0121 197.217508 
L 95.1487 198.21889 
L 95.717 198.21889 
L 96.8536 198.89329 
" clip-path="url(#p0e179cb3f1)" style="fill: none; stroke: #bcbd22; stroke-width: 1.5; stroke-linecap: square"/>
   </g>
   <g id="line2d_29">
    <path d="M 44.57 246.04 
L 45.1383 237.579342 
L 45.7066 233.635122 
L 46.2749 226.298465 
L 46.8432 218.961807 
L 47.9798 210.50115 
L 48.5481 202.040492 
L 49.1164 190.759614 
L 50.253 184.546957 
L 51.3896 174.390081 
L 51.9579 165.929423 
L 53.0945 158.040983 
L 53.6628 151.276544 
L 54.7994 143.939887 
L 55.3677 134.334792 
L 55.936 122.502133 
L 57.6409 114.041475 
L 58.7775 107.277036 
L 59.9141 97.671941 
L 61.0507 88.659501 
L 62.1873 80.198843 
L 62.7556 68.345748 
L 62.7556 59.88509 
L 62.7556 49.728213 
L 62.7556 37.875117 
L 64.4605 40.143555 
L 65.5971 49.728213 
L 66.1654 55.368652 
L 69.0069 55.368652 
L 70.7118 61.581309 
L 72.4167 70.593748 
L 74.1216 79.054406 
L 76.9631 76.806405 
L 78.668 73.413968 
L 80.3729 75.110187 
L 81.5095 84.143063 
L 83.2144 92.603721 
L 84.9193 91.47972 
L 86.0559 84.694845 
L 86.6242 75.682405 
L 88.3291 74.558405 
L 88.3291 81.322844 
L 90.6023 85.839282 
L 91.7389 82.446844 
L 94.0121 81.322844 
L 94.0121 89.783502 
L 95.717 97.671941 
L 97.4219 97.671941 
L 99.1268 90.907502 
L 101.4 88.659501 
L 103.1049 93.727721 
L 104.2415 101.616161 
L 106.5147 101.064379 
L 107.6513 97.671941 
L 109.3562 98.795942 
L 109.3562 108.401036 
L 111.0611 112.917474 
L 113.3343 110.097255 
L 116.1758 112.917474 
L 118.449 120.805914 
L 121.2905 122.502133 
L 122.9954 130.390572 
L 125.2686 137.175448 
L 128.6784 138.85123 
L 130.9516 143.939887 
L 132.0882 151.276544 
L 134.9297 152.952327 
L 136.6346 155.772546 
L 138.3395 156.916983 
L 138.9078 165.377641 
L 142.3176 171.569861 
L 144.5908 176.086299 
L 146.864 181.726738 
L 150.2738 187.367177 
L 153.6836 189.063396 
L 158.23 193.007615 
L 161.0715 191.311396 
L 164.4813 187.939395 
L 167.8911 193.579834 
L 169.596 197.524053 
L 171.8692 205.432929 
L 174.1424 209.928931 
L 178.1205 211.62515 
L 183.2352 216.141588 
L 186.0767 221.782027 
L 190.6231 228.546466 
L 193.4646 233.635122 
L 196.3061 233.062904 
L 198.011 230.814903 
L 201.9891 230.814903 
L 205.9672 235.883123 
L 209.377 235.883123 
L 212.2185 235.883123 
L 215.06 237.007124 
L 217.9015 239.827343 
L 220.743 241.523562 
L 223.5845 241.523562 
L 225.8577 238.151561 
L 228.6992 237.007124 
L 230.9724 238.703343 
L 233.2456 240.97178 
L 238.3603 243.791999 
L 242.3384 242.09578 
" clip-path="url(#p0e179cb3f1)" style="fill: none; stroke: #17becf; stroke-width: 1.5; stroke-linecap: square"/>
   </g>
   <g id="line2d_30">
    <path d="M 44.57 246.04 
L 47.4115 239.214252 
L 51.9579 230.467485 
L 51.9579 224.009591 
L 53.0945 214.527115 
L 55.936 205.024202 
L 57.6409 196.297871 
L 59.3458 186.038813 
L 58.7775 176.924191 
L 60.4824 167.441714 
L 61.619 157.55051 
L 67.302 149.212471 
L 79.2363 146.167451 
L 98.5585 146.923597 
L 115.6075 146.555742 
L 129.2467 146.555742 
L 148.0006 146.923597 
L 171.3009 148.068034 
L 189.4865 148.068034 
L 205.3989 150.336471 
L 220.1747 154.525927 
L 238.3603 160.59553 
L 251.9995 168.565715 
L 258.8191 176.168045 
L 266.7753 184.894376 
L 275.2998 194.397289 
L 286.6658 195.153434 
L 289.5073 200.099036 
L 297.4635 207.68093 
L 302.0099 214.894969 
L 311.671 215.651115 
L 314.5125 209.969804 
L 314.5125 205.412493 
L 319.0589 201.611328 
L 329.8566 201.611328 
L 337.8128 208.437076 
L 351.452 214.138824 
L 359.9765 220.208426 
L 379.2987 224.009591 
L 399.1892 227.054611 
L 411.6918 232.368067 
L 424.7627 238.43767 
L 433 244.246828 
" clip-path="url(#p0e179cb3f1)" style="fill: none; stroke: #7f7f7f; stroke-width: 1.5; stroke-linecap: square"/>
   </g>
   <g id="line2d_31">
    <path d="M 44.57 246.04 
L 53.0945 241.482689 
L 63.8922 236.210105 
L 73.5533 231.652794 
L 75.8265 219.717953 
L 77.5314 205.351184 
L 78.668 188.859032 
L 83.7827 160.799893 
L 91.7389 125.015806 
L 105.3781 140.792685 
L 112.1977 157.632256 
L 117.3124 172.36688 
L 122.9954 182.891611 
L 140.6127 191.311396 
L 160.5032 198.688927 
L 176.4156 206.393439 
L 190.0548 213.055696 
L 198.5793 219.370535 
L 211.6502 222.538172 
L 221.3113 215.875915 
L 226.426 207.108712 
L 228.1309 196.58398 
L 234.3822 186.406667 
L 250.8629 189.553868 
L 275.8681 193.416343 
L 296.3269 194.111179 
L 312.2393 195.521289 
L 327.0151 197.278817 
L 345.769 197.973654 
L 363.3863 200.0786 
L 375.8889 204.288493 
L 390.6647 210.255913 
L 408.282 216.223334 
L 423.0578 221.822899 
L 433 224.751214 
" clip-path="url(#p0e179cb3f1)" style="fill: none; stroke-dasharray: 5.55,2.4; stroke-dashoffset: 0; stroke: #1f77b4; stroke-width: 1.5"/>
   </g>
   <g id="line2d_32">
    <path d="M 45.287479 221.013809 
L 46.708229 207.126531 
L 48.128979 219.419785 
L 49.549729 227.581393 
L 50.970479 229.851434 
L 52.391229 149.578407 
L 53.811979 65.181211 
L 55.232729 22.00969 
L 56.653479 46.130726 
L 58.074229 68.226545 
L 59.494979 66.427388 
L 60.915729 47.432125 
L 62.336479 35.894308 
L 63.757229 30.675108 
L 65.177979 29.580979 
L 66.598729 34.607889 
L 68.019479 38.395929 
L 69.440229 38.440991 
L 70.860979 33.689677 
L 72.281729 54.40051 
L 73.702479 37.897185 
L 75.123229 34.552633 
L 76.543979 35.985854 
L 77.964729 37.598025 
L 79.385479 30.358659 
L 80.806229 39.823446 
L 82.226979 52.628229 
L 83.647729 34.446664 
L 85.068479 35.82219 
L 86.489229 45.932275 
L 87.909979 55.437279 
L 89.330729 45.92045 
L 90.751479 46.604409 
L 92.172229 38.43477 
L 93.592979 38.911676 
L 95.013729 31.368804 
L 96.434479 36.282565 
L 97.855229 39.26338 
L 99.275979 39.335364 
L 100.696729 42.780351 
L 102.117479 45.737723 
L 103.538229 45.033595 
L 104.958979 45.954211 
L 106.379729 39.265119 
L 107.800479 49.530429 
L 109.221229 44.516183 
L 110.641979 41.003656 
L 112.062729 55.517729 
L 113.483479 66.293799 
L 114.904229 111.883406 
L 116.324979 178.361397 
L 117.745729 205.596273 
L 119.166479 212.783156 
L 120.587229 236.915024 
L 122.007979 241.632934 
L 123.428729 225.969951 
L 124.849479 230.592133 
L 126.270229 230.919296 
L 127.690979 212.769263 
" clip-path="url(#p0e179cb3f1)" style="fill: none; stroke-dasharray: 5.55,2.4; stroke-dashoffset: 0; stroke: #ff7f0e; stroke-width: 1.5"/>
   </g>
   <g id="patch_3">
    <path d="M 44.57 246.04 
L 44.57 10.8 
" style="fill: none; stroke: #000000; stroke-width: 0.8; stroke-linejoin: miter; stroke-linecap: square"/>
   </g>
   <g id="patch_4">
    <path d="M 328.72 246.04 
L 328.72 10.8 
" style="fill: none; stroke: #000000; stroke-width: 0.8; stroke-linejoin: miter; stroke-linecap: square"/>
   </g>
   <g id="patch_5">
    <path d="M 44.57 246.04 
L 328.72 246.04 
" style="fill: none; stroke: #000000; stroke-width: 0.8; stroke-linejoin: miter; stroke-linecap: square"/>
   </g>
   <g id="patch_6">
    <path d="M 44.57 10.8 
L 328.72 10.8 
" style="fill: none; stroke: #000000; stroke-width: 0.8; stroke-linejoin: miter; stroke-linecap: square"/>
   </g>
   <g id="legend_1">
    <g id="patch_7">
     <path d="M 335.72 188.6325 
L 419.209062 188.6325 
Q 421.209062 188.6325 421.209062 186.6325 
L 421.209062 70.2075 
Q 421.209062 68.2075 419.209062 68.2075 
L 335.72 68.2075 
Q 333.72 68.2075 333.72 70.2075 
L 333.72 186.6325 
Q 333.72 188.6325 335.72 188.6325 
z
" style="fill: #ffffff; opacity: 0.8; stroke: #cccccc; stroke-linejoin: miter"/>
    </g>
    <g id="line2d_33">
     <path d="M 337.72 76.305938 
L 347.72 76.305938 
L 357.72 76.305938 
" style="fill: none; stroke: #1f77b4; stroke-width: 1.5; stroke-linecap: square"/>
    </g>
    <g id="text_15">
     <!-- Feinstein -->
     <g transform="translate(365.72 79.805938) scale(0.1 -0.1)">
      <defs>
       <path id="DejaVuSans-6e" d="M 3513 2113 
L 3513 0 
L 2938 0 
L 2938 2094 
Q 2938 2591 2744 2837 
Q 2550 3084 2163 3084 
Q 1697 3084 1428 2787 
Q 1159 2491 1159 1978 
L 1159 0 
L 581 0 
L 581 3500 
L 1159 3500 
L 1159 2956 
Q 1366 3272 1645 3428 
Q 1925 3584 2291 3584 
Q 2894 3584 3203 3211 
Q 3513 2838 3513 2113 
z
" transform="scale(0.015625)"/>
      </defs>
      <use xlink:href="#DejaVuSans-46"/>
      <use xlink:href="#DejaVuSans-65" transform="translate(52.019531 0)"/>
      <use xlink:href="#DejaVuSans-69" transform="translate(113.542969 0)"/>
      <use xlink:href="#DejaVuSans-6e" transform="translate(141.326172 0)"/>
      <use xlink:href="#DejaVuSans-73" transform="translate(204.705078 0)"/>
      <use xlink:href="#DejaVuSans-74" transform="translate(256.804688 0)"/>
      <use xlink:href="#DejaVuSans-65" transform="translate(296.013672 0)"/>
      <use xlink:href="#DejaVuSans-69" transform="translate(357.537109 0)"/>
      <use xlink:href="#DejaVuSans-6e" transform="translate(385.320312 0)"/>
     </g>
    </g>
    <g id="line2d_34">
     <path d="M 337.72 90.984063 
L 347.72 90.984063 
L 357.72 90.984063 
" style="fill: none; stroke: #ff7f0e; stroke-width: 1.5; stroke-linecap: square"/>
    </g>
    <g id="text_16">
     <!-- Gupta -->
     <g transform="translate(365.72 94.484063) scale(0.1 -0.1)">
      <defs>
       <path id="DejaVuSans-47" d="M 3809 666 
L 3809 1919 
L 2778 1919 
L 2778 2438 
L 4434 2438 
L 4434 434 
Q 4069 175 3628 42 
Q 3188 -91 2688 -91 
Q 1594 -91 976 548 
Q 359 1188 359 2328 
Q 359 3472 976 4111 
Q 1594 4750 2688 4750 
Q 3144 4750 3555 4637 
Q 3966 4525 4313 4306 
L 4313 3634 
Q 3963 3931 3569 4081 
Q 3175 4231 2741 4231 
Q 1884 4231 1454 3753 
Q 1025 3275 1025 2328 
Q 1025 1384 1454 906 
Q 1884 428 2741 428 
Q 3075 428 3337 486 
Q 3600 544 3809 666 
z
" transform="scale(0.015625)"/>
       <path id="DejaVuSans-75" d="M 544 1381 
L 544 3500 
L 1119 3500 
L 1119 1403 
Q 1119 906 1312 657 
Q 1506 409 1894 409 
Q 2359 409 2629 706 
Q 2900 1003 2900 1516 
L 2900 3500 
L 3475 3500 
L 3475 0 
L 2900 0 
L 2900 538 
Q 2691 219 2414 64 
Q 2138 -91 1772 -91 
Q 1169 -91 856 284 
Q 544 659 544 1381 
z
M 1991 3584 
L 1991 3584 
z
" transform="scale(0.015625)"/>
       <path id="DejaVuSans-70" d="M 1159 525 
L 1159 -1331 
L 581 -1331 
L 581 3500 
L 1159 3500 
L 1159 2969 
Q 1341 3281 1617 3432 
Q 1894 3584 2278 3584 
Q 2916 3584 3314 3078 
Q 3713 2572 3713 1747 
Q 3713 922 3314 415 
Q 2916 -91 2278 -91 
Q 1894 -91 1617 61 
Q 1341 213 1159 525 
z
M 3116 1747 
Q 3116 2381 2855 2742 
Q 2594 3103 2138 3103 
Q 1681 3103 1420 2742 
Q 1159 2381 1159 1747 
Q 1159 1113 1420 752 
Q 1681 391 2138 391 
Q 2594 391 2855 752 
Q 3116 1113 3116 1747 
z
" transform="scale(0.015625)"/>
      </defs>
      <use xlink:href="#DejaVuSans-47"/>
      <use xlink:href="#DejaVuSans-75" transform="translate(77.490234 0)"/>
      <use xlink:href="#DejaVuSans-70" transform="translate(140.869141 0)"/>
      <use xlink:href="#DejaVuSans-74" transform="translate(204.345703 0)"/>
      <use xlink:href="#DejaVuSans-61" transform="translate(243.554688 0)"/>
     </g>
    </g>
    <g id="line2d_35">
     <path d="M 337.72 105.662188 
L 347.72 105.662188 
L 357.72 105.662188 
" style="fill: none; stroke: #d62728; stroke-width: 1.5; stroke-linecap: square"/>
    </g>
    <g id="text_17">
     <!-- King -->
     <g transform="translate(365.72 109.162188) scale(0.1 -0.1)">
      <defs>
       <path id="DejaVuSans-4b" d="M 628 4666 
L 1259 4666 
L 1259 2694 
L 3353 4666 
L 4166 4666 
L 1850 2491 
L 4331 0 
L 3500 0 
L 1259 2247 
L 1259 0 
L 628 0 
L 628 4666 
z
" transform="scale(0.015625)"/>
       <path id="DejaVuSans-67" d="M 2906 1791 
Q 2906 2416 2648 2759 
Q 2391 3103 1925 3103 
Q 1463 3103 1205 2759 
Q 947 2416 947 1791 
Q 947 1169 1205 825 
Q 1463 481 1925 481 
Q 2391 481 2648 825 
Q 2906 1169 2906 1791 
z
M 3481 434 
Q 3481 -459 3084 -895 
Q 2688 -1331 1869 -1331 
Q 1566 -1331 1297 -1286 
Q 1028 -1241 775 -1147 
L 775 -588 
Q 1028 -725 1275 -790 
Q 1522 -856 1778 -856 
Q 2344 -856 2625 -561 
Q 2906 -266 2906 331 
L 2906 616 
Q 2728 306 2450 153 
Q 2172 0 1784 0 
Q 1141 0 747 490 
Q 353 981 353 1791 
Q 353 2603 747 3093 
Q 1141 3584 1784 3584 
Q 2172 3584 2450 3431 
Q 2728 3278 2906 2969 
L 2906 3500 
L 3481 3500 
L 3481 434 
z
" transform="scale(0.015625)"/>
      </defs>
      <use xlink:href="#DejaVuSans-4b"/>
      <use xlink:href="#DejaVuSans-69" transform="translate(65.576172 0)"/>
      <use xlink:href="#DejaVuSans-6e" transform="translate(93.359375 0)"/>
      <use xlink:href="#DejaVuSans-67" transform="translate(156.738281 0)"/>
     </g>
    </g>
    <g id="line2d_36">
     <path d="M 337.72 120.340313 
L 347.72 120.340313 
L 357.72 120.340313 
" style="fill: none; stroke: #bcbd22; stroke-width: 1.5; stroke-linecap: square"/>
    </g>
    <g id="text_18">
     <!-- Knudson -->
     <g transform="translate(365.72 123.840313) scale(0.1 -0.1)">
      <defs>
       <path id="DejaVuSans-64" d="M 2906 2969 
L 2906 4863 
L 3481 4863 
L 3481 0 
L 2906 0 
L 2906 525 
Q 2725 213 2448 61 
Q 2172 -91 1784 -91 
Q 1150 -91 751 415 
Q 353 922 353 1747 
Q 353 2572 751 3078 
Q 1150 3584 1784 3584 
Q 2172 3584 2448 3432 
Q 2725 3281 2906 2969 
z
M 947 1747 
Q 947 1113 1208 752 
Q 1469 391 1925 391 
Q 2381 391 2643 752 
Q 2906 1113 2906 1747 
Q 2906 2381 2643 2742 
Q 2381 3103 1925 3103 
Q 1469 3103 1208 2742 
Q 947 2381 947 1747 
z
" transform="scale(0.015625)"/>
      </defs>
      <use xlink:href="#DejaVuSans-4b"/>
      <use xlink:href="#DejaVuSans-6e" transform="translate(65.576172 0)"/>
      <use xlink:href="#DejaVuSans-75" transform="translate(128.955078 0)"/>
      <use xlink:href="#DejaVuSans-64" transform="translate(192.333984 0)"/>
      <use xlink:href="#DejaVuSans-73" transform="translate(255.810547 0)"/>
      <use xlink:href="#DejaVuSans-6f" transform="translate(307.910156 0)"/>
      <use xlink:href="#DejaVuSans-6e" transform="translate(369.091797 0)"/>
     </g>
    </g>
    <g id="line2d_37">
     <path d="M 337.72 135.018438 
L 347.72 135.018438 
L 357.72 135.018438 
" style="fill: none; stroke: #17becf; stroke-width: 1.5; stroke-linecap: square"/>
    </g>
    <g id="text_19">
     <!-- Mahajan -->
     <g transform="translate(365.72 138.518438) scale(0.1 -0.1)">
      <defs>
       <path id="DejaVuSans-4d" d="M 628 4666 
L 1569 4666 
L 2759 1491 
L 3956 4666 
L 4897 4666 
L 4897 0 
L 4281 0 
L 4281 4097 
L 3078 897 
L 2444 897 
L 1241 4097 
L 1241 0 
L 628 0 
L 628 4666 
z
" transform="scale(0.015625)"/>
       <path id="DejaVuSans-68" d="M 3513 2113 
L 3513 0 
L 2938 0 
L 2938 2094 
Q 2938 2591 2744 2837 
Q 2550 3084 2163 3084 
Q 1697 3084 1428 2787 
Q 1159 2491 1159 1978 
L 1159 0 
L 581 0 
L 581 4863 
L 1159 4863 
L 1159 2956 
Q 1366 3272 1645 3428 
Q 1925 3584 2291 3584 
Q 2894 3584 3203 3211 
Q 3513 2838 3513 2113 
z
" transform="scale(0.015625)"/>
       <path id="DejaVuSans-6a" d="M 603 3500 
L 1178 3500 
L 1178 -63 
Q 1178 -731 923 -1031 
Q 669 -1331 103 -1331 
L -116 -1331 
L -116 -844 
L 38 -844 
Q 366 -844 484 -692 
Q 603 -541 603 -63 
L 603 3500 
z
M 603 4863 
L 1178 4863 
L 1178 4134 
L 603 4134 
L 603 4863 
z
" transform="scale(0.015625)"/>
      </defs>
      <use xlink:href="#DejaVuSans-4d"/>
      <use xlink:href="#DejaVuSans-61" transform="translate(86.279297 0)"/>
      <use xlink:href="#DejaVuSans-68" transform="translate(147.558594 0)"/>
      <use xlink:href="#DejaVuSans-61" transform="translate(210.9375 0)"/>
      <use xlink:href="#DejaVuSans-6a" transform="translate(272.216797 0)"/>
      <use xlink:href="#DejaVuSans-61" transform="translate(300 0)"/>
      <use xlink:href="#DejaVuSans-6e" transform="translate(361.279297 0)"/>
     </g>
    </g>
    <g id="line2d_38">
     <path d="M 337.72 149.696563 
L 347.72 149.696563 
L 357.72 149.696563 
" style="fill: none; stroke: #7f7f7f; stroke-width: 1.5; stroke-linecap: square"/>
    </g>
    <g id="text_20">
     <!-- Ross -->
     <g transform="translate(365.72 153.196563) scale(0.1 -0.1)">
      <defs>
       <path id="DejaVuSans-52" d="M 2841 2188 
Q 3044 2119 3236 1894 
Q 3428 1669 3622 1275 
L 4263 0 
L 3584 0 
L 2988 1197 
Q 2756 1666 2539 1819 
Q 2322 1972 1947 1972 
L 1259 1972 
L 1259 0 
L 628 0 
L 628 4666 
L 2053 4666 
Q 2853 4666 3247 4331 
Q 3641 3997 3641 3322 
Q 3641 2881 3436 2590 
Q 3231 2300 2841 2188 
z
M 1259 4147 
L 1259 2491 
L 2053 2491 
Q 2509 2491 2742 2702 
Q 2975 2913 2975 3322 
Q 2975 3731 2742 3939 
Q 2509 4147 2053 4147 
L 1259 4147 
z
" transform="scale(0.015625)"/>
      </defs>
      <use xlink:href="#DejaVuSans-52"/>
      <use xlink:href="#DejaVuSans-6f" transform="translate(64.982422 0)"/>
      <use xlink:href="#DejaVuSans-73" transform="translate(126.164062 0)"/>
      <use xlink:href="#DejaVuSans-73" transform="translate(178.263672 0)"/>
     </g>
    </g>
    <g id="line2d_39">
     <path d="M 337.72 164.374688 
L 347.72 164.374688 
L 357.72 164.374688 
" style="fill: none; stroke-dasharray: 5.55,2.4; stroke-dashoffset: 0; stroke: #1f77b4; stroke-width: 1.5"/>
    </g>
    <g id="text_21">
     <!-- Smith -->
     <g transform="translate(365.72 167.874688) scale(0.1 -0.1)">
      <defs>
       <path id="DejaVuSans-53" d="M 3425 4513 
L 3425 3897 
Q 3066 4069 2747 4153 
Q 2428 4238 2131 4238 
Q 1616 4238 1336 4038 
Q 1056 3838 1056 3469 
Q 1056 3159 1242 3001 
Q 1428 2844 1947 2747 
L 2328 2669 
Q 3034 2534 3370 2195 
Q 3706 1856 3706 1288 
Q 3706 609 3251 259 
Q 2797 -91 1919 -91 
Q 1588 -91 1214 -16 
Q 841 59 441 206 
L 441 856 
Q 825 641 1194 531 
Q 1563 422 1919 422 
Q 2459 422 2753 634 
Q 3047 847 3047 1241 
Q 3047 1584 2836 1778 
Q 2625 1972 2144 2069 
L 1759 2144 
Q 1053 2284 737 2584 
Q 422 2884 422 3419 
Q 422 4038 858 4394 
Q 1294 4750 2059 4750 
Q 2388 4750 2728 4690 
Q 3069 4631 3425 4513 
z
" transform="scale(0.015625)"/>
      </defs>
      <use xlink:href="#DejaVuSans-53"/>
      <use xlink:href="#DejaVuSans-6d" transform="translate(63.476562 0)"/>
      <use xlink:href="#DejaVuSans-69" transform="translate(160.888672 0)"/>
      <use xlink:href="#DejaVuSans-74" transform="translate(188.671875 0)"/>
      <use xlink:href="#DejaVuSans-68" transform="translate(227.880859 0)"/>
     </g>
    </g>
    <g id="line2d_40">
     <path d="M 337.72 179.052813 
L 347.72 179.052813 
L 357.72 179.052813 
" style="fill: none; stroke-dasharray: 5.55,2.4; stroke-dashoffset: 0; stroke: #ff7f0e; stroke-width: 1.5"/>
    </g>
    <g id="text_22">
     <!-- PIV 1.5bar -->
     <g transform="translate(365.72 182.552813) scale(0.1 -0.1)">
      <defs>
       <path id="DejaVuSans-50" d="M 1259 4147 
L 1259 2394 
L 2053 2394 
Q 2494 2394 2734 2622 
Q 2975 2850 2975 3272 
Q 2975 3691 2734 3919 
Q 2494 4147 2053 4147 
L 1259 4147 
z
M 628 4666 
L 2053 4666 
Q 2838 4666 3239 4311 
Q 3641 3956 3641 3272 
Q 3641 2581 3239 2228 
Q 2838 1875 2053 1875 
L 1259 1875 
L 1259 0 
L 628 0 
L 628 4666 
z
" transform="scale(0.015625)"/>
       <path id="DejaVuSans-49" d="M 628 4666 
L 1259 4666 
L 1259 0 
L 628 0 
L 628 4666 
z
" transform="scale(0.015625)"/>
       <path id="DejaVuSans-56" d="M 1831 0 
L 50 4666 
L 709 4666 
L 2188 738 
L 3669 4666 
L 4325 4666 
L 2547 0 
L 1831 0 
z
" transform="scale(0.015625)"/>
       <path id="DejaVuSans-62" d="M 3116 1747 
Q 3116 2381 2855 2742 
Q 2594 3103 2138 3103 
Q 1681 3103 1420 2742 
Q 1159 2381 1159 1747 
Q 1159 1113 1420 752 
Q 1681 391 2138 391 
Q 2594 391 2855 752 
Q 3116 1113 3116 1747 
z
M 1159 2969 
Q 1341 3281 1617 3432 
Q 1894 3584 2278 3584 
Q 2916 3584 3314 3078 
Q 3713 2572 3713 1747 
Q 3713 922 3314 415 
Q 2916 -91 2278 -91 
Q 1894 -91 1617 61 
Q 1341 213 1159 525 
L 1159 0 
L 581 0 
L 581 4863 
L 1159 4863 
L 1159 2969 
z
" transform="scale(0.015625)"/>
      </defs>
      <use xlink:href="#DejaVuSans-50"/>
      <use xlink:href="#DejaVuSans-49" transform="translate(60.302734 0)"/>
      <use xlink:href="#DejaVuSans-56" transform="translate(89.794922 0)"/>
      <use xlink:href="#DejaVuSans-20" transform="translate(158.203125 0)"/>
      <use xlink:href="#DejaVuSans-31" transform="translate(189.990234 0)"/>
      <use xlink:href="#DejaVuSans-2e" transform="translate(253.613281 0)"/>
      <use xlink:href="#DejaVuSans-35" transform="translate(285.400391 0)"/>
      <use xlink:href="#DejaVuSans-62" transform="translate(349.023438 0)"/>
      <use xlink:href="#DejaVuSans-61" transform="translate(412.5 0)"/>
      <use xlink:href="#DejaVuSans-72" transform="translate(473.779297 0)"/>
     </g>
    </g>
   </g>
  </g>
 </g>
 <defs>
  <clipPath id="p0e179cb3f1">
   <rect x="44.57" y="10.8" width="284.15" height="235.24"/>
  </clipPath>
 </defs>
</svg>
