<?xml version="1.0" encoding="utf-8" standalone="no"?>
<!DOCTYPE svg PUBLIC "-//W3C//DTD SVG 1.1//EN"
  "http://www.w3.org/Graphics/SVG/1.1/DTD/svg11.dtd">
<svg xmlns:xlink="http://www.w3.org/1999/xlink" width="432pt" height="288pt" viewBox="0 0 432 288" xmlns="http://www.w3.org/2000/svg" version="1.1">
 <metadata>
  <rdf:RDF xmlns:dc="http://purl.org/dc/elements/1.1/" xmlns:cc="http://creativecommons.org/ns#" xmlns:rdf="http://www.w3.org/1999/02/22-rdf-syntax-ns#">
   <cc:Work>
    <dc:type rdf:resource="http://purl.org/dc/dcmitype/StillImage"/>
    <dc:date>2025-09-28T13:23:10.964790</dc:date>
    <dc:format>image/svg+xml</dc:format>
    <dc:creator>
     <cc:Agent>
      <dc:title>Matplotlib v3.10.0, https://matplotlib.org/</dc:title>
     </cc:Agent>
    </dc:creator>
   </cc:Work>
  </rdf:RDF>
 </metadata>
 <defs>
  <style type="text/css">*{stroke-linejoin: round; stroke-linecap: butt}</style>
 </defs>
 <g id="figure_1">
  <g id="patch_1">
   <path d="M 0 288 
L 432 288 
L 432 0 
L 0 0 
z
" style="fill: #ffffff"/>
  </g>
  <g id="axes_1">
   <g id="patch_2">
    <path d="M 44.57 246.04 
L 335.47 246.04 
L 335.47 10.8 
L 44.57 10.8 
z
" style="fill: #ffffff"/>
   </g>
   <g id="matplotlib.axis_1">
    <g id="xtick_1">
     <g id="line2d_1">
      <path d="M 44.57 246.04 
L 44.57 10.8 
" clip-path="url(#p77d30489fe)" style="fill: none; stroke: #b0b0b0; stroke-width: 0.8; stroke-linecap: square"/>
     </g>
     <g id="line2d_2">
      <defs>
       <path id="m7e78fb0916" d="M 0 0 
L 0 3.5 
" style="stroke: #000000; stroke-width: 0.8"/>
      </defs>
      <g>
       <use xlink:href="#m7e78fb0916" x="44.57" y="246.04" style="stroke: #000000; stroke-width: 0.8"/>
      </g>
     </g>
     <g id="text_1">
      <!-- 0.0 -->
      <g transform="translate(36.618438 260.638438) scale(0.1 -0.1)">
       <defs>
        <path id="DejaVuSans-30" d="M 2034 4250 
Q 1547 4250 1301 3770 
Q 1056 3291 1056 2328 
Q 1056 1369 1301 889 
Q 1547 409 2034 409 
Q 2525 409 2770 889 
Q 3016 1369 3016 2328 
Q 3016 3291 2770 3770 
Q 2525 4250 2034 4250 
z
M 2034 4750 
Q 2819 4750 3233 4129 
Q 3647 3509 3647 2328 
Q 3647 1150 3233 529 
Q 2819 -91 2034 -91 
Q 1250 -91 836 529 
Q 422 1150 422 2328 
Q 422 3509 836 4129 
Q 1250 4750 2034 4750 
z
" transform="scale(0.015625)"/>
        <path id="DejaVuSans-2e" d="M 684 794 
L 1344 794 
L 1344 0 
L 684 0 
L 684 794 
z
" transform="scale(0.015625)"/>
       </defs>
       <use xlink:href="#DejaVuSans-30"/>
       <use xlink:href="#DejaVuSans-2e" transform="translate(63.623047 0)"/>
       <use xlink:href="#DejaVuSans-30" transform="translate(95.410156 0)"/>
      </g>
     </g>
    </g>
    <g id="xtick_2">
     <g id="line2d_3">
      <path d="M 102.75 246.04 
L 102.75 10.8 
" clip-path="url(#p77d30489fe)" style="fill: none; stroke: #b0b0b0; stroke-width: 0.8; stroke-linecap: square"/>
     </g>
     <g id="line2d_4">
      <g>
       <use xlink:href="#m7e78fb0916" x="102.75" y="246.04" style="stroke: #000000; stroke-width: 0.8"/>
      </g>
     </g>
     <g id="text_2">
      <!-- 0.1 -->
      <g transform="translate(94.798438 260.638438) scale(0.1 -0.1)">
       <defs>
        <path id="DejaVuSans-31" d="M 794 531 
L 1825 531 
L 1825 4091 
L 703 3866 
L 703 4441 
L 1819 4666 
L 2450 4666 
L 2450 531 
L 3481 531 
L 3481 0 
L 794 0 
L 794 531 
z
" transform="scale(0.015625)"/>
       </defs>
       <use xlink:href="#DejaVuSans-30"/>
       <use xlink:href="#DejaVuSans-2e" transform="translate(63.623047 0)"/>
       <use xlink:href="#DejaVuSans-31" transform="translate(95.410156 0)"/>
      </g>
     </g>
    </g>
    <g id="xtick_3">
     <g id="line2d_5">
      <path d="M 160.93 246.04 
L 160.93 10.8 
" clip-path="url(#p77d30489fe)" style="fill: none; stroke: #b0b0b0; stroke-width: 0.8; stroke-linecap: square"/>
     </g>
     <g id="line2d_6">
      <g>
       <use xlink:href="#m7e78fb0916" x="160.93" y="246.04" style="stroke: #000000; stroke-width: 0.8"/>
      </g>
     </g>
     <g id="text_3">
      <!-- 0.2 -->
      <g transform="translate(152.978437 260.638438) scale(0.1 -0.1)">
       <defs>
        <path id="DejaVuSans-32" d="M 1228 531 
L 3431 531 
L 3431 0 
L 469 0 
L 469 531 
Q 828 903 1448 1529 
Q 2069 2156 2228 2338 
Q 2531 2678 2651 2914 
Q 2772 3150 2772 3378 
Q 2772 3750 2511 3984 
Q 2250 4219 1831 4219 
Q 1534 4219 1204 4116 
Q 875 4013 500 3803 
L 500 4441 
Q 881 4594 1212 4672 
Q 1544 4750 1819 4750 
Q 2544 4750 2975 4387 
Q 3406 4025 3406 3419 
Q 3406 3131 3298 2873 
Q 3191 2616 2906 2266 
Q 2828 2175 2409 1742 
Q 1991 1309 1228 531 
z
" transform="scale(0.015625)"/>
       </defs>
       <use xlink:href="#DejaVuSans-30"/>
       <use xlink:href="#DejaVuSans-2e" transform="translate(63.623047 0)"/>
       <use xlink:href="#DejaVuSans-32" transform="translate(95.410156 0)"/>
      </g>
     </g>
    </g>
    <g id="xtick_4">
     <g id="line2d_7">
      <path d="M 219.11 246.04 
L 219.11 10.8 
" clip-path="url(#p77d30489fe)" style="fill: none; stroke: #b0b0b0; stroke-width: 0.8; stroke-linecap: square"/>
     </g>
     <g id="line2d_8">
      <g>
       <use xlink:href="#m7e78fb0916" x="219.11" y="246.04" style="stroke: #000000; stroke-width: 0.8"/>
      </g>
     </g>
     <g id="text_4">
      <!-- 0.3 -->
      <g transform="translate(211.158438 260.638438) scale(0.1 -0.1)">
       <defs>
        <path id="DejaVuSans-33" d="M 2597 2516 
Q 3050 2419 3304 2112 
Q 3559 1806 3559 1356 
Q 3559 666 3084 287 
Q 2609 -91 1734 -91 
Q 1441 -91 1130 -33 
Q 819 25 488 141 
L 488 750 
Q 750 597 1062 519 
Q 1375 441 1716 441 
Q 2309 441 2620 675 
Q 2931 909 2931 1356 
Q 2931 1769 2642 2001 
Q 2353 2234 1838 2234 
L 1294 2234 
L 1294 2753 
L 1863 2753 
Q 2328 2753 2575 2939 
Q 2822 3125 2822 3475 
Q 2822 3834 2567 4026 
Q 2313 4219 1838 4219 
Q 1578 4219 1281 4162 
Q 984 4106 628 3988 
L 628 4550 
Q 988 4650 1302 4700 
Q 1616 4750 1894 4750 
Q 2613 4750 3031 4423 
Q 3450 4097 3450 3541 
Q 3450 3153 3228 2886 
Q 3006 2619 2597 2516 
z
" transform="scale(0.015625)"/>
       </defs>
       <use xlink:href="#DejaVuSans-30"/>
       <use xlink:href="#DejaVuSans-2e" transform="translate(63.623047 0)"/>
       <use xlink:href="#DejaVuSans-33" transform="translate(95.410156 0)"/>
      </g>
     </g>
    </g>
    <g id="xtick_5">
     <g id="line2d_9">
      <path d="M 277.29 246.04 
L 277.29 10.8 
" clip-path="url(#p77d30489fe)" style="fill: none; stroke: #b0b0b0; stroke-width: 0.8; stroke-linecap: square"/>
     </g>
     <g id="line2d_10">
      <g>
       <use xlink:href="#m7e78fb0916" x="277.29" y="246.04" style="stroke: #000000; stroke-width: 0.8"/>
      </g>
     </g>
     <g id="text_5">
      <!-- 0.4 -->
      <g transform="translate(269.338437 260.638438) scale(0.1 -0.1)">
       <defs>
        <path id="DejaVuSans-34" d="M 2419 4116 
L 825 1625 
L 2419 1625 
L 2419 4116 
z
M 2253 4666 
L 3047 4666 
L 3047 1625 
L 3713 1625 
L 3713 1100 
L 3047 1100 
L 3047 0 
L 2419 0 
L 2419 1100 
L 313 1100 
L 313 1709 
L 2253 4666 
z
" transform="scale(0.015625)"/>
       </defs>
       <use xlink:href="#DejaVuSans-30"/>
       <use xlink:href="#DejaVuSans-2e" transform="translate(63.623047 0)"/>
       <use xlink:href="#DejaVuSans-34" transform="translate(95.410156 0)"/>
      </g>
     </g>
    </g>
    <g id="xtick_6">
     <g id="line2d_11">
      <path d="M 335.47 246.04 
L 335.47 10.8 
" clip-path="url(#p77d30489fe)" style="fill: none; stroke: #b0b0b0; stroke-width: 0.8; stroke-linecap: square"/>
     </g>
     <g id="line2d_12">
      <g>
       <use xlink:href="#m7e78fb0916" x="335.47" y="246.04" style="stroke: #000000; stroke-width: 0.8"/>
      </g>
     </g>
     <g id="text_6">
      <!-- 0.5 -->
      <g transform="translate(327.518437 260.638438) scale(0.1 -0.1)">
       <defs>
        <path id="DejaVuSans-35" d="M 691 4666 
L 3169 4666 
L 3169 4134 
L 1269 4134 
L 1269 2991 
Q 1406 3038 1543 3061 
Q 1681 3084 1819 3084 
Q 2600 3084 3056 2656 
Q 3513 2228 3513 1497 
Q 3513 744 3044 326 
Q 2575 -91 1722 -91 
Q 1428 -91 1123 -41 
Q 819 9 494 109 
L 494 744 
Q 775 591 1075 516 
Q 1375 441 1709 441 
Q 2250 441 2565 725 
Q 2881 1009 2881 1497 
Q 2881 1984 2565 2268 
Q 2250 2553 1709 2553 
Q 1456 2553 1204 2497 
Q 953 2441 691 2322 
L 691 4666 
z
" transform="scale(0.015625)"/>
       </defs>
       <use xlink:href="#DejaVuSans-30"/>
       <use xlink:href="#DejaVuSans-2e" transform="translate(63.623047 0)"/>
       <use xlink:href="#DejaVuSans-35" transform="translate(95.410156 0)"/>
      </g>
     </g>
    </g>
    <g id="text_7">
     <!-- Time (s) -->
     <g transform="translate(169.691094 274.316562) scale(0.1 -0.1)">
      <defs>
       <path id="DejaVuSans-54" d="M -19 4666 
L 3928 4666 
L 3928 4134 
L 2272 4134 
L 2272 0 
L 1638 0 
L 1638 4134 
L -19 4134 
L -19 4666 
z
" transform="scale(0.015625)"/>
       <path id="DejaVuSans-69" d="M 603 3500 
L 1178 3500 
L 1178 0 
L 603 0 
L 603 3500 
z
M 603 4863 
L 1178 4863 
L 1178 4134 
L 603 4134 
L 603 4863 
z
" transform="scale(0.015625)"/>
       <path id="DejaVuSans-6d" d="M 3328 2828 
Q 3544 3216 3844 3400 
Q 4144 3584 4550 3584 
Q 5097 3584 5394 3201 
Q 5691 2819 5691 2113 
L 5691 0 
L 5113 0 
L 5113 2094 
Q 5113 2597 4934 2840 
Q 4756 3084 4391 3084 
Q 3944 3084 3684 2787 
Q 3425 2491 3425 1978 
L 3425 0 
L 2847 0 
L 2847 2094 
Q 2847 2600 2669 2842 
Q 2491 3084 2119 3084 
Q 1678 3084 1418 2786 
Q 1159 2488 1159 1978 
L 1159 0 
L 581 0 
L 581 3500 
L 1159 3500 
L 1159 2956 
Q 1356 3278 1631 3431 
Q 1906 3584 2284 3584 
Q 2666 3584 2933 3390 
Q 3200 3197 3328 2828 
z
" transform="scale(0.015625)"/>
       <path id="DejaVuSans-65" d="M 3597 1894 
L 3597 1613 
L 953 1613 
Q 991 1019 1311 708 
Q 1631 397 2203 397 
Q 2534 397 2845 478 
Q 3156 559 3463 722 
L 3463 178 
Q 3153 47 2828 -22 
Q 2503 -91 2169 -91 
Q 1331 -91 842 396 
Q 353 884 353 1716 
Q 353 2575 817 3079 
Q 1281 3584 2069 3584 
Q 2775 3584 3186 3129 
Q 3597 2675 3597 1894 
z
M 3022 2063 
Q 3016 2534 2758 2815 
Q 2500 3097 2075 3097 
Q 1594 3097 1305 2825 
Q 1016 2553 972 2059 
L 3022 2063 
z
" transform="scale(0.015625)"/>
       <path id="DejaVuSans-20" transform="scale(0.015625)"/>
       <path id="DejaVuSans-28" d="M 1984 4856 
Q 1566 4138 1362 3434 
Q 1159 2731 1159 2009 
Q 1159 1288 1364 580 
Q 1569 -128 1984 -844 
L 1484 -844 
Q 1016 -109 783 600 
Q 550 1309 550 2009 
Q 550 2706 781 3412 
Q 1013 4119 1484 4856 
L 1984 4856 
z
" transform="scale(0.015625)"/>
       <path id="DejaVuSans-73" d="M 2834 3397 
L 2834 2853 
Q 2591 2978 2328 3040 
Q 2066 3103 1784 3103 
Q 1356 3103 1142 2972 
Q 928 2841 928 2578 
Q 928 2378 1081 2264 
Q 1234 2150 1697 2047 
L 1894 2003 
Q 2506 1872 2764 1633 
Q 3022 1394 3022 966 
Q 3022 478 2636 193 
Q 2250 -91 1575 -91 
Q 1294 -91 989 -36 
Q 684 19 347 128 
L 347 722 
Q 666 556 975 473 
Q 1284 391 1588 391 
Q 1994 391 2212 530 
Q 2431 669 2431 922 
Q 2431 1156 2273 1281 
Q 2116 1406 1581 1522 
L 1381 1569 
Q 847 1681 609 1914 
Q 372 2147 372 2553 
Q 372 3047 722 3315 
Q 1072 3584 1716 3584 
Q 2034 3584 2315 3537 
Q 2597 3491 2834 3397 
z
" transform="scale(0.015625)"/>
       <path id="DejaVuSans-29" d="M 513 4856 
L 1013 4856 
Q 1481 4119 1714 3412 
Q 1947 2706 1947 2009 
Q 1947 1309 1714 600 
Q 1481 -109 1013 -844 
L 513 -844 
Q 928 -128 1133 580 
Q 1338 1288 1338 2009 
Q 1338 2731 1133 3434 
Q 928 4138 513 4856 
z
" transform="scale(0.015625)"/>
      </defs>
      <use xlink:href="#DejaVuSans-54"/>
      <use xlink:href="#DejaVuSans-69" transform="translate(57.958984 0)"/>
      <use xlink:href="#DejaVuSans-6d" transform="translate(85.742188 0)"/>
      <use xlink:href="#DejaVuSans-65" transform="translate(183.154297 0)"/>
      <use xlink:href="#DejaVuSans-20" transform="translate(244.677734 0)"/>
      <use xlink:href="#DejaVuSans-28" transform="translate(276.464844 0)"/>
      <use xlink:href="#DejaVuSans-73" transform="translate(315.478516 0)"/>
      <use xlink:href="#DejaVuSans-29" transform="translate(367.578125 0)"/>
     </g>
    </g>
   </g>
   <g id="matplotlib.axis_2">
    <g id="ytick_1">
     <g id="line2d_13">
      <path d="M 44.57 246.04 
L 335.47 246.04 
" clip-path="url(#p77d30489fe)" style="fill: none; stroke: #b0b0b0; stroke-width: 0.8; stroke-linecap: square"/>
     </g>
     <g id="line2d_14">
      <defs>
       <path id="m2ca95b3b80" d="M 0 0 
L -3.5 0 
" style="stroke: #000000; stroke-width: 0.8"/>
      </defs>
      <g>
       <use xlink:href="#m2ca95b3b80" x="44.57" y="246.04" style="stroke: #000000; stroke-width: 0.8"/>
      </g>
     </g>
     <g id="text_8">
      <!-- 0 -->
      <g transform="translate(31.2075 249.839219) scale(0.1 -0.1)">
       <use xlink:href="#DejaVuSans-30"/>
      </g>
     </g>
    </g>
    <g id="ytick_2">
     <g id="line2d_15">
      <path d="M 44.57 202.052229 
L 335.47 202.052229 
" clip-path="url(#p77d30489fe)" style="fill: none; stroke: #b0b0b0; stroke-width: 0.8; stroke-linecap: square"/>
     </g>
     <g id="line2d_16">
      <g>
       <use xlink:href="#m2ca95b3b80" x="44.57" y="202.052229" style="stroke: #000000; stroke-width: 0.8"/>
      </g>
     </g>
     <g id="text_9">
      <!-- 2 -->
      <g transform="translate(31.2075 205.851448) scale(0.1 -0.1)">
       <use xlink:href="#DejaVuSans-32"/>
      </g>
     </g>
    </g>
    <g id="ytick_3">
     <g id="line2d_17">
      <path d="M 44.57 158.064458 
L 335.47 158.064458 
" clip-path="url(#p77d30489fe)" style="fill: none; stroke: #b0b0b0; stroke-width: 0.8; stroke-linecap: square"/>
     </g>
     <g id="line2d_18">
      <g>
       <use xlink:href="#m2ca95b3b80" x="44.57" y="158.064458" style="stroke: #000000; stroke-width: 0.8"/>
      </g>
     </g>
     <g id="text_10">
      <!-- 4 -->
      <g transform="translate(31.2075 161.863677) scale(0.1 -0.1)">
       <use xlink:href="#DejaVuSans-34"/>
      </g>
     </g>
    </g>
    <g id="ytick_4">
     <g id="line2d_19">
      <path d="M 44.57 114.076688 
L 335.47 114.076688 
" clip-path="url(#p77d30489fe)" style="fill: none; stroke: #b0b0b0; stroke-width: 0.8; stroke-linecap: square"/>
     </g>
     <g id="line2d_20">
      <g>
       <use xlink:href="#m2ca95b3b80" x="44.57" y="114.076688" style="stroke: #000000; stroke-width: 0.8"/>
      </g>
     </g>
     <g id="text_11">
      <!-- 6 -->
      <g transform="translate(31.2075 117.875906) scale(0.1 -0.1)">
       <defs>
        <path id="DejaVuSans-36" d="M 2113 2584 
Q 1688 2584 1439 2293 
Q 1191 2003 1191 1497 
Q 1191 994 1439 701 
Q 1688 409 2113 409 
Q 2538 409 2786 701 
Q 3034 994 3034 1497 
Q 3034 2003 2786 2293 
Q 2538 2584 2113 2584 
z
M 3366 4563 
L 3366 3988 
Q 3128 4100 2886 4159 
Q 2644 4219 2406 4219 
Q 1781 4219 1451 3797 
Q 1122 3375 1075 2522 
Q 1259 2794 1537 2939 
Q 1816 3084 2150 3084 
Q 2853 3084 3261 2657 
Q 3669 2231 3669 1497 
Q 3669 778 3244 343 
Q 2819 -91 2113 -91 
Q 1303 -91 875 529 
Q 447 1150 447 2328 
Q 447 3434 972 4092 
Q 1497 4750 2381 4750 
Q 2619 4750 2861 4703 
Q 3103 4656 3366 4563 
z
" transform="scale(0.015625)"/>
       </defs>
       <use xlink:href="#DejaVuSans-36"/>
      </g>
     </g>
    </g>
    <g id="ytick_5">
     <g id="line2d_21">
      <path d="M 44.57 70.088917 
L 335.47 70.088917 
" clip-path="url(#p77d30489fe)" style="fill: none; stroke: #b0b0b0; stroke-width: 0.8; stroke-linecap: square"/>
     </g>
     <g id="line2d_22">
      <g>
       <use xlink:href="#m2ca95b3b80" x="44.57" y="70.088917" style="stroke: #000000; stroke-width: 0.8"/>
      </g>
     </g>
     <g id="text_12">
      <!-- 8 -->
      <g transform="translate(31.2075 73.888136) scale(0.1 -0.1)">
       <defs>
        <path id="DejaVuSans-38" d="M 2034 2216 
Q 1584 2216 1326 1975 
Q 1069 1734 1069 1313 
Q 1069 891 1326 650 
Q 1584 409 2034 409 
Q 2484 409 2743 651 
Q 3003 894 3003 1313 
Q 3003 1734 2745 1975 
Q 2488 2216 2034 2216 
z
M 1403 2484 
Q 997 2584 770 2862 
Q 544 3141 544 3541 
Q 544 4100 942 4425 
Q 1341 4750 2034 4750 
Q 2731 4750 3128 4425 
Q 3525 4100 3525 3541 
Q 3525 3141 3298 2862 
Q 3072 2584 2669 2484 
Q 3125 2378 3379 2068 
Q 3634 1759 3634 1313 
Q 3634 634 3220 271 
Q 2806 -91 2034 -91 
Q 1263 -91 848 271 
Q 434 634 434 1313 
Q 434 1759 690 2068 
Q 947 2378 1403 2484 
z
M 1172 3481 
Q 1172 3119 1398 2916 
Q 1625 2713 2034 2713 
Q 2441 2713 2670 2916 
Q 2900 3119 2900 3481 
Q 2900 3844 2670 4047 
Q 2441 4250 2034 4250 
Q 1625 4250 1398 4047 
Q 1172 3844 1172 3481 
z
" transform="scale(0.015625)"/>
       </defs>
       <use xlink:href="#DejaVuSans-38"/>
      </g>
     </g>
    </g>
    <g id="ytick_6">
     <g id="line2d_23">
      <path d="M 44.57 26.101146 
L 335.47 26.101146 
" clip-path="url(#p77d30489fe)" style="fill: none; stroke: #b0b0b0; stroke-width: 0.8; stroke-linecap: square"/>
     </g>
     <g id="line2d_24">
      <g>
       <use xlink:href="#m2ca95b3b80" x="44.57" y="26.101146" style="stroke: #000000; stroke-width: 0.8"/>
      </g>
     </g>
     <g id="text_13">
      <!-- 10 -->
      <g transform="translate(24.845 29.900365) scale(0.1 -0.1)">
       <use xlink:href="#DejaVuSans-31"/>
       <use xlink:href="#DejaVuSans-30" transform="translate(63.623047 0)"/>
      </g>
     </g>
    </g>
    <g id="text_14">
     <!-- Flow rate (L/s) -->
     <g transform="translate(18.765313 164.144219) rotate(-90) scale(0.1 -0.1)">
      <defs>
       <path id="DejaVuSans-46" d="M 628 4666 
L 3309 4666 
L 3309 4134 
L 1259 4134 
L 1259 2759 
L 3109 2759 
L 3109 2228 
L 1259 2228 
L 1259 0 
L 628 0 
L 628 4666 
z
" transform="scale(0.015625)"/>
       <path id="DejaVuSans-6c" d="M 603 4863 
L 1178 4863 
L 1178 0 
L 603 0 
L 603 4863 
z
" transform="scale(0.015625)"/>
       <path id="DejaVuSans-6f" d="M 1959 3097 
Q 1497 3097 1228 2736 
Q 959 2375 959 1747 
Q 959 1119 1226 758 
Q 1494 397 1959 397 
Q 2419 397 2687 759 
Q 2956 1122 2956 1747 
Q 2956 2369 2687 2733 
Q 2419 3097 1959 3097 
z
M 1959 3584 
Q 2709 3584 3137 3096 
Q 3566 2609 3566 1747 
Q 3566 888 3137 398 
Q 2709 -91 1959 -91 
Q 1206 -91 779 398 
Q 353 888 353 1747 
Q 353 2609 779 3096 
Q 1206 3584 1959 3584 
z
" transform="scale(0.015625)"/>
       <path id="DejaVuSans-77" d="M 269 3500 
L 844 3500 
L 1563 769 
L 2278 3500 
L 2956 3500 
L 3675 769 
L 4391 3500 
L 4966 3500 
L 4050 0 
L 3372 0 
L 2619 2869 
L 1863 0 
L 1184 0 
L 269 3500 
z
" transform="scale(0.015625)"/>
       <path id="DejaVuSans-72" d="M 2631 2963 
Q 2534 3019 2420 3045 
Q 2306 3072 2169 3072 
Q 1681 3072 1420 2755 
Q 1159 2438 1159 1844 
L 1159 0 
L 581 0 
L 581 3500 
L 1159 3500 
L 1159 2956 
Q 1341 3275 1631 3429 
Q 1922 3584 2338 3584 
Q 2397 3584 2469 3576 
Q 2541 3569 2628 3553 
L 2631 2963 
z
" transform="scale(0.015625)"/>
       <path id="DejaVuSans-61" d="M 2194 1759 
Q 1497 1759 1228 1600 
Q 959 1441 959 1056 
Q 959 750 1161 570 
Q 1363 391 1709 391 
Q 2188 391 2477 730 
Q 2766 1069 2766 1631 
L 2766 1759 
L 2194 1759 
z
M 3341 1997 
L 3341 0 
L 2766 0 
L 2766 531 
Q 2569 213 2275 61 
Q 1981 -91 1556 -91 
Q 1019 -91 701 211 
Q 384 513 384 1019 
Q 384 1609 779 1909 
Q 1175 2209 1959 2209 
L 2766 2209 
L 2766 2266 
Q 2766 2663 2505 2880 
Q 2244 3097 1772 3097 
Q 1472 3097 1187 3025 
Q 903 2953 641 2809 
L 641 3341 
Q 956 3463 1253 3523 
Q 1550 3584 1831 3584 
Q 2591 3584 2966 3190 
Q 3341 2797 3341 1997 
z
" transform="scale(0.015625)"/>
       <path id="DejaVuSans-74" d="M 1172 4494 
L 1172 3500 
L 2356 3500 
L 2356 3053 
L 1172 3053 
L 1172 1153 
Q 1172 725 1289 603 
Q 1406 481 1766 481 
L 2356 481 
L 2356 0 
L 1766 0 
Q 1100 0 847 248 
Q 594 497 594 1153 
L 594 3053 
L 172 3053 
L 172 3500 
L 594 3500 
L 594 4494 
L 1172 4494 
z
" transform="scale(0.015625)"/>
       <path id="DejaVuSans-4c" d="M 628 4666 
L 1259 4666 
L 1259 531 
L 3531 531 
L 3531 0 
L 628 0 
L 628 4666 
z
" transform="scale(0.015625)"/>
       <path id="DejaVuSans-2f" d="M 1625 4666 
L 2156 4666 
L 531 -594 
L 0 -594 
L 1625 4666 
z
" transform="scale(0.015625)"/>
      </defs>
      <use xlink:href="#DejaVuSans-46"/>
      <use xlink:href="#DejaVuSans-6c" transform="translate(57.519531 0)"/>
      <use xlink:href="#DejaVuSans-6f" transform="translate(85.302734 0)"/>
      <use xlink:href="#DejaVuSans-77" transform="translate(146.484375 0)"/>
      <use xlink:href="#DejaVuSans-20" transform="translate(228.271484 0)"/>
      <use xlink:href="#DejaVuSans-72" transform="translate(260.058594 0)"/>
      <use xlink:href="#DejaVuSans-61" transform="translate(301.171875 0)"/>
      <use xlink:href="#DejaVuSans-74" transform="translate(362.451172 0)"/>
      <use xlink:href="#DejaVuSans-65" transform="translate(401.660156 0)"/>
      <use xlink:href="#DejaVuSans-20" transform="translate(463.183594 0)"/>
      <use xlink:href="#DejaVuSans-28" transform="translate(494.970703 0)"/>
      <use xlink:href="#DejaVuSans-4c" transform="translate(533.984375 0)"/>
      <use xlink:href="#DejaVuSans-2f" transform="translate(589.697266 0)"/>
      <use xlink:href="#DejaVuSans-73" transform="translate(623.388672 0)"/>
      <use xlink:href="#DejaVuSans-29" transform="translate(675.488281 0)"/>
     </g>
    </g>
   </g>
   <g id="line2d_25">
    <path d="M 44.57 246.04 
L 58.5332 181.641904 
L 56.206 151.642244 
L 64.3512 106.884687 
L 75.4054 62.63299 
L 87.0414 101.474191 
L 112.0588 103.937506 
L 128.931 116.715954 
L 159.7664 111.305458 
L 193.5108 127.536946 
L 221.4372 141.305118 
L 238.3094 155.07329 
L 244.1274 178.188864 
L 246.4546 205.241343 
L 258.0906 224.903876 
L 280.199 236.208733 
L 324.9976 236.714593 
" clip-path="url(#p77d30489fe)" style="fill: none; stroke: #1f77b4; stroke-width: 1.5; stroke-linecap: square"/>
   </g>
   <g id="line2d_26">
    <path d="M 44.57 246.04 
L 49.2244 239.067938 
L 50.9698 233.107595 
L 53.297 231.414066 
L 53.8788 224.420011 
L 56.7878 217.096047 
L 57.3696 208.760364 
L 60.2786 200.248731 
L 62.024 195.652009 
L 63.1876 190.527433 
L 64.933 182.521659 
L 68.4238 170.271065 
L 74.2418 154.765376 
L 75.9872 150.850464 
L 78.3144 147.617363 
L 79.478 144.736164 
L 82.9688 141.503063 
L 87.6232 141.503063 
L 92.2776 146.429693 
L 94.023 153.071846 
L 99.841 158.174428 
L 103.9136 166.356153 
L 108.568 172.140545 
L 114.386 175.901499 
L 119.6222 179.134601 
L 127.7674 179.64046 
L 131.84 183.555372 
L 139.4034 184.413133 
L 144.0578 186.458564 
L 149.8758 186.282613 
L 155.112 188.328045 
L 165.5844 189.339763 
L 174.3114 190.527433 
L 181.8748 193.100718 
L 190.02 195.124155 
L 198.747 198.027348 
L 207.474 201.260449 
L 216.201 203.81174 
L 227.2552 207.726652 
L 237.1458 212.169416 
L 244.1274 217.271998 
L 252.2726 223.562249 
L 258.0906 228.510873 
L 264.4904 233.283546 
L 269.1448 236.846556 
L 273.7992 239.9257 
L 281.3626 243.158801 
L 289.5078 245.35819 
L 297.653 246.215951 
" clip-path="url(#p77d30489fe)" style="fill: none; stroke: #ff7f0e; stroke-width: 1.5; stroke-linecap: square"/>
   </g>
   <g id="line2d_27">
    <path d="M 44.57 246.04 
L 45.7336 220.263166 
L 46.8972 198.753146 
L 47.479 180.278283 
L 50.9698 169.523273 
L 55.0424 159.911945 
L 56.206 144.538219 
L 56.206 126.855135 
L 56.206 107.236589 
L 55.6242 95.315903 
L 55.6242 76.489138 
L 55.0424 56.496696 
L 56.206 32.259434 
L 61.4422 91.093077 
L 62.6058 125.315563 
L 70.751 90.323291 
L 74.2418 128.768603 
L 78.8962 78.028709 
L 81.8052 88.409823 
L 85.8778 97.251365 
L 88.205 108.776161 
L 90.5322 131.451857 
L 96.932 103.783549 
L 100.4228 114.538559 
L 105.0772 124.919673 
L 113.2224 136.070573 
L 119.6222 147.991259 
L 129.5128 156.832801 
L 138.8216 157.228691 
L 141.7306 151.444299 
L 150.4576 149.530831 
L 155.6938 146.847577 
L 163.2572 152.609975 
L 170.2388 157.228691 
L 179.5476 161.451517 
L 189.4382 168.753487 
L 203.9832 172.976313 
L 212.7102 181.443959 
L 225.5098 188.372032 
L 235.4004 199.896828 
L 245.291 204.88944 
L 255.7634 211.047728 
L 261.5814 218.349698 
L 271.472 227.19124 
L 282.5262 234.49321 
L 297.653 240.255608 
L 311.6162 244.500428 
L 323.2522 245.270214 
L 333.1428 245.64411 
" clip-path="url(#p77d30489fe)" style="fill: none; stroke: #d62728; stroke-width: 1.5; stroke-linecap: square"/>
   </g>
   <g id="line2d_28">
    <path d="M 44.57 246.04 
L 45.1518 241.729198 
L 45.7336 238.474103 
L 46.3154 234.8891 
L 47.479 230.204403 
L 48.0608 224.442005 
L 48.6426 218.679607 
L 49.2244 213.291105 
L 49.8062 208.980303 
L 50.388 203.569807 
L 50.9698 196.377807 
L 51.5516 190.967311 
L 52.1334 184.853011 
L 53.297 176.209414 
L 53.8788 168.313609 
L 54.4606 159.670012 
L 55.0424 150.300617 
L 55.6242 142.382818 
L 56.7878 135.190818 
L 57.3696 126.195318 
L 57.9514 119.35522 
L 58.5332 111.437421 
L 59.115 102.793824 
L 59.6968 93.446423 
L 60.2786 85.528624 
L 60.8604 78.336624 
L 61.4422 71.144623 
L 62.024 61.04943 
L 63.1876 48.82083 
L 64.3512 37.296034 
L 64.933 44.86193 
L 65.5148 53.131631 
L 65.5148 62.501026 
L 65.5148 72.574226 
L 66.0966 81.921627 
L 66.6784 90.565224 
L 66.6784 99.560723 
L 67.2602 107.852418 
L 67.842 115.044419 
L 68.4238 120.806817 
L 69.0056 127.646915 
L 70.1692 134.465019 
L 70.751 142.030916 
L 71.9146 148.145216 
L 73.0782 152.829914 
L 73.66 155.337217 
L 74.2418 156.788813 
L 74.8236 158.944214 
L 75.4054 159.670012 
L 76.569 161.099615 
L 77.7326 162.551211 
L 78.3144 163.628911 
L 79.478 165.43241 
L 80.0598 166.862013 
L 81.2234 168.665511 
L 81.8052 170.095114 
L 82.9688 172.976313 
L 84.1324 175.50561 
L 85.296 178.386809 
L 85.8778 179.090613 
L 87.0414 181.61991 
L 88.205 184.127213 
L 89.3686 185.930711 
L 90.5322 188.460008 
L 91.6958 189.889611 
L 92.2776 191.341207 
L 93.4412 191.693109 
L 94.023 193.84851 
L 95.1866 193.496608 
L 96.3502 194.574308 
L 96.932 194.574308 
L 98.0956 195.300106 
" clip-path="url(#p77d30489fe)" style="fill: none; stroke: #bcbd22; stroke-width: 1.5; stroke-linecap: square"/>
   </g>
   <g id="line2d_29">
    <path d="M 44.57 246.04 
L 45.1518 236.934531 
L 45.7336 232.689712 
L 46.3154 224.793907 
L 46.8972 216.898102 
L 48.0608 207.792633 
L 48.6426 198.687165 
L 49.2244 186.54654 
L 50.388 179.860399 
L 51.5516 168.929438 
L 52.1334 159.823969 
L 53.297 151.334329 
L 53.8788 144.054353 
L 55.0424 136.158549 
L 55.6242 125.821422 
L 56.206 113.086963 
L 57.9514 103.981494 
L 59.115 96.701518 
L 60.2786 86.364392 
L 61.4422 76.665089 
L 62.6058 67.55962 
L 63.1876 54.803167 
L 63.1876 45.697698 
L 63.1876 34.766737 
L 63.1876 22.010283 
L 64.933 24.451605 
L 66.0966 34.766737 
L 66.6784 40.837049 
L 69.5874 40.837049 
L 71.3328 47.52319 
L 73.0782 57.222494 
L 74.8236 66.327962 
L 77.7326 63.908635 
L 79.478 60.25765 
L 81.2234 62.083143 
L 82.387 71.80444 
L 84.1324 80.909908 
L 85.8778 79.700245 
L 87.0414 72.398275 
L 87.6232 62.698971 
L 89.3686 61.489308 
L 89.3686 68.769284 
L 91.6958 73.629932 
L 92.8594 69.978947 
L 95.1866 68.769284 
L 95.1866 77.874752 
L 96.932 86.364392 
L 98.6774 86.364392 
L 100.4228 79.084416 
L 102.75 76.665089 
L 104.4954 82.119572 
L 105.659 90.609212 
L 107.9862 90.015377 
L 109.1498 86.364392 
L 110.8952 87.574056 
L 110.8952 97.911182 
L 112.6406 102.771831 
L 114.9678 99.736674 
L 117.8768 102.771831 
L 120.204 111.26147 
L 123.113 113.086963 
L 124.8584 121.576603 
L 127.1856 128.878573 
L 130.6764 130.682071 
L 133.0036 136.158549 
L 134.1672 144.054353 
L 137.0762 145.857852 
L 138.8216 148.893008 
L 140.567 150.124666 
L 141.1488 159.230134 
L 144.6396 165.894282 
L 146.9668 170.75493 
L 149.294 176.825243 
L 152.7848 182.895555 
L 156.2756 184.721048 
L 160.93 188.965867 
L 163.839 187.140375 
L 167.3298 183.511384 
L 170.8206 189.581696 
L 172.566 193.826516 
L 174.8932 202.33815 
L 177.2204 207.176805 
L 181.293 209.002297 
L 186.5292 213.862946 
L 189.4382 219.933258 
L 194.0926 227.213234 
L 197.0016 232.689712 
L 199.9106 232.073883 
L 201.656 229.654555 
L 205.7286 229.654555 
L 209.8012 235.109039 
L 213.292 235.109039 
L 216.201 235.109039 
L 219.11 236.318703 
L 222.019 239.353859 
L 224.928 241.179351 
L 227.837 241.179351 
L 230.1642 237.55036 
L 233.0732 236.318703 
L 235.4004 238.144195 
L 237.7276 240.585516 
L 242.9638 243.620673 
L 247.0364 241.79518 
" clip-path="url(#p77d30489fe)" style="fill: none; stroke: #17becf; stroke-width: 1.5; stroke-linecap: square"/>
   </g>
   <g id="line2d_30">
    <path d="M 44.57 246.04 
L 47.479 238.694042 
L 52.1334 229.280659 
L 52.1334 222.330592 
L 53.297 212.125429 
L 56.206 201.898272 
L 57.9514 192.506883 
L 59.6968 181.465952 
L 59.115 171.65668 
L 60.8604 161.451517 
L 62.024 150.806476 
L 67.842 141.832971 
L 80.0598 138.555882 
L 99.841 139.369656 
L 117.295 138.973766 
L 131.2582 138.973766 
L 150.4576 139.369656 
L 174.3114 140.601313 
L 192.929 140.601313 
L 209.2194 143.042635 
L 224.3462 147.551381 
L 242.9638 154.083565 
L 256.927 162.66118 
L 263.9086 170.842906 
L 272.0538 180.234295 
L 280.7808 190.461452 
L 292.4168 191.275225 
L 295.3258 196.597746 
L 303.471 204.757477 
L 308.1254 212.521319 
L 318.016 213.335092 
L 320.925 207.220792 
L 320.925 202.316156 
L 325.5794 198.225293 
L 336.6336 198.225293 
L 344.7788 205.571251 
L 358.742 211.707545 
L 367.469 218.239729 
L 387.2502 222.330592 
L 407.6132 225.60768 
L 420.4128 231.326091 
L 433 237.470583 
" clip-path="url(#p77d30489fe)" style="fill: none; stroke: #7f7f7f; stroke-width: 1.5; stroke-linecap: square"/>
   </g>
   <g id="line2d_31">
    <path d="M 44.57 246.04 
L 53.297 241.135364 
L 64.3512 235.460941 
L 74.2418 230.556305 
L 76.569 217.711876 
L 78.3144 202.250174 
L 79.478 184.501109 
L 84.7142 154.303504 
L 92.8594 115.792211 
L 106.8226 132.77149 
L 113.8042 150.894452 
L 119.0404 166.752043 
L 124.8584 178.078894 
L 142.8942 187.140375 
L 163.2572 195.080168 
L 179.5476 203.371862 
L 193.5108 210.541869 
L 202.2378 217.33798 
L 215.6192 220.747032 
L 225.5098 213.577025 
L 230.746 204.141648 
L 232.4914 192.814797 
L 238.8912 181.861842 
L 255.7634 185.248901 
L 281.3626 189.405745 
L 302.3074 190.153537 
L 318.5978 191.671115 
L 333.7246 193.562589 
L 352.924 194.310382 
L 370.9598 196.575752 
L 383.7594 201.106492 
L 398.8862 207.528707 
L 416.922 213.950921 
L 432.0488 219.977246 
L 433 220.271762 
" clip-path="url(#p77d30489fe)" style="fill: none; stroke-dasharray: 5.55,2.4; stroke-dashoffset: 0; stroke: #1f77b4; stroke-width: 1.5"/>
   </g>
   <g id="patch_3">
    <path d="M 44.57 246.04 
L 44.57 10.8 
" style="fill: none; stroke: #000000; stroke-width: 0.8; stroke-linejoin: miter; stroke-linecap: square"/>
   </g>
   <g id="patch_4">
    <path d="M 335.47 246.04 
L 335.47 10.8 
" style="fill: none; stroke: #000000; stroke-width: 0.8; stroke-linejoin: miter; stroke-linecap: square"/>
   </g>
   <g id="patch_5">
    <path d="M 44.57 246.04 
L 335.47 246.04 
" style="fill: none; stroke: #000000; stroke-width: 0.8; stroke-linejoin: miter; stroke-linecap: square"/>
   </g>
   <g id="patch_6">
    <path d="M 44.57 10.8 
L 335.47 10.8 
" style="fill: none; stroke: #000000; stroke-width: 0.8; stroke-linejoin: miter; stroke-linecap: square"/>
   </g>
   <g id="legend_1">
    <g id="patch_7">
     <path d="M 342.47 181.293438 
L 419.33875 181.293438 
Q 421.33875 181.293438 421.33875 179.293438 
L 421.33875 77.546563 
Q 421.33875 75.546563 419.33875 75.546563 
L 342.47 75.546563 
Q 340.47 75.546563 340.47 77.546563 
L 340.47 179.293438 
Q 340.47 181.293438 342.47 181.293438 
z
" style="fill: #ffffff; opacity: 0.8; stroke: #cccccc; stroke-linejoin: miter"/>
    </g>
    <g id="line2d_32">
     <path d="M 344.47 83.645 
L 354.47 83.645 
L 364.47 83.645 
" style="fill: none; stroke: #1f77b4; stroke-width: 1.5; stroke-linecap: square"/>
    </g>
    <g id="text_15">
     <!-- Feinstein -->
     <g transform="translate(372.47 87.145) scale(0.1 -0.1)">
      <defs>
       <path id="DejaVuSans-6e" d="M 3513 2113 
L 3513 0 
L 2938 0 
L 2938 2094 
Q 2938 2591 2744 2837 
Q 2550 3084 2163 3084 
Q 1697 3084 1428 2787 
Q 1159 2491 1159 1978 
L 1159 0 
L 581 0 
L 581 3500 
L 1159 3500 
L 1159 2956 
Q 1366 3272 1645 3428 
Q 1925 3584 2291 3584 
Q 2894 3584 3203 3211 
Q 3513 2838 3513 2113 
z
" transform="scale(0.015625)"/>
      </defs>
      <use xlink:href="#DejaVuSans-46"/>
      <use xlink:href="#DejaVuSans-65" transform="translate(52.019531 0)"/>
      <use xlink:href="#DejaVuSans-69" transform="translate(113.542969 0)"/>
      <use xlink:href="#DejaVuSans-6e" transform="translate(141.326172 0)"/>
      <use xlink:href="#DejaVuSans-73" transform="translate(204.705078 0)"/>
      <use xlink:href="#DejaVuSans-74" transform="translate(256.804688 0)"/>
      <use xlink:href="#DejaVuSans-65" transform="translate(296.013672 0)"/>
      <use xlink:href="#DejaVuSans-69" transform="translate(357.537109 0)"/>
      <use xlink:href="#DejaVuSans-6e" transform="translate(385.320312 0)"/>
     </g>
    </g>
    <g id="line2d_33">
     <path d="M 344.47 98.323125 
L 354.47 98.323125 
L 364.47 98.323125 
" style="fill: none; stroke: #ff7f0e; stroke-width: 1.5; stroke-linecap: square"/>
    </g>
    <g id="text_16">
     <!-- Gupta -->
     <g transform="translate(372.47 101.823125) scale(0.1 -0.1)">
      <defs>
       <path id="DejaVuSans-47" d="M 3809 666 
L 3809 1919 
L 2778 1919 
L 2778 2438 
L 4434 2438 
L 4434 434 
Q 4069 175 3628 42 
Q 3188 -91 2688 -91 
Q 1594 -91 976 548 
Q 359 1188 359 2328 
Q 359 3472 976 4111 
Q 1594 4750 2688 4750 
Q 3144 4750 3555 4637 
Q 3966 4525 4313 4306 
L 4313 3634 
Q 3963 3931 3569 4081 
Q 3175 4231 2741 4231 
Q 1884 4231 1454 3753 
Q 1025 3275 1025 2328 
Q 1025 1384 1454 906 
Q 1884 428 2741 428 
Q 3075 428 3337 486 
Q 3600 544 3809 666 
z
" transform="scale(0.015625)"/>
       <path id="DejaVuSans-75" d="M 544 1381 
L 544 3500 
L 1119 3500 
L 1119 1403 
Q 1119 906 1312 657 
Q 1506 409 1894 409 
Q 2359 409 2629 706 
Q 2900 1003 2900 1516 
L 2900 3500 
L 3475 3500 
L 3475 0 
L 2900 0 
L 2900 538 
Q 2691 219 2414 64 
Q 2138 -91 1772 -91 
Q 1169 -91 856 284 
Q 544 659 544 1381 
z
M 1991 3584 
L 1991 3584 
z
" transform="scale(0.015625)"/>
       <path id="DejaVuSans-70" d="M 1159 525 
L 1159 -1331 
L 581 -1331 
L 581 3500 
L 1159 3500 
L 1159 2969 
Q 1341 3281 1617 3432 
Q 1894 3584 2278 3584 
Q 2916 3584 3314 3078 
Q 3713 2572 3713 1747 
Q 3713 922 3314 415 
Q 2916 -91 2278 -91 
Q 1894 -91 1617 61 
Q 1341 213 1159 525 
z
M 3116 1747 
Q 3116 2381 2855 2742 
Q 2594 3103 2138 3103 
Q 1681 3103 1420 2742 
Q 1159 2381 1159 1747 
Q 1159 1113 1420 752 
Q 1681 391 2138 391 
Q 2594 391 2855 752 
Q 3116 1113 3116 1747 
z
" transform="scale(0.015625)"/>
      </defs>
      <use xlink:href="#DejaVuSans-47"/>
      <use xlink:href="#DejaVuSans-75" transform="translate(77.490234 0)"/>
      <use xlink:href="#DejaVuSans-70" transform="translate(140.869141 0)"/>
      <use xlink:href="#DejaVuSans-74" transform="translate(204.345703 0)"/>
      <use xlink:href="#DejaVuSans-61" transform="translate(243.554688 0)"/>
     </g>
    </g>
    <g id="line2d_34">
     <path d="M 344.47 113.00125 
L 354.47 113.00125 
L 364.47 113.00125 
" style="fill: none; stroke: #d62728; stroke-width: 1.5; stroke-linecap: square"/>
    </g>
    <g id="text_17">
     <!-- King -->
     <g transform="translate(372.47 116.50125) scale(0.1 -0.1)">
      <defs>
       <path id="DejaVuSans-4b" d="M 628 4666 
L 1259 4666 
L 1259 2694 
L 3353 4666 
L 4166 4666 
L 1850 2491 
L 4331 0 
L 3500 0 
L 1259 2247 
L 1259 0 
L 628 0 
L 628 4666 
z
" transform="scale(0.015625)"/>
       <path id="DejaVuSans-67" d="M 2906 1791 
Q 2906 2416 2648 2759 
Q 2391 3103 1925 3103 
Q 1463 3103 1205 2759 
Q 947 2416 947 1791 
Q 947 1169 1205 825 
Q 1463 481 1925 481 
Q 2391 481 2648 825 
Q 2906 1169 2906 1791 
z
M 3481 434 
Q 3481 -459 3084 -895 
Q 2688 -1331 1869 -1331 
Q 1566 -1331 1297 -1286 
Q 1028 -1241 775 -1147 
L 775 -588 
Q 1028 -725 1275 -790 
Q 1522 -856 1778 -856 
Q 2344 -856 2625 -561 
Q 2906 -266 2906 331 
L 2906 616 
Q 2728 306 2450 153 
Q 2172 0 1784 0 
Q 1141 0 747 490 
Q 353 981 353 1791 
Q 353 2603 747 3093 
Q 1141 3584 1784 3584 
Q 2172 3584 2450 3431 
Q 2728 3278 2906 2969 
L 2906 3500 
L 3481 3500 
L 3481 434 
z
" transform="scale(0.015625)"/>
      </defs>
      <use xlink:href="#DejaVuSans-4b"/>
      <use xlink:href="#DejaVuSans-69" transform="translate(65.576172 0)"/>
      <use xlink:href="#DejaVuSans-6e" transform="translate(93.359375 0)"/>
      <use xlink:href="#DejaVuSans-67" transform="translate(156.738281 0)"/>
     </g>
    </g>
    <g id="line2d_35">
     <path d="M 344.47 127.679375 
L 354.47 127.679375 
L 364.47 127.679375 
" style="fill: none; stroke: #bcbd22; stroke-width: 1.5; stroke-linecap: square"/>
    </g>
    <g id="text_18">
     <!-- Knudson -->
     <g transform="translate(372.47 131.179375) scale(0.1 -0.1)">
      <defs>
       <path id="DejaVuSans-64" d="M 2906 2969 
L 2906 4863 
L 3481 4863 
L 3481 0 
L 2906 0 
L 2906 525 
Q 2725 213 2448 61 
Q 2172 -91 1784 -91 
Q 1150 -91 751 415 
Q 353 922 353 1747 
Q 353 2572 751 3078 
Q 1150 3584 1784 3584 
Q 2172 3584 2448 3432 
Q 2725 3281 2906 2969 
z
M 947 1747 
Q 947 1113 1208 752 
Q 1469 391 1925 391 
Q 2381 391 2643 752 
Q 2906 1113 2906 1747 
Q 2906 2381 2643 2742 
Q 2381 3103 1925 3103 
Q 1469 3103 1208 2742 
Q 947 2381 947 1747 
z
" transform="scale(0.015625)"/>
      </defs>
      <use xlink:href="#DejaVuSans-4b"/>
      <use xlink:href="#DejaVuSans-6e" transform="translate(65.576172 0)"/>
      <use xlink:href="#DejaVuSans-75" transform="translate(128.955078 0)"/>
      <use xlink:href="#DejaVuSans-64" transform="translate(192.333984 0)"/>
      <use xlink:href="#DejaVuSans-73" transform="translate(255.810547 0)"/>
      <use xlink:href="#DejaVuSans-6f" transform="translate(307.910156 0)"/>
      <use xlink:href="#DejaVuSans-6e" transform="translate(369.091797 0)"/>
     </g>
    </g>
    <g id="line2d_36">
     <path d="M 344.47 142.3575 
L 354.47 142.3575 
L 364.47 142.3575 
" style="fill: none; stroke: #17becf; stroke-width: 1.5; stroke-linecap: square"/>
    </g>
    <g id="text_19">
     <!-- Mahajan -->
     <g transform="translate(372.47 145.8575) scale(0.1 -0.1)">
      <defs>
       <path id="DejaVuSans-4d" d="M 628 4666 
L 1569 4666 
L 2759 1491 
L 3956 4666 
L 4897 4666 
L 4897 0 
L 4281 0 
L 4281 4097 
L 3078 897 
L 2444 897 
L 1241 4097 
L 1241 0 
L 628 0 
L 628 4666 
z
" transform="scale(0.015625)"/>
       <path id="DejaVuSans-68" d="M 3513 2113 
L 3513 0 
L 2938 0 
L 2938 2094 
Q 2938 2591 2744 2837 
Q 2550 3084 2163 3084 
Q 1697 3084 1428 2787 
Q 1159 2491 1159 1978 
L 1159 0 
L 581 0 
L 581 4863 
L 1159 4863 
L 1159 2956 
Q 1366 3272 1645 3428 
Q 1925 3584 2291 3584 
Q 2894 3584 3203 3211 
Q 3513 2838 3513 2113 
z
" transform="scale(0.015625)"/>
       <path id="DejaVuSans-6a" d="M 603 3500 
L 1178 3500 
L 1178 -63 
Q 1178 -731 923 -1031 
Q 669 -1331 103 -1331 
L -116 -1331 
L -116 -844 
L 38 -844 
Q 366 -844 484 -692 
Q 603 -541 603 -63 
L 603 3500 
z
M 603 4863 
L 1178 4863 
L 1178 4134 
L 603 4134 
L 603 4863 
z
" transform="scale(0.015625)"/>
      </defs>
      <use xlink:href="#DejaVuSans-4d"/>
      <use xlink:href="#DejaVuSans-61" transform="translate(86.279297 0)"/>
      <use xlink:href="#DejaVuSans-68" transform="translate(147.558594 0)"/>
      <use xlink:href="#DejaVuSans-61" transform="translate(210.9375 0)"/>
      <use xlink:href="#DejaVuSans-6a" transform="translate(272.216797 0)"/>
      <use xlink:href="#DejaVuSans-61" transform="translate(300 0)"/>
      <use xlink:href="#DejaVuSans-6e" transform="translate(361.279297 0)"/>
     </g>
    </g>
    <g id="line2d_37">
     <path d="M 344.47 157.035625 
L 354.47 157.035625 
L 364.47 157.035625 
" style="fill: none; stroke: #7f7f7f; stroke-width: 1.5; stroke-linecap: square"/>
    </g>
    <g id="text_20">
     <!-- Ross -->
     <g transform="translate(372.47 160.535625) scale(0.1 -0.1)">
      <defs>
       <path id="DejaVuSans-52" d="M 2841 2188 
Q 3044 2119 3236 1894 
Q 3428 1669 3622 1275 
L 4263 0 
L 3584 0 
L 2988 1197 
Q 2756 1666 2539 1819 
Q 2322 1972 1947 1972 
L 1259 1972 
L 1259 0 
L 628 0 
L 628 4666 
L 2053 4666 
Q 2853 4666 3247 4331 
Q 3641 3997 3641 3322 
Q 3641 2881 3436 2590 
Q 3231 2300 2841 2188 
z
M 1259 4147 
L 1259 2491 
L 2053 2491 
Q 2509 2491 2742 2702 
Q 2975 2913 2975 3322 
Q 2975 3731 2742 3939 
Q 2509 4147 2053 4147 
L 1259 4147 
z
" transform="scale(0.015625)"/>
      </defs>
      <use xlink:href="#DejaVuSans-52"/>
      <use xlink:href="#DejaVuSans-6f" transform="translate(64.982422 0)"/>
      <use xlink:href="#DejaVuSans-73" transform="translate(126.164062 0)"/>
      <use xlink:href="#DejaVuSans-73" transform="translate(178.263672 0)"/>
     </g>
    </g>
    <g id="line2d_38">
     <path d="M 344.47 171.71375 
L 354.47 171.71375 
L 364.47 171.71375 
" style="fill: none; stroke-dasharray: 5.55,2.4; stroke-dashoffset: 0; stroke: #1f77b4; stroke-width: 1.5"/>
    </g>
    <g id="text_21">
     <!-- Smith -->
     <g transform="translate(372.47 175.21375) scale(0.1 -0.1)">
      <defs>
       <path id="DejaVuSans-53" d="M 3425 4513 
L 3425 3897 
Q 3066 4069 2747 4153 
Q 2428 4238 2131 4238 
Q 1616 4238 1336 4038 
Q 1056 3838 1056 3469 
Q 1056 3159 1242 3001 
Q 1428 2844 1947 2747 
L 2328 2669 
Q 3034 2534 3370 2195 
Q 3706 1856 3706 1288 
Q 3706 609 3251 259 
Q 2797 -91 1919 -91 
Q 1588 -91 1214 -16 
Q 841 59 441 206 
L 441 856 
Q 825 641 1194 531 
Q 1563 422 1919 422 
Q 2459 422 2753 634 
Q 3047 847 3047 1241 
Q 3047 1584 2836 1778 
Q 2625 1972 2144 2069 
L 1759 2144 
Q 1053 2284 737 2584 
Q 422 2884 422 3419 
Q 422 4038 858 4394 
Q 1294 4750 2059 4750 
Q 2388 4750 2728 4690 
Q 3069 4631 3425 4513 
z
" transform="scale(0.015625)"/>
      </defs>
      <use xlink:href="#DejaVuSans-53"/>
      <use xlink:href="#DejaVuSans-6d" transform="translate(63.476562 0)"/>
      <use xlink:href="#DejaVuSans-69" transform="translate(160.888672 0)"/>
      <use xlink:href="#DejaVuSans-74" transform="translate(188.671875 0)"/>
      <use xlink:href="#DejaVuSans-68" transform="translate(227.880859 0)"/>
     </g>
    </g>
   </g>
  </g>
 </g>
 <defs>
  <clipPath id="p77d30489fe">
   <rect x="44.57" y="10.8" width="290.9" height="235.24"/>
  </clipPath>
 </defs>
</svg>
