<?xml version="1.0" encoding="utf-8" standalone="no"?>
<!DOCTYPE svg PUBLIC "-//W3C//DTD SVG 1.1//EN"
  "http://www.w3.org/Graphics/SVG/1.1/DTD/svg11.dtd">
<svg xmlns:xlink="http://www.w3.org/1999/xlink" width="432pt" height="288pt" viewBox="0 0 432 288" xmlns="http://www.w3.org/2000/svg" version="1.1">
 <metadata>
  <rdf:RDF xmlns:dc="http://purl.org/dc/elements/1.1/" xmlns:cc="http://creativecommons.org/ns#" xmlns:rdf="http://www.w3.org/1999/02/22-rdf-syntax-ns#">
   <cc:Work>
    <dc:type rdf:resource="http://purl.org/dc/dcmitype/StillImage"/>
    <dc:date>2025-09-26T12:58:06.325085</dc:date>
    <dc:format>image/svg+xml</dc:format>
    <dc:creator>
     <cc:Agent>
      <dc:title>Matplotlib v3.10.0, https://matplotlib.org/</dc:title>
     </cc:Agent>
    </dc:creator>
   </cc:Work>
  </rdf:RDF>
 </metadata>
 <defs>
  <style type="text/css">*{stroke-linejoin: round; stroke-linecap: butt}</style>
 </defs>
 <g id="figure_1">
  <g id="patch_1">
   <path d="M 0 288 
L 432 288 
L 432 0 
L 0 0 
z
" style="fill: #ffffff"/>
  </g>
  <g id="axes_1">
   <g id="patch_2">
    <path d="M 57.53 229.552 
L 416.88 229.552 
L 416.88 20.52 
L 57.53 20.52 
z
" style="fill: #ffffff"/>
   </g>
   <g id="matplotlib.axis_1">
    <g id="xtick_1">
     <g id="line2d_1">
      <path d="M 57.72557 229.552 
L 57.72557 20.52 
" clip-path="url(#p3a6504fbba)" style="fill: none; stroke-dasharray: 1.85,0.8; stroke-dashoffset: 0; stroke: #b0b0b0; stroke-width: 0.5"/>
     </g>
     <g id="line2d_2">
      <defs>
       <path id="m46f67c793e" d="M 0 0 
L 0 3.5 
" style="stroke: #000000; stroke-width: 0.8"/>
      </defs>
      <g>
       <use xlink:href="#m46f67c793e" x="57.72557" y="229.552" style="stroke: #000000; stroke-width: 0.8"/>
      </g>
     </g>
     <g id="text_1">
      <!-- $\mathdefault{10^{-1}}$ -->
      <g transform="translate(41.27557 247.189813) scale(0.14 -0.14)">
       <defs>
        <path id="DejaVuSans-31" d="M 794 531 
L 1825 531 
L 1825 4091 
L 703 3866 
L 703 4441 
L 1819 4666 
L 2450 4666 
L 2450 531 
L 3481 531 
L 3481 0 
L 794 0 
L 794 531 
z
" transform="scale(0.015625)"/>
        <path id="DejaVuSans-30" d="M 2034 4250 
Q 1547 4250 1301 3770 
Q 1056 3291 1056 2328 
Q 1056 1369 1301 889 
Q 1547 409 2034 409 
Q 2525 409 2770 889 
Q 3016 1369 3016 2328 
Q 3016 3291 2770 3770 
Q 2525 4250 2034 4250 
z
M 2034 4750 
Q 2819 4750 3233 4129 
Q 3647 3509 3647 2328 
Q 3647 1150 3233 529 
Q 2819 -91 2034 -91 
Q 1250 -91 836 529 
Q 422 1150 422 2328 
Q 422 3509 836 4129 
Q 1250 4750 2034 4750 
z
" transform="scale(0.015625)"/>
        <path id="DejaVuSans-2212" d="M 678 2272 
L 4684 2272 
L 4684 1741 
L 678 1741 
L 678 2272 
z
" transform="scale(0.015625)"/>
       </defs>
       <use xlink:href="#DejaVuSans-31" transform="translate(0 0.684375)"/>
       <use xlink:href="#DejaVuSans-30" transform="translate(63.623047 0.684375)"/>
       <use xlink:href="#DejaVuSans-2212" transform="translate(128.203125 38.965625) scale(0.7)"/>
       <use xlink:href="#DejaVuSans-31" transform="translate(186.855469 38.965625) scale(0.7)"/>
      </g>
     </g>
    </g>
    <g id="xtick_2">
     <g id="line2d_3">
      <path d="M 147.563663 229.552 
L 147.563663 20.52 
" clip-path="url(#p3a6504fbba)" style="fill: none; stroke-dasharray: 1.85,0.8; stroke-dashoffset: 0; stroke: #b0b0b0; stroke-width: 0.5"/>
     </g>
     <g id="line2d_4">
      <g>
       <use xlink:href="#m46f67c793e" x="147.563663" y="229.552" style="stroke: #000000; stroke-width: 0.8"/>
      </g>
     </g>
     <g id="text_2">
      <!-- $\mathdefault{10^{0}}$ -->
      <g transform="translate(135.243663 247.189813) scale(0.14 -0.14)">
       <use xlink:href="#DejaVuSans-31" transform="translate(0 0.765625)"/>
       <use xlink:href="#DejaVuSans-30" transform="translate(63.623047 0.765625)"/>
       <use xlink:href="#DejaVuSans-30" transform="translate(128.203125 39.046875) scale(0.7)"/>
      </g>
     </g>
    </g>
    <g id="xtick_3">
     <g id="line2d_5">
      <path d="M 237.401756 229.552 
L 237.401756 20.52 
" clip-path="url(#p3a6504fbba)" style="fill: none; stroke-dasharray: 1.85,0.8; stroke-dashoffset: 0; stroke: #b0b0b0; stroke-width: 0.5"/>
     </g>
     <g id="line2d_6">
      <g>
       <use xlink:href="#m46f67c793e" x="237.401756" y="229.552" style="stroke: #000000; stroke-width: 0.8"/>
      </g>
     </g>
     <g id="text_3">
      <!-- $\mathdefault{10^{1}}$ -->
      <g transform="translate(225.081756 247.189813) scale(0.14 -0.14)">
       <use xlink:href="#DejaVuSans-31" transform="translate(0 0.684375)"/>
       <use xlink:href="#DejaVuSans-30" transform="translate(63.623047 0.684375)"/>
       <use xlink:href="#DejaVuSans-31" transform="translate(128.203125 38.965625) scale(0.7)"/>
      </g>
     </g>
    </g>
    <g id="xtick_4">
     <g id="line2d_7">
      <path d="M 327.23985 229.552 
L 327.23985 20.52 
" clip-path="url(#p3a6504fbba)" style="fill: none; stroke-dasharray: 1.85,0.8; stroke-dashoffset: 0; stroke: #b0b0b0; stroke-width: 0.5"/>
     </g>
     <g id="line2d_8">
      <g>
       <use xlink:href="#m46f67c793e" x="327.23985" y="229.552" style="stroke: #000000; stroke-width: 0.8"/>
      </g>
     </g>
     <g id="text_4">
      <!-- $\mathdefault{10^{2}}$ -->
      <g transform="translate(314.91985 247.189813) scale(0.14 -0.14)">
       <defs>
        <path id="DejaVuSans-32" d="M 1228 531 
L 3431 531 
L 3431 0 
L 469 0 
L 469 531 
Q 828 903 1448 1529 
Q 2069 2156 2228 2338 
Q 2531 2678 2651 2914 
Q 2772 3150 2772 3378 
Q 2772 3750 2511 3984 
Q 2250 4219 1831 4219 
Q 1534 4219 1204 4116 
Q 875 4013 500 3803 
L 500 4441 
Q 881 4594 1212 4672 
Q 1544 4750 1819 4750 
Q 2544 4750 2975 4387 
Q 3406 4025 3406 3419 
Q 3406 3131 3298 2873 
Q 3191 2616 2906 2266 
Q 2828 2175 2409 1742 
Q 1991 1309 1228 531 
z
" transform="scale(0.015625)"/>
       </defs>
       <use xlink:href="#DejaVuSans-31" transform="translate(0 0.765625)"/>
       <use xlink:href="#DejaVuSans-30" transform="translate(63.623047 0.765625)"/>
       <use xlink:href="#DejaVuSans-32" transform="translate(128.203125 39.046875) scale(0.7)"/>
      </g>
     </g>
    </g>
    <g id="xtick_5">
     <g id="line2d_9">
      <path d="M 84.769531 229.552 
L 84.769531 20.52 
" clip-path="url(#p3a6504fbba)" style="fill: none; stroke-dasharray: 1.85,0.8; stroke-dashoffset: 0; stroke: #b0b0b0; stroke-width: 0.5"/>
     </g>
     <g id="line2d_10">
      <defs>
       <path id="ma3d7692736" d="M 0 0 
L 0 2 
" style="stroke: #000000; stroke-width: 0.6"/>
      </defs>
      <g>
       <use xlink:href="#ma3d7692736" x="84.769531" y="229.552" style="stroke: #000000; stroke-width: 0.6"/>
      </g>
     </g>
    </g>
    <g id="xtick_6">
     <g id="line2d_11">
      <path d="M 100.589234 229.552 
L 100.589234 20.52 
" clip-path="url(#p3a6504fbba)" style="fill: none; stroke-dasharray: 1.85,0.8; stroke-dashoffset: 0; stroke: #b0b0b0; stroke-width: 0.5"/>
     </g>
     <g id="line2d_12">
      <g>
       <use xlink:href="#ma3d7692736" x="100.589234" y="229.552" style="stroke: #000000; stroke-width: 0.6"/>
      </g>
     </g>
    </g>
    <g id="xtick_7">
     <g id="line2d_13">
      <path d="M 111.813492 229.552 
L 111.813492 20.52 
" clip-path="url(#p3a6504fbba)" style="fill: none; stroke-dasharray: 1.85,0.8; stroke-dashoffset: 0; stroke: #b0b0b0; stroke-width: 0.5"/>
     </g>
     <g id="line2d_14">
      <g>
       <use xlink:href="#ma3d7692736" x="111.813492" y="229.552" style="stroke: #000000; stroke-width: 0.6"/>
      </g>
     </g>
    </g>
    <g id="xtick_8">
     <g id="line2d_15">
      <path d="M 120.519703 229.552 
L 120.519703 20.52 
" clip-path="url(#p3a6504fbba)" style="fill: none; stroke-dasharray: 1.85,0.8; stroke-dashoffset: 0; stroke: #b0b0b0; stroke-width: 0.5"/>
     </g>
     <g id="line2d_16">
      <g>
       <use xlink:href="#ma3d7692736" x="120.519703" y="229.552" style="stroke: #000000; stroke-width: 0.6"/>
      </g>
     </g>
    </g>
    <g id="xtick_9">
     <g id="line2d_17">
      <path d="M 127.633195 229.552 
L 127.633195 20.52 
" clip-path="url(#p3a6504fbba)" style="fill: none; stroke-dasharray: 1.85,0.8; stroke-dashoffset: 0; stroke: #b0b0b0; stroke-width: 0.5"/>
     </g>
     <g id="line2d_18">
      <g>
       <use xlink:href="#ma3d7692736" x="127.633195" y="229.552" style="stroke: #000000; stroke-width: 0.6"/>
      </g>
     </g>
    </g>
    <g id="xtick_10">
     <g id="line2d_19">
      <path d="M 133.647567 229.552 
L 133.647567 20.52 
" clip-path="url(#p3a6504fbba)" style="fill: none; stroke-dasharray: 1.85,0.8; stroke-dashoffset: 0; stroke: #b0b0b0; stroke-width: 0.5"/>
     </g>
     <g id="line2d_20">
      <g>
       <use xlink:href="#ma3d7692736" x="133.647567" y="229.552" style="stroke: #000000; stroke-width: 0.6"/>
      </g>
     </g>
    </g>
    <g id="xtick_11">
     <g id="line2d_21">
      <path d="M 138.857453 229.552 
L 138.857453 20.52 
" clip-path="url(#p3a6504fbba)" style="fill: none; stroke-dasharray: 1.85,0.8; stroke-dashoffset: 0; stroke: #b0b0b0; stroke-width: 0.5"/>
     </g>
     <g id="line2d_22">
      <g>
       <use xlink:href="#ma3d7692736" x="138.857453" y="229.552" style="stroke: #000000; stroke-width: 0.6"/>
      </g>
     </g>
    </g>
    <g id="xtick_12">
     <g id="line2d_23">
      <path d="M 143.452898 229.552 
L 143.452898 20.52 
" clip-path="url(#p3a6504fbba)" style="fill: none; stroke-dasharray: 1.85,0.8; stroke-dashoffset: 0; stroke: #b0b0b0; stroke-width: 0.5"/>
     </g>
     <g id="line2d_24">
      <g>
       <use xlink:href="#ma3d7692736" x="143.452898" y="229.552" style="stroke: #000000; stroke-width: 0.6"/>
      </g>
     </g>
    </g>
    <g id="xtick_13">
     <g id="line2d_25">
      <path d="M 174.607624 229.552 
L 174.607624 20.52 
" clip-path="url(#p3a6504fbba)" style="fill: none; stroke-dasharray: 1.85,0.8; stroke-dashoffset: 0; stroke: #b0b0b0; stroke-width: 0.5"/>
     </g>
     <g id="line2d_26">
      <g>
       <use xlink:href="#ma3d7692736" x="174.607624" y="229.552" style="stroke: #000000; stroke-width: 0.6"/>
      </g>
     </g>
    </g>
    <g id="xtick_14">
     <g id="line2d_27">
      <path d="M 190.427327 229.552 
L 190.427327 20.52 
" clip-path="url(#p3a6504fbba)" style="fill: none; stroke-dasharray: 1.85,0.8; stroke-dashoffset: 0; stroke: #b0b0b0; stroke-width: 0.5"/>
     </g>
     <g id="line2d_28">
      <g>
       <use xlink:href="#ma3d7692736" x="190.427327" y="229.552" style="stroke: #000000; stroke-width: 0.6"/>
      </g>
     </g>
    </g>
    <g id="xtick_15">
     <g id="line2d_29">
      <path d="M 201.651585 229.552 
L 201.651585 20.52 
" clip-path="url(#p3a6504fbba)" style="fill: none; stroke-dasharray: 1.85,0.8; stroke-dashoffset: 0; stroke: #b0b0b0; stroke-width: 0.5"/>
     </g>
     <g id="line2d_30">
      <g>
       <use xlink:href="#ma3d7692736" x="201.651585" y="229.552" style="stroke: #000000; stroke-width: 0.6"/>
      </g>
     </g>
    </g>
    <g id="xtick_16">
     <g id="line2d_31">
      <path d="M 210.357796 229.552 
L 210.357796 20.52 
" clip-path="url(#p3a6504fbba)" style="fill: none; stroke-dasharray: 1.85,0.8; stroke-dashoffset: 0; stroke: #b0b0b0; stroke-width: 0.5"/>
     </g>
     <g id="line2d_32">
      <g>
       <use xlink:href="#ma3d7692736" x="210.357796" y="229.552" style="stroke: #000000; stroke-width: 0.6"/>
      </g>
     </g>
    </g>
    <g id="xtick_17">
     <g id="line2d_33">
      <path d="M 217.471288 229.552 
L 217.471288 20.52 
" clip-path="url(#p3a6504fbba)" style="fill: none; stroke-dasharray: 1.85,0.8; stroke-dashoffset: 0; stroke: #b0b0b0; stroke-width: 0.5"/>
     </g>
     <g id="line2d_34">
      <g>
       <use xlink:href="#ma3d7692736" x="217.471288" y="229.552" style="stroke: #000000; stroke-width: 0.6"/>
      </g>
     </g>
    </g>
    <g id="xtick_18">
     <g id="line2d_35">
      <path d="M 223.48566 229.552 
L 223.48566 20.52 
" clip-path="url(#p3a6504fbba)" style="fill: none; stroke-dasharray: 1.85,0.8; stroke-dashoffset: 0; stroke: #b0b0b0; stroke-width: 0.5"/>
     </g>
     <g id="line2d_36">
      <g>
       <use xlink:href="#ma3d7692736" x="223.48566" y="229.552" style="stroke: #000000; stroke-width: 0.6"/>
      </g>
     </g>
    </g>
    <g id="xtick_19">
     <g id="line2d_37">
      <path d="M 228.695546 229.552 
L 228.695546 20.52 
" clip-path="url(#p3a6504fbba)" style="fill: none; stroke-dasharray: 1.85,0.8; stroke-dashoffset: 0; stroke: #b0b0b0; stroke-width: 0.5"/>
     </g>
     <g id="line2d_38">
      <g>
       <use xlink:href="#ma3d7692736" x="228.695546" y="229.552" style="stroke: #000000; stroke-width: 0.6"/>
      </g>
     </g>
    </g>
    <g id="xtick_20">
     <g id="line2d_39">
      <path d="M 233.290991 229.552 
L 233.290991 20.52 
" clip-path="url(#p3a6504fbba)" style="fill: none; stroke-dasharray: 1.85,0.8; stroke-dashoffset: 0; stroke: #b0b0b0; stroke-width: 0.5"/>
     </g>
     <g id="line2d_40">
      <g>
       <use xlink:href="#ma3d7692736" x="233.290991" y="229.552" style="stroke: #000000; stroke-width: 0.6"/>
      </g>
     </g>
    </g>
    <g id="xtick_21">
     <g id="line2d_41">
      <path d="M 264.445717 229.552 
L 264.445717 20.52 
" clip-path="url(#p3a6504fbba)" style="fill: none; stroke-dasharray: 1.85,0.8; stroke-dashoffset: 0; stroke: #b0b0b0; stroke-width: 0.5"/>
     </g>
     <g id="line2d_42">
      <g>
       <use xlink:href="#ma3d7692736" x="264.445717" y="229.552" style="stroke: #000000; stroke-width: 0.6"/>
      </g>
     </g>
    </g>
    <g id="xtick_22">
     <g id="line2d_43">
      <path d="M 280.26542 229.552 
L 280.26542 20.52 
" clip-path="url(#p3a6504fbba)" style="fill: none; stroke-dasharray: 1.85,0.8; stroke-dashoffset: 0; stroke: #b0b0b0; stroke-width: 0.5"/>
     </g>
     <g id="line2d_44">
      <g>
       <use xlink:href="#ma3d7692736" x="280.26542" y="229.552" style="stroke: #000000; stroke-width: 0.6"/>
      </g>
     </g>
    </g>
    <g id="xtick_23">
     <g id="line2d_45">
      <path d="M 291.489678 229.552 
L 291.489678 20.52 
" clip-path="url(#p3a6504fbba)" style="fill: none; stroke-dasharray: 1.85,0.8; stroke-dashoffset: 0; stroke: #b0b0b0; stroke-width: 0.5"/>
     </g>
     <g id="line2d_46">
      <g>
       <use xlink:href="#ma3d7692736" x="291.489678" y="229.552" style="stroke: #000000; stroke-width: 0.6"/>
      </g>
     </g>
    </g>
    <g id="xtick_24">
     <g id="line2d_47">
      <path d="M 300.195889 229.552 
L 300.195889 20.52 
" clip-path="url(#p3a6504fbba)" style="fill: none; stroke-dasharray: 1.85,0.8; stroke-dashoffset: 0; stroke: #b0b0b0; stroke-width: 0.5"/>
     </g>
     <g id="line2d_48">
      <g>
       <use xlink:href="#ma3d7692736" x="300.195889" y="229.552" style="stroke: #000000; stroke-width: 0.6"/>
      </g>
     </g>
    </g>
    <g id="xtick_25">
     <g id="line2d_49">
      <path d="M 307.309381 229.552 
L 307.309381 20.52 
" clip-path="url(#p3a6504fbba)" style="fill: none; stroke-dasharray: 1.85,0.8; stroke-dashoffset: 0; stroke: #b0b0b0; stroke-width: 0.5"/>
     </g>
     <g id="line2d_50">
      <g>
       <use xlink:href="#ma3d7692736" x="307.309381" y="229.552" style="stroke: #000000; stroke-width: 0.6"/>
      </g>
     </g>
    </g>
    <g id="xtick_26">
     <g id="line2d_51">
      <path d="M 313.323753 229.552 
L 313.323753 20.52 
" clip-path="url(#p3a6504fbba)" style="fill: none; stroke-dasharray: 1.85,0.8; stroke-dashoffset: 0; stroke: #b0b0b0; stroke-width: 0.5"/>
     </g>
     <g id="line2d_52">
      <g>
       <use xlink:href="#ma3d7692736" x="313.323753" y="229.552" style="stroke: #000000; stroke-width: 0.6"/>
      </g>
     </g>
    </g>
    <g id="xtick_27">
     <g id="line2d_53">
      <path d="M 318.533639 229.552 
L 318.533639 20.52 
" clip-path="url(#p3a6504fbba)" style="fill: none; stroke-dasharray: 1.85,0.8; stroke-dashoffset: 0; stroke: #b0b0b0; stroke-width: 0.5"/>
     </g>
     <g id="line2d_54">
      <g>
       <use xlink:href="#ma3d7692736" x="318.533639" y="229.552" style="stroke: #000000; stroke-width: 0.6"/>
      </g>
     </g>
    </g>
    <g id="xtick_28">
     <g id="line2d_55">
      <path d="M 323.129084 229.552 
L 323.129084 20.52 
" clip-path="url(#p3a6504fbba)" style="fill: none; stroke-dasharray: 1.85,0.8; stroke-dashoffset: 0; stroke: #b0b0b0; stroke-width: 0.5"/>
     </g>
     <g id="line2d_56">
      <g>
       <use xlink:href="#ma3d7692736" x="323.129084" y="229.552" style="stroke: #000000; stroke-width: 0.6"/>
      </g>
     </g>
    </g>
    <g id="xtick_29">
     <g id="line2d_57">
      <path d="M 354.28381 229.552 
L 354.28381 20.52 
" clip-path="url(#p3a6504fbba)" style="fill: none; stroke-dasharray: 1.85,0.8; stroke-dashoffset: 0; stroke: #b0b0b0; stroke-width: 0.5"/>
     </g>
     <g id="line2d_58">
      <g>
       <use xlink:href="#ma3d7692736" x="354.28381" y="229.552" style="stroke: #000000; stroke-width: 0.6"/>
      </g>
     </g>
    </g>
    <g id="xtick_30">
     <g id="line2d_59">
      <path d="M 370.103513 229.552 
L 370.103513 20.52 
" clip-path="url(#p3a6504fbba)" style="fill: none; stroke-dasharray: 1.85,0.8; stroke-dashoffset: 0; stroke: #b0b0b0; stroke-width: 0.5"/>
     </g>
     <g id="line2d_60">
      <g>
       <use xlink:href="#ma3d7692736" x="370.103513" y="229.552" style="stroke: #000000; stroke-width: 0.6"/>
      </g>
     </g>
    </g>
    <g id="xtick_31">
     <g id="line2d_61">
      <path d="M 381.327771 229.552 
L 381.327771 20.52 
" clip-path="url(#p3a6504fbba)" style="fill: none; stroke-dasharray: 1.85,0.8; stroke-dashoffset: 0; stroke: #b0b0b0; stroke-width: 0.5"/>
     </g>
     <g id="line2d_62">
      <g>
       <use xlink:href="#ma3d7692736" x="381.327771" y="229.552" style="stroke: #000000; stroke-width: 0.6"/>
      </g>
     </g>
    </g>
    <g id="xtick_32">
     <g id="line2d_63">
      <path d="M 390.033982 229.552 
L 390.033982 20.52 
" clip-path="url(#p3a6504fbba)" style="fill: none; stroke-dasharray: 1.85,0.8; stroke-dashoffset: 0; stroke: #b0b0b0; stroke-width: 0.5"/>
     </g>
     <g id="line2d_64">
      <g>
       <use xlink:href="#ma3d7692736" x="390.033982" y="229.552" style="stroke: #000000; stroke-width: 0.6"/>
      </g>
     </g>
    </g>
    <g id="xtick_33">
     <g id="line2d_65">
      <path d="M 397.147474 229.552 
L 397.147474 20.52 
" clip-path="url(#p3a6504fbba)" style="fill: none; stroke-dasharray: 1.85,0.8; stroke-dashoffset: 0; stroke: #b0b0b0; stroke-width: 0.5"/>
     </g>
     <g id="line2d_66">
      <g>
       <use xlink:href="#ma3d7692736" x="397.147474" y="229.552" style="stroke: #000000; stroke-width: 0.6"/>
      </g>
     </g>
    </g>
    <g id="xtick_34">
     <g id="line2d_67">
      <path d="M 403.161846 229.552 
L 403.161846 20.52 
" clip-path="url(#p3a6504fbba)" style="fill: none; stroke-dasharray: 1.85,0.8; stroke-dashoffset: 0; stroke: #b0b0b0; stroke-width: 0.5"/>
     </g>
     <g id="line2d_68">
      <g>
       <use xlink:href="#ma3d7692736" x="403.161846" y="229.552" style="stroke: #000000; stroke-width: 0.6"/>
      </g>
     </g>
    </g>
    <g id="xtick_35">
     <g id="line2d_69">
      <path d="M 408.371732 229.552 
L 408.371732 20.52 
" clip-path="url(#p3a6504fbba)" style="fill: none; stroke-dasharray: 1.85,0.8; stroke-dashoffset: 0; stroke: #b0b0b0; stroke-width: 0.5"/>
     </g>
     <g id="line2d_70">
      <g>
       <use xlink:href="#ma3d7692736" x="408.371732" y="229.552" style="stroke: #000000; stroke-width: 0.6"/>
      </g>
     </g>
    </g>
    <g id="xtick_36">
     <g id="line2d_71">
      <path d="M 412.967177 229.552 
L 412.967177 20.52 
" clip-path="url(#p3a6504fbba)" style="fill: none; stroke-dasharray: 1.85,0.8; stroke-dashoffset: 0; stroke: #b0b0b0; stroke-width: 0.5"/>
     </g>
     <g id="line2d_72">
      <g>
       <use xlink:href="#ma3d7692736" x="412.967177" y="229.552" style="stroke: #000000; stroke-width: 0.6"/>
      </g>
     </g>
    </g>
    <g id="text_5">
     <!-- D ($\mu$m) -->
     <g transform="translate(212.845 264.741375) scale(0.14 -0.14)">
      <defs>
       <path id="DejaVuSans-44" d="M 1259 4147 
L 1259 519 
L 2022 519 
Q 2988 519 3436 956 
Q 3884 1394 3884 2338 
Q 3884 3275 3436 3711 
Q 2988 4147 2022 4147 
L 1259 4147 
z
M 628 4666 
L 1925 4666 
Q 3281 4666 3915 4102 
Q 4550 3538 4550 2338 
Q 4550 1131 3912 565 
Q 3275 0 1925 0 
L 628 0 
L 628 4666 
z
" transform="scale(0.015625)"/>
       <path id="DejaVuSans-20" transform="scale(0.015625)"/>
       <path id="DejaVuSans-28" d="M 1984 4856 
Q 1566 4138 1362 3434 
Q 1159 2731 1159 2009 
Q 1159 1288 1364 580 
Q 1569 -128 1984 -844 
L 1484 -844 
Q 1016 -109 783 600 
Q 550 1309 550 2009 
Q 550 2706 781 3412 
Q 1013 4119 1484 4856 
L 1984 4856 
z
" transform="scale(0.015625)"/>
       <path id="DejaVuSans-Oblique-3bc" d="M -84 -1331 
L 856 3500 
L 1434 3500 
L 1009 1322 
Q 997 1256 987 1175 
Q 978 1094 978 1013 
Q 978 722 1161 565 
Q 1344 409 1684 409 
Q 2147 409 2431 671 
Q 2716 934 2816 1459 
L 3213 3500 
L 3788 3500 
L 3266 809 
Q 3253 750 3248 706 
Q 3244 663 3244 628 
Q 3244 531 3283 486 
Q 3322 441 3406 441 
Q 3438 441 3492 456 
Q 3547 472 3647 513 
L 3559 50 
Q 3422 -19 3297 -55 
Q 3172 -91 3053 -91 
Q 2847 -91 2730 40 
Q 2613 172 2613 403 
Q 2438 153 2195 31 
Q 1953 -91 1625 -91 
Q 1334 -91 1117 43 
Q 900 178 831 397 
L 494 -1331 
L -84 -1331 
z
" transform="scale(0.015625)"/>
       <path id="DejaVuSans-6d" d="M 3328 2828 
Q 3544 3216 3844 3400 
Q 4144 3584 4550 3584 
Q 5097 3584 5394 3201 
Q 5691 2819 5691 2113 
L 5691 0 
L 5113 0 
L 5113 2094 
Q 5113 2597 4934 2840 
Q 4756 3084 4391 3084 
Q 3944 3084 3684 2787 
Q 3425 2491 3425 1978 
L 3425 0 
L 2847 0 
L 2847 2094 
Q 2847 2600 2669 2842 
Q 2491 3084 2119 3084 
Q 1678 3084 1418 2786 
Q 1159 2488 1159 1978 
L 1159 0 
L 581 0 
L 581 3500 
L 1159 3500 
L 1159 2956 
Q 1356 3278 1631 3431 
Q 1906 3584 2284 3584 
Q 2666 3584 2933 3390 
Q 3200 3197 3328 2828 
z
" transform="scale(0.015625)"/>
       <path id="DejaVuSans-29" d="M 513 4856 
L 1013 4856 
Q 1481 4119 1714 3412 
Q 1947 2706 1947 2009 
Q 1947 1309 1714 600 
Q 1481 -109 1013 -844 
L 513 -844 
Q 928 -128 1133 580 
Q 1338 1288 1338 2009 
Q 1338 2731 1133 3434 
Q 928 4138 513 4856 
z
" transform="scale(0.015625)"/>
      </defs>
      <use xlink:href="#DejaVuSans-44" transform="translate(0 0.125)"/>
      <use xlink:href="#DejaVuSans-20" transform="translate(77.001953 0.125)"/>
      <use xlink:href="#DejaVuSans-28" transform="translate(108.789062 0.125)"/>
      <use xlink:href="#DejaVuSans-Oblique-3bc" transform="translate(147.802734 0.125)"/>
      <use xlink:href="#DejaVuSans-6d" transform="translate(211.425781 0.125)"/>
      <use xlink:href="#DejaVuSans-29" transform="translate(308.837891 0.125)"/>
     </g>
    </g>
   </g>
   <g id="matplotlib.axis_2">
    <g id="ytick_1">
     <g id="line2d_73">
      <path d="M 57.53 177.686917 
L 416.88 177.686917 
" clip-path="url(#p3a6504fbba)" style="fill: none; stroke-dasharray: 1.85,0.8; stroke-dashoffset: 0; stroke: #b0b0b0; stroke-width: 0.5"/>
     </g>
     <g id="line2d_74">
      <defs>
       <path id="m4760d90099" d="M 0 0 
L -3.5 0 
" style="stroke: #000000; stroke-width: 0.8"/>
      </defs>
      <g>
       <use xlink:href="#m4760d90099" x="57.53" y="177.686917" style="stroke: #000000; stroke-width: 0.8"/>
      </g>
     </g>
     <g id="text_6">
      <!-- 10 -->
      <g transform="translate(32.715 183.005824) scale(0.14 -0.14)">
       <use xlink:href="#DejaVuSans-31"/>
       <use xlink:href="#DejaVuSans-30" transform="translate(63.623047 0)"/>
      </g>
     </g>
    </g>
    <g id="ytick_2">
     <g id="line2d_75">
      <path d="M 57.53 125.297945 
L 416.88 125.297945 
" clip-path="url(#p3a6504fbba)" style="fill: none; stroke-dasharray: 1.85,0.8; stroke-dashoffset: 0; stroke: #b0b0b0; stroke-width: 0.5"/>
     </g>
     <g id="line2d_76">
      <g>
       <use xlink:href="#m4760d90099" x="57.53" y="125.297945" style="stroke: #000000; stroke-width: 0.8"/>
      </g>
     </g>
     <g id="text_7">
      <!-- 20 -->
      <g transform="translate(32.715 130.616851) scale(0.14 -0.14)">
       <use xlink:href="#DejaVuSans-32"/>
       <use xlink:href="#DejaVuSans-30" transform="translate(63.623047 0)"/>
      </g>
     </g>
    </g>
    <g id="ytick_3">
     <g id="line2d_77">
      <path d="M 57.53 72.908972 
L 416.88 72.908972 
" clip-path="url(#p3a6504fbba)" style="fill: none; stroke-dasharray: 1.85,0.8; stroke-dashoffset: 0; stroke: #b0b0b0; stroke-width: 0.5"/>
     </g>
     <g id="line2d_78">
      <g>
       <use xlink:href="#m4760d90099" x="57.53" y="72.908972" style="stroke: #000000; stroke-width: 0.8"/>
      </g>
     </g>
     <g id="text_8">
      <!-- 30 -->
      <g transform="translate(32.715 78.227879) scale(0.14 -0.14)">
       <defs>
        <path id="DejaVuSans-33" d="M 2597 2516 
Q 3050 2419 3304 2112 
Q 3559 1806 3559 1356 
Q 3559 666 3084 287 
Q 2609 -91 1734 -91 
Q 1441 -91 1130 -33 
Q 819 25 488 141 
L 488 750 
Q 750 597 1062 519 
Q 1375 441 1716 441 
Q 2309 441 2620 675 
Q 2931 909 2931 1356 
Q 2931 1769 2642 2001 
Q 2353 2234 1838 2234 
L 1294 2234 
L 1294 2753 
L 1863 2753 
Q 2328 2753 2575 2939 
Q 2822 3125 2822 3475 
Q 2822 3834 2567 4026 
Q 2313 4219 1838 4219 
Q 1578 4219 1281 4162 
Q 984 4106 628 3988 
L 628 4550 
Q 988 4650 1302 4700 
Q 1616 4750 1894 4750 
Q 2613 4750 3031 4423 
Q 3450 4097 3450 3541 
Q 3450 3153 3228 2886 
Q 3006 2619 2597 2516 
z
" transform="scale(0.015625)"/>
       </defs>
       <use xlink:href="#DejaVuSans-33"/>
       <use xlink:href="#DejaVuSans-30" transform="translate(63.623047 0)"/>
      </g>
     </g>
    </g>
    <g id="ytick_4">
     <g id="line2d_79">
      <path d="M 57.53 20.52 
L 416.88 20.52 
" clip-path="url(#p3a6504fbba)" style="fill: none; stroke-dasharray: 1.85,0.8; stroke-dashoffset: 0; stroke: #b0b0b0; stroke-width: 0.5"/>
     </g>
     <g id="line2d_80">
      <g>
       <use xlink:href="#m4760d90099" x="57.53" y="20.52" style="stroke: #000000; stroke-width: 0.8"/>
      </g>
     </g>
     <g id="text_9">
      <!-- 40 -->
      <g transform="translate(32.715 25.838906) scale(0.14 -0.14)">
       <defs>
        <path id="DejaVuSans-34" d="M 2419 4116 
L 825 1625 
L 2419 1625 
L 2419 4116 
z
M 2253 4666 
L 3047 4666 
L 3047 1625 
L 3713 1625 
L 3713 1100 
L 3047 1100 
L 3047 0 
L 2419 0 
L 2419 1100 
L 313 1100 
L 313 1709 
L 2253 4666 
z
" transform="scale(0.015625)"/>
       </defs>
       <use xlink:href="#DejaVuSans-34"/>
       <use xlink:href="#DejaVuSans-30" transform="translate(63.623047 0)"/>
      </g>
     </g>
    </g>
    <g id="text_10">
     <!-- Number distribution (%) -->
     <g transform="translate(25.803437 209.609125) rotate(-90) scale(0.14 -0.14)">
      <defs>
       <path id="DejaVuSans-4e" d="M 628 4666 
L 1478 4666 
L 3547 763 
L 3547 4666 
L 4159 4666 
L 4159 0 
L 3309 0 
L 1241 3903 
L 1241 0 
L 628 0 
L 628 4666 
z
" transform="scale(0.015625)"/>
       <path id="DejaVuSans-75" d="M 544 1381 
L 544 3500 
L 1119 3500 
L 1119 1403 
Q 1119 906 1312 657 
Q 1506 409 1894 409 
Q 2359 409 2629 706 
Q 2900 1003 2900 1516 
L 2900 3500 
L 3475 3500 
L 3475 0 
L 2900 0 
L 2900 538 
Q 2691 219 2414 64 
Q 2138 -91 1772 -91 
Q 1169 -91 856 284 
Q 544 659 544 1381 
z
M 1991 3584 
L 1991 3584 
z
" transform="scale(0.015625)"/>
       <path id="DejaVuSans-62" d="M 3116 1747 
Q 3116 2381 2855 2742 
Q 2594 3103 2138 3103 
Q 1681 3103 1420 2742 
Q 1159 2381 1159 1747 
Q 1159 1113 1420 752 
Q 1681 391 2138 391 
Q 2594 391 2855 752 
Q 3116 1113 3116 1747 
z
M 1159 2969 
Q 1341 3281 1617 3432 
Q 1894 3584 2278 3584 
Q 2916 3584 3314 3078 
Q 3713 2572 3713 1747 
Q 3713 922 3314 415 
Q 2916 -91 2278 -91 
Q 1894 -91 1617 61 
Q 1341 213 1159 525 
L 1159 0 
L 581 0 
L 581 4863 
L 1159 4863 
L 1159 2969 
z
" transform="scale(0.015625)"/>
       <path id="DejaVuSans-65" d="M 3597 1894 
L 3597 1613 
L 953 1613 
Q 991 1019 1311 708 
Q 1631 397 2203 397 
Q 2534 397 2845 478 
Q 3156 559 3463 722 
L 3463 178 
Q 3153 47 2828 -22 
Q 2503 -91 2169 -91 
Q 1331 -91 842 396 
Q 353 884 353 1716 
Q 353 2575 817 3079 
Q 1281 3584 2069 3584 
Q 2775 3584 3186 3129 
Q 3597 2675 3597 1894 
z
M 3022 2063 
Q 3016 2534 2758 2815 
Q 2500 3097 2075 3097 
Q 1594 3097 1305 2825 
Q 1016 2553 972 2059 
L 3022 2063 
z
" transform="scale(0.015625)"/>
       <path id="DejaVuSans-72" d="M 2631 2963 
Q 2534 3019 2420 3045 
Q 2306 3072 2169 3072 
Q 1681 3072 1420 2755 
Q 1159 2438 1159 1844 
L 1159 0 
L 581 0 
L 581 3500 
L 1159 3500 
L 1159 2956 
Q 1341 3275 1631 3429 
Q 1922 3584 2338 3584 
Q 2397 3584 2469 3576 
Q 2541 3569 2628 3553 
L 2631 2963 
z
" transform="scale(0.015625)"/>
       <path id="DejaVuSans-64" d="M 2906 2969 
L 2906 4863 
L 3481 4863 
L 3481 0 
L 2906 0 
L 2906 525 
Q 2725 213 2448 61 
Q 2172 -91 1784 -91 
Q 1150 -91 751 415 
Q 353 922 353 1747 
Q 353 2572 751 3078 
Q 1150 3584 1784 3584 
Q 2172 3584 2448 3432 
Q 2725 3281 2906 2969 
z
M 947 1747 
Q 947 1113 1208 752 
Q 1469 391 1925 391 
Q 2381 391 2643 752 
Q 2906 1113 2906 1747 
Q 2906 2381 2643 2742 
Q 2381 3103 1925 3103 
Q 1469 3103 1208 2742 
Q 947 2381 947 1747 
z
" transform="scale(0.015625)"/>
       <path id="DejaVuSans-69" d="M 603 3500 
L 1178 3500 
L 1178 0 
L 603 0 
L 603 3500 
z
M 603 4863 
L 1178 4863 
L 1178 4134 
L 603 4134 
L 603 4863 
z
" transform="scale(0.015625)"/>
       <path id="DejaVuSans-73" d="M 2834 3397 
L 2834 2853 
Q 2591 2978 2328 3040 
Q 2066 3103 1784 3103 
Q 1356 3103 1142 2972 
Q 928 2841 928 2578 
Q 928 2378 1081 2264 
Q 1234 2150 1697 2047 
L 1894 2003 
Q 2506 1872 2764 1633 
Q 3022 1394 3022 966 
Q 3022 478 2636 193 
Q 2250 -91 1575 -91 
Q 1294 -91 989 -36 
Q 684 19 347 128 
L 347 722 
Q 666 556 975 473 
Q 1284 391 1588 391 
Q 1994 391 2212 530 
Q 2431 669 2431 922 
Q 2431 1156 2273 1281 
Q 2116 1406 1581 1522 
L 1381 1569 
Q 847 1681 609 1914 
Q 372 2147 372 2553 
Q 372 3047 722 3315 
Q 1072 3584 1716 3584 
Q 2034 3584 2315 3537 
Q 2597 3491 2834 3397 
z
" transform="scale(0.015625)"/>
       <path id="DejaVuSans-74" d="M 1172 4494 
L 1172 3500 
L 2356 3500 
L 2356 3053 
L 1172 3053 
L 1172 1153 
Q 1172 725 1289 603 
Q 1406 481 1766 481 
L 2356 481 
L 2356 0 
L 1766 0 
Q 1100 0 847 248 
Q 594 497 594 1153 
L 594 3053 
L 172 3053 
L 172 3500 
L 594 3500 
L 594 4494 
L 1172 4494 
z
" transform="scale(0.015625)"/>
       <path id="DejaVuSans-6f" d="M 1959 3097 
Q 1497 3097 1228 2736 
Q 959 2375 959 1747 
Q 959 1119 1226 758 
Q 1494 397 1959 397 
Q 2419 397 2687 759 
Q 2956 1122 2956 1747 
Q 2956 2369 2687 2733 
Q 2419 3097 1959 3097 
z
M 1959 3584 
Q 2709 3584 3137 3096 
Q 3566 2609 3566 1747 
Q 3566 888 3137 398 
Q 2709 -91 1959 -91 
Q 1206 -91 779 398 
Q 353 888 353 1747 
Q 353 2609 779 3096 
Q 1206 3584 1959 3584 
z
" transform="scale(0.015625)"/>
       <path id="DejaVuSans-6e" d="M 3513 2113 
L 3513 0 
L 2938 0 
L 2938 2094 
Q 2938 2591 2744 2837 
Q 2550 3084 2163 3084 
Q 1697 3084 1428 2787 
Q 1159 2491 1159 1978 
L 1159 0 
L 581 0 
L 581 3500 
L 1159 3500 
L 1159 2956 
Q 1366 3272 1645 3428 
Q 1925 3584 2291 3584 
Q 2894 3584 3203 3211 
Q 3513 2838 3513 2113 
z
" transform="scale(0.015625)"/>
       <path id="DejaVuSans-25" d="M 4653 2053 
Q 4381 2053 4226 1822 
Q 4072 1591 4072 1178 
Q 4072 772 4226 539 
Q 4381 306 4653 306 
Q 4919 306 5073 539 
Q 5228 772 5228 1178 
Q 5228 1588 5073 1820 
Q 4919 2053 4653 2053 
z
M 4653 2450 
Q 5147 2450 5437 2106 
Q 5728 1763 5728 1178 
Q 5728 594 5436 251 
Q 5144 -91 4653 -91 
Q 4153 -91 3862 251 
Q 3572 594 3572 1178 
Q 3572 1766 3864 2108 
Q 4156 2450 4653 2450 
z
M 1428 4353 
Q 1159 4353 1004 4120 
Q 850 3888 850 3481 
Q 850 3069 1003 2837 
Q 1156 2606 1428 2606 
Q 1700 2606 1854 2837 
Q 2009 3069 2009 3481 
Q 2009 3884 1853 4118 
Q 1697 4353 1428 4353 
z
M 4250 4750 
L 4750 4750 
L 1831 -91 
L 1331 -91 
L 4250 4750 
z
M 1428 4750 
Q 1922 4750 2215 4408 
Q 2509 4066 2509 3481 
Q 2509 2891 2217 2550 
Q 1925 2209 1428 2209 
Q 931 2209 642 2551 
Q 353 2894 353 3481 
Q 353 4063 643 4406 
Q 934 4750 1428 4750 
z
" transform="scale(0.015625)"/>
      </defs>
      <use xlink:href="#DejaVuSans-4e"/>
      <use xlink:href="#DejaVuSans-75" transform="translate(74.804688 0)"/>
      <use xlink:href="#DejaVuSans-6d" transform="translate(138.183594 0)"/>
      <use xlink:href="#DejaVuSans-62" transform="translate(235.595703 0)"/>
      <use xlink:href="#DejaVuSans-65" transform="translate(299.072266 0)"/>
      <use xlink:href="#DejaVuSans-72" transform="translate(360.595703 0)"/>
      <use xlink:href="#DejaVuSans-20" transform="translate(401.708984 0)"/>
      <use xlink:href="#DejaVuSans-64" transform="translate(433.496094 0)"/>
      <use xlink:href="#DejaVuSans-69" transform="translate(496.972656 0)"/>
      <use xlink:href="#DejaVuSans-73" transform="translate(524.755859 0)"/>
      <use xlink:href="#DejaVuSans-74" transform="translate(576.855469 0)"/>
      <use xlink:href="#DejaVuSans-72" transform="translate(616.064453 0)"/>
      <use xlink:href="#DejaVuSans-69" transform="translate(657.177734 0)"/>
      <use xlink:href="#DejaVuSans-62" transform="translate(684.960938 0)"/>
      <use xlink:href="#DejaVuSans-75" transform="translate(748.4375 0)"/>
      <use xlink:href="#DejaVuSans-74" transform="translate(811.816406 0)"/>
      <use xlink:href="#DejaVuSans-69" transform="translate(851.025391 0)"/>
      <use xlink:href="#DejaVuSans-6f" transform="translate(878.808594 0)"/>
      <use xlink:href="#DejaVuSans-6e" transform="translate(939.990234 0)"/>
      <use xlink:href="#DejaVuSans-20" transform="translate(1003.369141 0)"/>
      <use xlink:href="#DejaVuSans-28" transform="translate(1035.15625 0)"/>
      <use xlink:href="#DejaVuSans-25" transform="translate(1074.169922 0)"/>
      <use xlink:href="#DejaVuSans-29" transform="translate(1169.189453 0)"/>
     </g>
    </g>
   </g>
   <g id="line2d_81">
    <path d="M 60.90851 230.075889 
L 98.718782 229.973764 
L 103.445066 229.760374 
L 106.989779 229.388996 
L 109.352921 228.958859 
L 111.716063 228.305842 
L 114.079205 227.342829 
L 116.442347 225.963846 
L 117.623918 225.080826 
L 118.805489 224.047373 
L 119.98706 222.847094 
L 121.168631 221.463821 
L 122.350202 219.882113 
L 123.531773 218.087832 
L 124.713344 216.068778 
L 125.894915 213.815369 
L 128.258057 208.584508 
L 130.621199 202.397646 
L 132.984341 195.341714 
L 135.347483 187.602223 
L 142.436908 163.598532 
L 144.80005 156.791133 
L 145.981621 153.874532 
L 147.163192 151.353578 
L 148.344763 149.274461 
L 149.526334 147.67606 
L 150.707905 146.588735 
L 151.889476 146.033368 
L 153.071047 146.020694 
L 154.252618 146.550959 
L 155.434189 147.613911 
L 156.61576 149.189127 
L 157.797331 151.24667 
L 158.978902 153.748032 
L 160.160473 156.647333 
L 162.523615 163.427902 
L 164.886757 171.130021 
L 171.976183 195.168442 
L 174.339325 202.24279 
L 176.702467 208.451227 
L 179.065609 213.704657 
L 181.428751 217.998927 
L 182.610322 219.803417 
L 183.791893 221.394718 
L 184.973464 222.786893 
L 186.155035 223.995334 
L 187.336606 225.036188 
L 189.699748 226.680527 
L 192.06289 227.846881 
L 194.426032 228.650014 
L 196.789174 229.187106 
L 200.333887 229.659248 
L 205.060171 229.937324 
L 212.149597 230.054008 
L 236.962587 230.075884 
L 414.198235 230.07589 
L 414.198235 230.07589 
" clip-path="url(#p3a6504fbba)" style="fill: none; stroke: #1f77b4; stroke-width: 1.5; stroke-linecap: square"/>
   </g>
   <g id="line2d_82">
    <path d="M 60.90851 230.07589 
L 157.797331 229.98488 
L 164.886757 229.759611 
L 169.613041 229.401341 
L 173.157754 228.930185 
L 176.702467 228.192841 
L 179.065609 227.500796 
L 181.428751 226.605467 
L 183.791893 225.466647 
L 186.155035 224.042874 
L 188.518177 222.293784 
L 190.881319 220.183127 
L 193.244461 217.682336 
L 195.607603 214.774464 
L 197.970745 211.458202 
L 200.333887 207.751615 
L 202.697029 203.695163 
L 206.241742 197.102834 
L 214.512739 181.244338 
L 216.875881 177.212302 
L 219.239023 173.677003 
L 221.602164 170.777594 
L 222.783735 169.604532 
L 223.965306 168.632994 
L 225.146877 167.873355 
L 226.328448 167.333807 
L 227.510019 167.020208 
L 228.69159 166.935979 
L 229.873161 167.08204 
L 231.054732 167.456795 
L 232.236303 168.056161 
L 233.417874 168.873639 
L 234.599445 169.900437 
L 235.781016 171.125622 
L 238.144158 174.117919 
L 240.5073 177.728393 
L 242.870442 181.815851 
L 246.415155 188.51033 
L 253.504581 202.136584 
L 255.867723 206.306109 
L 258.230865 210.146567 
L 260.594007 213.608769 
L 262.957149 216.66676 
L 265.320291 219.315171 
L 267.683433 221.565689 
L 270.046575 223.443103 
L 272.409717 224.981289 
L 274.772859 226.219491 
L 277.136001 227.199077 
L 279.499143 227.960945 
L 281.862285 228.543588 
L 285.406998 229.156456 
L 288.951711 229.542031 
L 293.677995 229.830172 
L 300.767421 230.007122 
L 314.946272 230.072259 
L 414.198235 230.07589 
L 414.198235 230.07589 
" clip-path="url(#p3a6504fbba)" style="fill: none; stroke: #ff7f0e; stroke-width: 1.5; stroke-linecap: square"/>
   </g>
   <g id="line2d_83">
    <path d="M 60.90851 230.07589 
L 166.068328 229.98555 
L 171.976183 229.78718 
L 176.702467 229.400941 
L 180.24718 228.85818 
L 182.610322 228.311031 
L 184.973464 227.563251 
L 187.336606 226.561869 
L 189.699748 225.248276 
L 192.06289 223.560885 
L 194.426032 221.439128 
L 196.789174 218.828776 
L 199.152316 215.688392 
L 201.515458 211.996513 
L 203.8786 207.758899 
L 206.241742 203.015017 
L 208.604884 197.842799 
L 213.331168 186.726373 
L 216.875881 178.4149 
L 219.239023 173.286675 
L 221.602164 168.752946 
L 222.783735 166.776896 
L 223.965306 165.027864 
L 225.146877 163.527901 
L 226.328448 162.296252 
L 227.510019 161.348943 
L 228.69159 160.698435 
L 229.873161 160.353355 
L 231.054732 160.318299 
L 232.236303 160.593735 
L 233.417874 161.175992 
L 234.599445 162.057338 
L 235.781016 163.226156 
L 236.962587 164.667195 
L 238.144158 166.361903 
L 240.5073 170.424046 
L 242.870442 175.214481 
L 246.415155 183.279987 
L 253.504581 199.889996 
L 255.867723 204.908157 
L 258.230865 209.463035 
L 260.594007 213.492008 
L 262.957149 216.969344 
L 265.320291 219.900659 
L 267.683433 222.316022 
L 270.046575 224.262649 
L 272.409717 225.797933 
L 274.772859 226.983399 
L 277.136001 227.879879 
L 279.499143 228.544046 
L 281.862285 229.02623 
L 285.406998 229.500084 
L 290.133282 229.832967 
L 297.222708 230.017658 
L 311.401559 230.073822 
L 414.198235 230.07589 
L 414.198235 230.07589 
" clip-path="url(#p3a6504fbba)" style="fill: none; stroke: #d62728; stroke-width: 1.5; stroke-linecap: square"/>
   </g>
   <g id="line2d_84">
    <path d="M 60.90851 230.07589 
L 155.434189 229.970705 
L 162.523615 229.719992 
L 167.249899 229.329212 
L 170.794612 228.822291 
L 174.339325 228.037974 
L 176.702467 227.308344 
L 179.065609 226.37094 
L 181.428751 225.186569 
L 183.791893 223.715356 
L 186.155035 221.919136 
L 188.518177 219.764435 
L 190.881319 217.225943 
L 193.244461 214.290274 
L 195.607603 210.959736 
L 197.970745 207.255751 
L 200.333887 203.221527 
L 203.8786 196.702914 
L 210.968026 183.284929 
L 213.331168 179.184783 
L 215.69431 175.512591 
L 218.057452 172.407459 
L 219.239023 171.106866 
L 220.420594 169.992498 
L 221.602164 169.075917 
L 222.783735 168.366743 
L 223.965306 167.872488 
L 225.146877 167.59842 
L 226.328448 167.547474 
L 227.510019 167.720196 
L 228.69159 168.114734 
L 229.873161 168.726874 
L 231.054732 169.550111 
L 232.236303 170.575766 
L 233.417874 171.793137 
L 235.781016 174.75126 
L 238.144158 178.306175 
L 240.5073 182.321663 
L 244.052013 188.889747 
L 251.141439 202.26361 
L 254.686152 208.299657 
L 257.049294 211.905244 
L 259.412436 215.129485 
L 261.775578 217.956467 
L 264.13872 220.388519 
L 266.501862 222.442654 
L 268.865004 224.14677 
L 271.228146 225.535945 
L 273.591288 226.649082 
L 275.95443 227.526081 
L 278.317572 228.205619 
L 281.862285 228.93213 
L 285.406998 229.398611 
L 290.133282 229.75558 
L 296.041137 229.959991 
L 306.675275 230.061051 
L 351.574973 230.07589 
L 414.198235 230.07589 
L 414.198235 230.07589 
" clip-path="url(#p3a6504fbba)" style="fill: none; stroke: #bcbd22; stroke-width: 1.5; stroke-linecap: square"/>
   </g>
   <g id="line2d_85">
    <path d="M 60.90851 230.07589 
L 151.889476 229.980291 
L 158.978902 229.759229 
L 163.705186 229.418617 
L 167.249899 228.979245 
L 170.794612 228.301446 
L 173.157754 227.671575 
L 175.520896 226.862238 
L 177.884038 225.838634 
L 180.24718 224.564654 
L 182.610322 223.004713 
L 184.973464 221.1261 
L 187.336606 218.901793 
L 189.699748 216.313608 
L 192.06289 213.355481 
L 194.426032 210.036626 
L 196.789174 206.384253 
L 200.333887 200.389179 
L 210.968026 181.488687 
L 213.331168 177.862221 
L 215.69431 174.724957 
L 218.057452 172.193813 
L 219.239023 171.187036 
L 220.420594 170.366628 
L 221.602164 169.740807 
L 222.783735 169.315895 
L 223.965306 169.096209 
L 225.146877 169.083988 
L 226.328448 169.279357 
L 227.510019 169.680324 
L 228.69159 170.282812 
L 229.873161 171.080732 
L 231.054732 172.066081 
L 232.236303 173.229079 
L 234.599445 176.040999 
L 236.962587 179.409394 
L 239.325729 183.211184 
L 242.870442 189.438061 
L 249.959868 202.206396 
L 253.504581 208.034292 
L 255.867723 211.544112 
L 258.230865 214.706042 
L 260.594007 217.501108 
L 262.957149 219.927205 
L 265.320291 221.996148 
L 267.683433 223.730421 
L 270.046575 225.15993 
L 272.409717 226.318975 
L 274.772859 227.243632 
L 277.136001 227.969626 
L 280.680714 228.759212 
L 284.225427 229.277669 
L 288.951711 229.685419 
L 294.859566 229.927941 
L 304.312134 230.049662 
L 333.851408 230.075861 
L 414.198235 230.07589 
L 414.198235 230.07589 
" clip-path="url(#p3a6504fbba)" style="fill: none; stroke: #17becf; stroke-width: 1.5; stroke-linecap: square"/>
   </g>
   <g id="line2d_86">
    <path d="M 60.90851 230.07589 
L 153.071047 229.974585 
L 160.160473 229.736047 
L 164.886757 229.365965 
L 168.43147 228.886975 
L 171.976183 228.146747 
L 174.339325 227.458416 
L 176.702467 226.574018 
L 179.065609 225.45614 
L 181.428751 224.06641 
L 183.791893 222.367646 
L 186.155035 220.326572 
L 188.518177 217.91702 
L 190.881319 215.123439 
L 193.244461 211.944472 
L 195.607603 208.396286 
L 197.970745 204.515287 
L 201.515458 198.203574 
L 210.968026 180.88374 
L 213.331168 177.137973 
L 215.69431 173.901537 
L 216.875881 172.513838 
L 218.057452 171.298607 
L 219.239023 170.268094 
L 220.420594 169.432826 
L 221.602164 168.801426 
L 222.783735 168.380465 
L 223.965306 168.174352 
L 225.146877 168.18525 
L 226.328448 168.413045 
L 227.510019 168.855345 
L 228.69159 169.507522 
L 229.873161 170.362793 
L 231.054732 171.412335 
L 232.236303 172.645442 
L 234.599445 175.611204 
L 236.962587 179.14421 
L 239.325729 183.11231 
L 242.870442 189.573201 
L 249.959868 202.675579 
L 253.504581 208.582522 
L 255.867723 212.112883 
L 258.230865 215.272752 
L 260.594007 218.046911 
L 262.957149 220.437513 
L 265.320291 222.460726 
L 267.683433 224.143157 
L 270.046575 225.518349 
L 272.409717 226.623606 
L 274.772859 227.497298 
L 277.136001 228.176741 
L 280.680714 228.906697 
L 284.225427 229.378478 
L 288.951711 229.742507 
L 294.859566 229.953442 
L 305.493704 230.059713 
L 348.03026 230.075889 
L 414.198235 230.07589 
L 414.198235 230.07589 
" clip-path="url(#p3a6504fbba)" style="fill: none; stroke: #7f7f7f; stroke-width: 1.5; stroke-linecap: square"/>
   </g>
   <g id="patch_3">
    <path d="M 57.53 229.552 
L 57.53 20.52 
" style="fill: none; stroke: #000000; stroke-width: 0.8; stroke-linejoin: miter; stroke-linecap: square"/>
   </g>
   <g id="patch_4">
    <path d="M 416.88 229.552 
L 416.88 20.52 
" style="fill: none; stroke: #000000; stroke-width: 0.8; stroke-linejoin: miter; stroke-linecap: square"/>
   </g>
   <g id="patch_5">
    <path d="M 57.53 229.552 
L 416.88 229.552 
" style="fill: none; stroke: #000000; stroke-width: 0.8; stroke-linejoin: miter; stroke-linecap: square"/>
   </g>
   <g id="patch_6">
    <path d="M 57.53 20.52 
L 416.88 20.52 
" style="fill: none; stroke: #000000; stroke-width: 0.8; stroke-linejoin: miter; stroke-linecap: square"/>
   </g>
  </g>
 </g>
 <defs>
  <clipPath id="p3a6504fbba">
   <rect x="57.53" y="20.52" width="359.35" height="209.032"/>
  </clipPath>
 </defs>
</svg>
